# Blender 4.4.1
# www.blender.org
mtllib titleFont.mtl
o テキスト
v -10.299018 0.800211 -0.346256
v -10.297093 -1.044467 -0.396263
v -10.605765 -1.044467 -0.408141
v -10.606772 -0.078990 -0.381968
v -10.610252 -0.001379 -0.379995
v -10.620242 0.072850 -0.378364
v -10.636324 0.143057 -0.377077
v -10.658069 0.208599 -0.376135
v -10.685061 0.268834 -0.375538
v -10.716873 0.323121 -0.375289
v -10.753088 0.370817 -0.375387
v -10.793283 0.411281 -0.375836
v -10.837033 0.443870 -0.376634
v -10.883918 0.467943 -0.377785
v -10.933513 0.482857 -0.379289
v -10.985401 0.487971 -0.381147
v -11.004576 0.486454 -0.381926
v -11.025504 0.481999 -0.382852
v -11.047924 0.474748 -0.383912
v -11.071568 0.464843 -0.385091
v -11.096173 0.452427 -0.386375
v -11.121474 0.437643 -0.387750
v -11.147208 0.420634 -0.389202
v -11.173109 0.401543 -0.390717
v -11.198911 0.380511 -0.392281
v -11.224349 0.357682 -0.393879
v -11.249157 0.333197 -0.395499
v -11.273075 0.307201 -0.397125
v -11.436410 0.623549 -0.394822
v -11.404571 0.657959 -0.392663
v -11.373102 0.689303 -0.390601
v -11.341946 0.717593 -0.388634
v -11.311036 0.742845 -0.386759
v -11.280315 0.765073 -0.384973
v -11.249726 0.784291 -0.383274
v -11.219207 0.800513 -0.381659
v -11.188696 0.813753 -0.380126
v -11.158133 0.824027 -0.378670
v -11.127459 0.831347 -0.377291
v -11.096612 0.835729 -0.375985
v -11.065533 0.837187 -0.374750
v -11.029038 0.834331 -0.373423
v -10.992383 0.825641 -0.372248
v -10.955552 0.810931 -0.371230
v -10.918532 0.790016 -0.370373
v -10.881317 0.762710 -0.369682
v -10.843887 0.728827 -0.369162
v -10.806234 0.688183 -0.368816
v -10.768345 0.640591 -0.368650
v -10.730208 0.585867 -0.368668
v -10.691811 0.523825 -0.368875
v -10.653140 0.454279 -0.369275
v -10.614184 0.377044 -0.369873
v -10.607248 0.377044 -0.369606
v -10.607690 0.800211 -0.358134
v -9.916148 -0.510373 -0.367103
v -9.871091 -0.544082 -0.366284
v -9.826132 -0.575309 -0.365402
v -9.781223 -0.603968 -0.364451
v -9.736317 -0.629974 -0.363429
v -9.691367 -0.653241 -0.362331
v -9.646322 -0.673683 -0.361153
v -9.601136 -0.691215 -0.359890
v -9.555763 -0.705751 -0.358538
v -9.510149 -0.717206 -0.357094
v -9.464252 -0.725495 -0.355553
v -9.418019 -0.730530 -0.353910
v -9.371407 -0.732228 -0.352163
v -9.299377 -0.728298 -0.349284
v -9.232438 -0.716536 -0.346389
v -9.170612 -0.696985 -0.343479
v -9.113924 -0.669689 -0.340556
v -9.062399 -0.634689 -0.337623
v -9.016061 -0.592028 -0.334681
v -8.974932 -0.541750 -0.331734
v -8.939038 -0.483897 -0.328782
v -8.908401 -0.418512 -0.325828
v -8.883048 -0.345637 -0.322874
v -8.863000 -0.265316 -0.319921
v -8.848284 -0.177592 -0.316973
v -9.944241 -0.177592 -0.359149
v -9.938987 -0.014358 -0.354515
v -9.923132 0.134382 -0.349867
v -9.897073 0.268685 -0.345218
v -9.861209 0.388609 -0.340582
v -9.815938 0.494210 -0.335973
v -9.761655 0.585546 -0.331404
v -9.698759 0.662674 -0.326890
v -9.627647 0.725651 -0.322444
v -9.548718 0.774533 -0.318079
v -9.462368 0.809379 -0.313810
v -9.368994 0.830244 -0.309650
v -9.268996 0.837187 -0.305614
v -9.164316 0.829426 -0.301796
v -9.065688 0.806602 -0.298620
v -8.973694 0.769398 -0.296090
v -8.888908 0.718499 -0.294209
v -8.811916 0.654590 -0.292981
v -8.743289 0.578357 -0.292410
v -8.683613 0.490482 -0.292499
v -8.633461 0.391652 -0.293252
v -8.593416 0.282551 -0.294673
v -8.564054 0.163863 -0.296765
v -8.545953 0.036274 -0.299533
v -8.539694 -0.099532 -0.302979
v -8.545164 -0.225870 -0.306619
v -8.561719 -0.349156 -0.310603
v -8.589163 -0.467877 -0.314883
v -8.627309 -0.580521 -0.319409
v -8.675963 -0.685575 -0.324133
v -8.734936 -0.781529 -0.329008
v -8.804033 -0.866869 -0.333984
v -8.883067 -0.940083 -0.339013
v -8.971847 -0.999660 -0.344047
v -9.070178 -1.044087 -0.349037
v -9.177874 -1.071852 -0.353935
v -9.294740 -1.081443 -0.358693
v -9.358751 -1.079983 -0.361117
v -9.419249 -1.075585 -0.363325
v -9.476620 -1.068219 -0.365333
v -9.531246 -1.057858 -0.367154
v -9.583516 -1.044472 -0.368802
v -9.633814 -1.028034 -0.370292
v -9.682527 -1.008514 -0.371636
v -9.730039 -0.985884 -0.372850
v -9.776732 -0.960116 -0.373948
v -9.822999 -0.931182 -0.374943
v -9.869219 -0.899051 -0.375849
v -9.915780 -0.863697 -0.376681
v -8.855473 0.064805 -0.310669
v -8.868041 0.135054 -0.309246
v -8.884772 0.199869 -0.308130
v -8.905640 0.259120 -0.307324
v -8.930620 0.312679 -0.306832
v -8.959687 0.360418 -0.306654
v -8.992821 0.402208 -0.306795
v -9.029993 0.437922 -0.307256
v -9.071182 0.467430 -0.308040
v -9.116360 0.490604 -0.309149
v -9.165506 0.507315 -0.310587
v -9.218596 0.517437 -0.312355
v -9.275601 0.520839 -0.314456
v -9.328465 0.517201 -0.316589
v -9.377707 0.506459 -0.318776
v -9.423187 0.488870 -0.321004
v -9.464755 0.464690 -0.323260
v -9.502272 0.434177 -0.325532
v -9.535591 0.397586 -0.327808
v -9.564571 0.355175 -0.330074
v -9.589063 0.307201 -0.332319
v -9.608925 0.253920 -0.334530
v -9.624012 0.195589 -0.336694
v -9.634182 0.132465 -0.338799
v -9.639289 0.064805 -0.340833
v -7.261858 1.757472 -0.203388
v -6.953185 1.757472 -0.191510
v -6.950262 -1.044467 -0.267467
v -7.258934 -1.044467 -0.279345
v -8.332538 0.800211 -0.270580
v -7.964907 0.800211 -0.256432
v -7.273789 -0.103640 -0.254375
v -8.053157 -1.044467 -0.309909
v -8.469343 -1.044467 -0.325925
v -7.665698 -0.103640 -0.269456
v -6.680084 -0.715794 -0.248146
v -6.662887 -0.730680 -0.247889
v -6.646061 -0.744496 -0.247616
v -6.629697 -0.757199 -0.247331
v -6.613875 -0.768747 -0.247036
v -6.598682 -0.779097 -0.246732
v -6.584201 -0.788205 -0.246422
v -6.570514 -0.796029 -0.246108
v -6.557708 -0.802527 -0.245792
v -6.545867 -0.807656 -0.245475
v -6.535076 -0.811372 -0.245161
v -6.525416 -0.813633 -0.244850
v -6.516975 -0.814396 -0.244546
v -6.507802 -0.813871 -0.244179
v -6.499365 -0.812247 -0.243810
v -6.491674 -0.809453 -0.243438
v -6.484744 -0.805418 -0.243062
v -6.478586 -0.800071 -0.242680
v -6.473211 -0.793340 -0.242291
v -6.468634 -0.785155 -0.241892
v -6.464865 -0.775442 -0.241483
v -6.461917 -0.764132 -0.241063
v -6.459801 -0.751153 -0.240629
v -6.458529 -0.736434 -0.240181
v -6.458115 -0.719903 -0.239716
v -6.459105 0.229141 -0.213988
v -6.454114 0.329136 -0.211082
v -6.439346 0.419688 -0.208055
v -6.415440 0.500939 -0.204929
v -6.383035 0.573031 -0.201725
v -6.342768 0.636107 -0.198463
v -6.295278 0.690311 -0.195164
v -6.241205 0.735784 -0.191848
v -6.181186 0.772669 -0.188537
v -6.115860 0.801110 -0.185251
v -6.045866 0.821248 -0.182011
v -5.971838 0.833226 -0.178837
v -5.894419 0.837187 -0.175750
v -5.839211 0.835473 -0.173672
v -5.786286 0.830320 -0.171775
v -5.735622 0.821716 -0.170059
v -5.687196 0.809645 -0.168523
v -5.640982 0.794093 -0.167167
v -5.596955 0.775047 -0.165990
v -5.555092 0.752491 -0.164991
v -5.515369 0.726412 -0.164170
v -5.477762 0.696795 -0.163527
v -5.442245 0.663625 -0.163061
v -5.408798 0.626889 -0.162771
v -5.377393 0.586573 -0.162657
v -5.376977 0.188057 -0.173460
v -5.414804 0.238055 -0.173559
v -5.453538 0.283330 -0.173820
v -5.493088 0.323956 -0.174239
v -5.533355 0.360002 -0.174810
v -5.574245 0.391540 -0.175527
v -5.615659 0.418642 -0.176385
v -5.657501 0.441378 -0.177378
v -5.699677 0.459821 -0.178501
v -5.742090 0.474041 -0.179747
v -5.784642 0.484110 -0.181111
v -5.827238 0.490099 -0.182588
v -5.869782 0.492080 -0.184171
v -5.914649 0.490088 -0.185952
v -5.955613 0.484015 -0.187693
v -5.992667 0.473720 -0.189399
v -6.025817 0.459060 -0.191072
v -6.055061 0.439893 -0.192718
v -6.080397 0.416074 -0.194340
v -6.101827 0.387463 -0.195941
v -6.119349 0.353915 -0.197526
v -6.132966 0.315290 -0.199099
v -6.142674 0.271443 -0.200663
v -6.148476 0.222232 -0.202222
v -6.150369 0.167515 -0.203780
v -6.150266 0.068913 -0.206453
v -5.876156 -0.046122 -0.199028
v -5.813231 -0.073058 -0.197338
v -5.750086 -0.101035 -0.195667
v -5.687809 -0.130923 -0.194082
v -5.627478 -0.163593 -0.192647
v -5.570178 -0.199915 -0.191428
v -5.516993 -0.240759 -0.190490
v -5.469004 -0.286995 -0.189899
v -5.427293 -0.339494 -0.189719
v -5.392947 -0.399125 -0.190016
v -5.367046 -0.466760 -0.190856
v -5.350673 -0.543267 -0.192303
v -5.344911 -0.629517 -0.194423
v -5.347985 -0.688467 -0.196141
v -5.357154 -0.745732 -0.198049
v -5.372153 -0.800659 -0.200117
v -5.392720 -0.852589 -0.202319
v -5.418590 -0.900868 -0.204625
v -5.449497 -0.944838 -0.207008
v -5.485179 -0.983844 -0.209440
v -5.525370 -1.017230 -0.211893
v -5.569807 -1.044339 -0.214339
v -5.618224 -1.064515 -0.216750
v -5.670361 -1.077102 -0.219098
v -5.725944 -1.081443 -0.221355
v -5.761490 -1.080157 -0.222688
v -5.797015 -1.076288 -0.223950
v -5.832496 -1.069824 -0.225140
v -5.867906 -1.060749 -0.226256
v -5.903223 -1.049049 -0.227298
v -5.938421 -1.034710 -0.228263
v -5.973480 -1.017717 -0.229151
v -6.008371 -0.998057 -0.229960
v -6.043073 -0.975716 -0.230689
v -6.077560 -0.950678 -0.231336
v -6.111810 -0.922929 -0.231901
v -6.145795 -0.892456 -0.232381
v -6.153647 -0.923792 -0.233534
v -6.163443 -0.952104 -0.234680
v -6.175240 -0.977449 -0.235822
v -6.189099 -0.999883 -0.236964
v -6.205081 -1.019465 -0.238111
v -6.223245 -1.036251 -0.239266
v -6.243652 -1.050297 -0.240433
v -6.266362 -1.061662 -0.241615
v -6.291435 -1.070402 -0.242817
v -6.318932 -1.076574 -0.244043
v -6.348911 -1.080235 -0.245296
v -6.381435 -1.081443 -0.246580
v -6.404990 -1.080732 -0.247468
v -6.427378 -1.078495 -0.248268
v -6.449019 -1.074574 -0.248995
v -6.470340 -1.068814 -0.249659
v -6.491756 -1.061056 -0.250272
v -6.513694 -1.051144 -0.250848
v -6.536574 -1.038921 -0.251396
v -6.560818 -1.024230 -0.251930
v -6.586844 -1.006914 -0.252462
v -6.615079 -0.986816 -0.253003
v -6.645942 -0.963780 -0.253565
v -6.679852 -0.937649 -0.254161
v -6.149494 -0.670602 -0.226501
v -6.128517 -0.693443 -0.226314
v -6.107252 -0.714672 -0.226072
v -6.085700 -0.734218 -0.225773
v -6.063859 -0.752009 -0.225415
v -6.041734 -0.767974 -0.224997
v -6.019320 -0.782042 -0.224517
v -5.996620 -0.794142 -0.223972
v -5.973631 -0.804201 -0.223360
v -5.950358 -0.812149 -0.222680
v -5.926796 -0.817915 -0.221930
v -5.902949 -0.821427 -0.221108
v -5.878814 -0.822613 -0.220211
v -5.847492 -0.820423 -0.218946
v -5.817826 -0.813997 -0.217630
v -5.790017 -0.803547 -0.216276
v -5.764271 -0.789289 -0.214898
v -5.740792 -0.771436 -0.213510
v -5.719787 -0.750202 -0.212125
v -5.701457 -0.725801 -0.210758
v -5.686009 -0.698447 -0.209420
v -5.673648 -0.668355 -0.208128
v -5.664576 -0.635737 -0.206893
v -5.658998 -0.600808 -0.205730
v -5.657120 -0.563783 -0.204653
v -5.661831 -0.511593 -0.203417
v -5.675400 -0.463640 -0.202637
v -5.697155 -0.419539 -0.202277
v -5.726420 -0.378904 -0.202300
v -5.762521 -0.341351 -0.202670
v -5.804788 -0.306493 -0.203350
v -5.852541 -0.273947 -0.204304
v -5.905110 -0.243326 -0.205496
v -5.961820 -0.214247 -0.206889
v -6.021997 -0.186322 -0.208447
v -6.084967 -0.159168 -0.210133
v -6.150055 -0.132399 -0.211911
v -5.112665 -0.510373 -0.182250
v -5.067607 -0.544082 -0.181432
v -5.022648 -0.575309 -0.180549
v -4.977740 -0.603968 -0.179599
v -4.932835 -0.629974 -0.178577
v -4.887883 -0.653241 -0.177479
v -4.842840 -0.673683 -0.176300
v -4.797654 -0.691215 -0.175038
v -4.752278 -0.705751 -0.173686
v -4.706666 -0.717206 -0.172242
v -4.660768 -0.725495 -0.170700
v -4.614536 -0.730530 -0.169058
v -4.567923 -0.732228 -0.167310
v -4.495894 -0.728298 -0.164432
v -4.428954 -0.716536 -0.161536
v -4.367129 -0.696985 -0.158626
v -4.310441 -0.669689 -0.155704
v -4.258916 -0.634689 -0.152771
v -4.212577 -0.592028 -0.149829
v -4.171449 -0.541750 -0.146881
v -4.135554 -0.483897 -0.143930
v -4.104918 -0.418512 -0.140975
v -4.079566 -0.345637 -0.138021
v -4.059519 -0.265316 -0.135069
v -4.044801 -0.177592 -0.132121
v -5.140758 -0.177592 -0.174297
v -5.135503 -0.014358 -0.169663
v -5.119648 0.134382 -0.165015
v -5.093589 0.268685 -0.160366
v -5.057724 0.388609 -0.155730
v -5.012454 0.494210 -0.151121
v -4.958171 0.585546 -0.146552
v -4.895276 0.662674 -0.142038
v -4.824164 0.725651 -0.137591
v -4.745235 0.774533 -0.133227
v -4.658885 0.809379 -0.128958
v -4.565511 0.830244 -0.124798
v -4.465513 0.837187 -0.120761
v -4.360833 0.829426 -0.116944
v -4.262206 0.806602 -0.113768
v -4.170211 0.769398 -0.111238
v -4.085428 0.718499 -0.109357
v -4.008434 0.654590 -0.108129
v -3.939809 0.578357 -0.107558
v -3.880131 0.490482 -0.107647
v -3.829979 0.391652 -0.108400
v -3.789933 0.282551 -0.109821
v -3.760570 0.163863 -0.111913
v -3.742470 0.036274 -0.114680
v -3.736210 -0.099532 -0.118126
v -3.741682 -0.225870 -0.121767
v -3.758236 -0.349156 -0.125751
v -3.785681 -0.467877 -0.130030
v -3.823826 -0.580521 -0.134557
v -3.872480 -0.685575 -0.139281
v -3.931453 -0.781529 -0.144155
v -4.000551 -0.866869 -0.149131
v -4.079586 -0.940083 -0.154161
v -4.168364 -0.999660 -0.159195
v -4.266695 -1.044087 -0.164185
v -4.374389 -1.071852 -0.169083
v -4.491257 -1.081443 -0.173841
v -4.555267 -1.079983 -0.176264
v -4.615766 -1.075585 -0.178473
v -4.673136 -1.068219 -0.180481
v -4.727763 -1.057858 -0.182302
v -4.780033 -1.044472 -0.183950
v -4.830331 -1.028034 -0.185439
v -4.879044 -1.008514 -0.186784
v -4.926556 -0.985884 -0.187998
v -4.973250 -0.960116 -0.189095
v -5.019515 -0.931182 -0.190090
v -5.065735 -0.899051 -0.190997
v -5.112297 -0.863697 -0.191829
v -4.051990 0.064805 -0.125817
v -4.064559 0.135054 -0.124394
v -4.081288 0.199869 -0.123278
v -4.102155 0.259120 -0.122472
v -4.127136 0.312679 -0.121979
v -4.156204 0.360418 -0.121802
v -4.189335 0.402208 -0.121942
v -4.226508 0.437922 -0.122403
v -4.267696 0.467430 -0.123187
v -4.312874 0.490604 -0.124297
v -4.362020 0.507315 -0.125734
v -4.415109 0.517437 -0.127503
v -4.472119 0.520839 -0.129604
v -4.524982 0.517201 -0.131737
v -4.574224 0.506459 -0.133924
v -4.619703 0.488870 -0.136151
v -4.661272 0.464690 -0.138408
v -4.698789 0.434177 -0.140680
v -4.732110 0.397586 -0.142955
v -4.761087 0.355175 -0.145222
v -4.785579 0.307201 -0.147467
v -4.805441 0.253920 -0.149678
v -4.820529 0.195589 -0.151842
v -4.830698 0.132465 -0.153947
v -4.835806 0.064805 -0.155981
v -2.460844 0.800211 -0.044620
v -2.458920 -1.044467 -0.094627
v -2.767591 -1.044467 -0.106505
v -2.768598 -0.078990 -0.080332
v -2.772076 -0.001379 -0.078359
v -2.782067 0.072850 -0.076728
v -2.798146 0.143057 -0.075441
v -2.819894 0.208599 -0.074499
v -2.846885 0.268834 -0.073902
v -2.878700 0.323121 -0.073652
v -2.914916 0.370817 -0.073751
v -2.955109 0.411281 -0.074199
v -2.998859 0.443870 -0.074998
v -3.045743 0.467943 -0.076149
v -3.095340 0.482857 -0.077653
v -3.147226 0.487971 -0.079511
v -3.166399 0.486454 -0.080290
v -3.187328 0.481999 -0.081216
v -3.209748 0.474748 -0.082276
v -3.233393 0.464843 -0.083454
v -3.257999 0.452427 -0.084738
v -3.283300 0.437643 -0.086113
v -3.309034 0.420634 -0.087566
v -3.334933 0.401543 -0.089081
v -3.360734 0.380511 -0.090644
v -3.386172 0.357682 -0.092243
v -3.410981 0.333197 -0.093863
v -3.434900 0.307201 -0.095489
v -3.598236 0.623549 -0.093186
v -3.566398 0.657959 -0.091027
v -3.534929 0.689303 -0.088965
v -3.503771 0.717593 -0.086998
v -3.472862 0.742845 -0.085122
v -3.442143 0.765073 -0.083337
v -3.411554 0.784291 -0.081638
v -3.381033 0.800513 -0.080023
v -3.350521 0.813753 -0.078489
v -3.319959 0.824027 -0.077034
v -3.289284 0.831347 -0.075655
v -3.258438 0.835729 -0.074349
v -3.227358 0.837187 -0.073114
v -3.190865 0.834331 -0.071787
v -3.154209 0.825641 -0.070612
v -3.117378 0.810931 -0.069594
v -3.080360 0.790016 -0.068737
v -3.043142 0.762710 -0.068046
v -3.005713 0.728827 -0.067526
v -2.968061 0.688183 -0.067180
v -2.930172 0.640591 -0.067014
v -2.892035 0.585867 -0.067032
v -2.853637 0.523825 -0.067239
v -2.814968 0.454279 -0.067639
v -2.776011 0.377044 -0.068237
v -2.769074 0.377044 -0.067970
v -2.769516 0.800211 -0.056498
v -0.527123 -1.044467 -0.020285
v -1.338686 -1.044467 -0.051517
v -1.479247 -1.036346 -0.056705
v -1.604761 -1.013046 -0.060903
v -1.715764 -0.976165 -0.064173
v -1.812798 -0.927301 -0.066581
v -1.896405 -0.868053 -0.068190
v -1.967123 -0.800017 -0.069064
v -2.025493 -0.724791 -0.069268
v -2.072055 -0.643973 -0.068866
v -2.107350 -0.559161 -0.067922
v -2.131917 -0.471952 -0.066499
v -2.146297 -0.383945 -0.064663
v -2.151028 -0.296736 -0.062478
v -2.146689 -0.204437 -0.059805
v -2.133651 -0.116745 -0.056923
v -2.112176 -0.033990 -0.053849
v -2.082532 0.043502 -0.050605
v -2.044983 0.115401 -0.047208
v -1.999793 0.181381 -0.043678
v -1.947225 0.241112 -0.040033
v -1.887546 0.294267 -0.036293
v -1.821020 0.340518 -0.032477
v -1.747911 0.379536 -0.028605
v -1.668484 0.410993 -0.024694
v -1.583003 0.434562 -0.020765
v -1.583012 0.442779 -0.020542
v -1.641870 0.474039 -0.021958
v -1.695300 0.508323 -0.023084
v -1.743362 0.545746 -0.023917
v -1.786117 0.586421 -0.024458
v -1.823625 0.630463 -0.024706
v -1.855946 0.677985 -0.024660
v -1.883142 0.729103 -0.024318
v -1.905271 0.783929 -0.023682
v -1.922394 0.842579 -0.022748
v -1.934573 0.905166 -0.021518
v -1.941866 0.971804 -0.019989
v -1.944332 1.042607 -0.018162
v -1.939830 1.130895 -0.015592
v -1.925971 1.218242 -0.012687
v -1.902498 1.303363 -0.009473
v -1.869159 1.384975 -0.005974
v -1.825700 1.461794 -0.002216
v -1.771865 1.532536 0.001776
v -1.707402 1.595917 0.005978
v -1.632056 1.650652 0.010363
v -1.545572 1.695460 0.014908
v -1.447696 1.729055 0.019586
v -1.338174 1.750154 0.024374
v -1.216753 1.757472 0.029245
v -0.530046 1.757472 0.055672
v -0.869554 1.395931 0.032791
v -1.181693 1.395931 0.020779
v -1.255380 1.392253 0.017843
v -1.320632 1.381571 0.015042
v -1.377832 1.364412 0.012375
v -1.427366 1.341304 0.009842
v -1.469620 1.312776 0.007441
v -1.504982 1.279355 0.005173
v -1.533837 1.241568 0.003037
v -1.556570 1.199944 0.001032
v -1.573567 1.155011 -0.000842
v -1.585214 1.107296 -0.002586
v -1.591898 1.057327 -0.004200
v -1.594004 1.005632 -0.005684
v -1.590527 0.933818 -0.007500
v -1.580229 0.868323 -0.008882
v -1.563073 0.809134 -0.009828
v -1.539023 0.756236 -0.010339
v -1.508044 0.709614 -0.010413
v -1.470098 0.669255 -0.010048
v -1.425150 0.635144 -0.009244
v -1.373164 0.607267 -0.008001
v -1.314103 0.585610 -0.006316
v -1.247932 0.570159 -0.004189
v -1.174614 0.560898 -0.001619
v -1.094113 0.557814 0.001395
v -0.868679 0.557814 0.010071
v -0.868302 0.196274 0.000270
v -1.277552 0.196274 -0.015479
v -1.362894 0.192570 -0.018864
v -1.440366 0.181704 -0.022140
v -1.510050 0.164049 -0.025301
v -1.572033 0.139974 -0.028340
v -1.626400 0.109850 -0.031250
v -1.673233 0.074049 -0.034025
v -1.712620 0.032941 -0.036656
v -1.744642 -0.013103 -0.039139
v -1.769386 -0.063712 -0.041465
v -1.786937 -0.118514 -0.043628
v -1.797380 -0.177140 -0.045622
v -1.800798 -0.239218 -0.047438
v -1.798398 -0.291964 -0.048778
v -1.790878 -0.344839 -0.049924
v -1.777603 -0.396943 -0.050828
v -1.757935 -0.447378 -0.051440
v -1.731237 -0.495245 -0.051712
v -1.696872 -0.539646 -0.051595
v -1.654201 -0.579681 -0.051040
v -1.602589 -0.614453 -0.049998
v -1.541398 -0.643062 -0.048420
v -1.469990 -0.664610 -0.046257
v -1.387728 -0.678198 -0.043460
v -1.293976 -0.682927 -0.039981
v -0.867385 -0.682927 -0.023564
v 1.270560 1.182294 0.109349
v 1.850451 0.512622 0.113484
v 1.850494 0.471538 0.112370
v 1.579973 0.471538 0.101960
v 1.580989 -0.502157 0.075564
v 1.577535 -0.583462 0.073224
v 1.567008 -0.660616 0.070724
v 1.549420 -0.733062 0.068081
v 1.524781 -0.800245 0.065308
v 1.493103 -0.861607 0.062423
v 1.454398 -0.916593 0.059441
v 1.408676 -0.964646 0.056377
v 1.355950 -1.005209 0.053247
v 1.296232 -1.037727 0.050066
v 1.229532 -1.061643 0.046850
v 1.155862 -1.076400 0.043614
v 1.075233 -1.081443 0.040374
v 1.048787 -1.080352 0.039386
v 1.020026 -1.077163 0.038366
v 0.989384 -1.072006 0.037327
v 0.957296 -1.065009 0.036282
v 0.924194 -1.056300 0.035244
v 0.890512 -1.046008 0.034228
v 0.856686 -1.034261 0.033245
v 0.823146 -1.021186 0.032309
v 0.790327 -1.006914 0.031434
v 0.758664 -0.991571 0.030632
v 0.728588 -0.975288 0.029916
v 0.700537 -0.958191 0.029301
v 0.700181 -0.617192 0.038545
v 0.731205 -0.638847 0.039151
v 0.761817 -0.658619 0.039792
v 0.792042 -0.676507 0.040470
v 0.821903 -0.692513 0.041184
v 0.851426 -0.706636 0.041937
v 0.880634 -0.718875 0.042729
v 0.909550 -0.729232 0.043560
v 0.938200 -0.737706 0.044433
v 0.966608 -0.744296 0.045347
v 0.994796 -0.749004 0.046304
v 1.022789 -0.751828 0.047305
v 1.050613 -0.752770 0.048350
v 1.073921 -0.751431 0.049283
v 1.098359 -0.747197 0.050339
v 1.123323 -0.739738 0.051502
v 1.148212 -0.728728 0.052759
v 1.172422 -0.713837 0.054095
v 1.195350 -0.694739 0.055495
v 1.216396 -0.671103 0.056947
v 1.234955 -0.642603 0.058435
v 1.250426 -0.608911 0.059945
v 1.262208 -0.569698 0.061463
v 1.269695 -0.524636 0.062974
v 1.272287 -0.473398 0.064465
v 1.271301 0.471538 0.090081
v 0.778815 0.471538 0.071129
v 0.778472 0.800211 0.080039
v 1.270959 0.800211 0.098991
v 2.817745 0.837187 0.159520
v 2.931555 0.828796 0.163672
v 3.040035 0.804300 0.167182
v 3.142316 0.764712 0.170043
v 3.237531 0.711043 0.172250
v 3.324812 0.644308 0.173797
v 3.403291 0.565518 0.174678
v 3.472098 0.475687 0.174887
v 3.530367 0.375827 0.174418
v 3.577230 0.266952 0.173266
v 3.611817 0.150074 0.171424
v 3.633262 0.026205 0.168886
v 3.640694 -0.103640 0.165647
v 3.633806 -0.241981 0.161626
v 3.613326 -0.372932 0.157283
v 3.579976 -0.495609 0.152669
v 3.534478 -0.609128 0.147836
v 3.477553 -0.712604 0.142836
v 3.409923 -0.805152 0.137721
v 3.332310 -0.885889 0.132542
v 3.245434 -0.953930 0.127352
v 3.150019 -1.008390 0.122202
v 3.046784 -1.048386 0.117143
v 2.936454 -1.073031 0.112228
v 2.819747 -1.081443 0.107508
v 2.698242 -1.073345 0.103052
v 2.583875 -1.049527 0.099298
v 2.477295 -1.010701 0.096250
v 2.379154 -0.957582 0.093916
v 2.290103 -0.890882 0.092300
v 2.210793 -0.811315 0.091408
v 2.141874 -0.719593 0.091246
v 2.083999 -0.616431 0.091819
v 2.037818 -0.502542 0.093134
v 2.003982 -0.378638 0.095196
v 1.983142 -0.245433 0.098010
v 1.975950 -0.103640 0.101583
v 1.983054 0.029657 0.105475
v 2.004147 0.155779 0.109711
v 2.038471 0.273885 0.114238
v 2.085268 0.383131 0.119005
v 2.143781 0.482677 0.123959
v 2.213251 0.571681 0.129049
v 2.292921 0.649301 0.134222
v 2.382032 0.714695 0.139427
v 2.479829 0.767023 0.144611
v 2.585551 0.805442 0.149723
v 2.698442 0.829111 0.154710
v 2.821556 0.508513 0.150744
v 2.746279 0.503214 0.147703
v 2.675094 0.487686 0.144542
v 2.608472 0.462487 0.141294
v 2.546880 0.428171 0.137992
v 2.490789 0.385297 0.134669
v 2.440668 0.334420 0.131359
v 2.396985 0.276096 0.128095
v 2.360209 0.210882 0.124909
v 2.330810 0.139334 0.121835
v 2.309257 0.062009 0.118907
v 2.296018 -0.020537 0.116156
v 2.291562 -0.107749 0.113617
v 2.295878 -0.204156 0.111166
v 2.308423 -0.293902 0.109212
v 2.328910 -0.376657 0.107754
v 2.357047 -0.452095 0.106788
v 2.392547 -0.519886 0.106314
v 2.435118 -0.579703 0.106328
v 2.484474 -0.631217 0.106829
v 2.540323 -0.674101 0.107814
v 2.602377 -0.708027 0.109281
v 2.670346 -0.732665 0.111228
v 2.743940 -0.747689 0.113652
v 2.822872 -0.752770 0.116552
v 2.895418 -0.747451 0.119488
v 2.963666 -0.731790 0.122539
v 3.027232 -0.706229 0.125680
v 3.085730 -0.671210 0.128882
v 3.138774 -0.627176 0.132118
v 3.185982 -0.574567 0.135363
v 3.226967 -0.513828 0.138590
v 3.261346 -0.445400 0.141770
v 3.288732 -0.369724 0.144879
v 3.308740 -0.287245 0.147888
v 3.320987 -0.198402 0.150771
v 3.325087 -0.103640 0.153502
v 3.320666 -0.017373 0.155674
v 3.307892 0.064386 0.157402
v 3.287223 0.141067 0.158688
v 3.259119 0.212099 0.159535
v 3.224036 0.276911 0.159944
v 3.182433 0.334933 0.159919
v 3.134768 0.385594 0.159460
v 3.081500 0.428323 0.158570
v 3.023086 0.462551 0.157251
v 2.959986 0.487705 0.155506
v 2.892657 0.503217 0.153336
v 4.984422 1.757472 0.267885
v 5.293093 1.757472 0.279763
v 5.295909 -0.941757 0.206591
v 5.256385 -0.962629 0.204503
v 5.214271 -0.982061 0.202355
v 5.169868 -0.999981 0.200160
v 5.123475 -1.016317 0.197931
v 5.075395 -1.030998 0.195682
v 5.025928 -1.043954 0.193427
v 4.975375 -1.055112 0.191178
v 4.924039 -1.064401 0.188950
v 4.872218 -1.071750 0.186757
v 4.820214 -1.077087 0.184611
v 4.768328 -1.080342 0.182525
v 4.716862 -1.081443 0.180515
v 4.591191 -1.073725 0.175888
v 4.474537 -1.050858 0.172020
v 4.367260 -1.013269 0.168912
v 4.269722 -0.961386 0.166567
v 4.182286 -0.895637 0.164987
v 4.105312 -0.816450 0.164175
v 4.039164 -0.724254 0.164132
v 3.984201 -0.619475 0.164862
v 3.940787 -0.502542 0.166366
v 3.909281 -0.373883 0.168646
v 3.890049 -0.233926 0.171706
v 3.883448 -0.083098 0.175547
v 3.889134 0.046343 0.179280
v 3.906050 0.169094 0.183263
v 3.933571 0.284284 0.187450
v 3.971072 0.391043 0.191791
v 4.017928 0.488502 0.196240
v 4.073513 0.575789 0.200749
v 4.137202 0.652035 0.205270
v 4.208370 0.716369 0.209755
v 4.286391 0.767921 0.214157
v 4.370641 0.805822 0.218428
v 4.460493 0.829201 0.222521
v 4.555322 0.837187 0.226387
v 4.593988 0.836069 0.227845
v 4.631981 0.832698 0.229215
v 4.669351 0.827044 0.230500
v 4.706145 0.819079 0.231700
v 4.742411 0.808775 0.232815
v 4.778199 0.796103 0.233849
v 4.813555 0.781034 0.234800
v 4.848528 0.763539 0.235671
v 4.883167 0.743592 0.236463
v 4.917520 0.721162 0.237176
v 4.951633 0.696221 0.237811
v 4.985558 0.668742 0.238371
v 4.985922 0.319526 0.228904
v 4.953692 0.352589 0.228561
v 4.922802 0.382028 0.228172
v 4.893000 0.407986 0.227730
v 4.864033 0.430606 0.227229
v 4.835647 0.450031 0.226664
v 4.807589 0.466403 0.226029
v 4.779606 0.479864 0.225317
v 4.751446 0.490558 0.224524
v 4.722855 0.498628 0.223643
v 4.693580 0.504215 0.222668
v 4.663368 0.507463 0.221593
v 4.631966 0.508513 0.220413
v 4.568799 0.503276 0.217840
v 4.509556 0.487838 0.215141
v 4.454539 0.462615 0.212339
v 4.404047 0.428019 0.209457
v 4.358381 0.384465 0.206517
v 4.317842 0.332365 0.203543
v 4.282732 0.272135 0.200556
v 4.253349 0.204187 0.197581
v 4.229995 0.128935 0.194639
v 4.212971 0.046793 0.191754
v 4.202575 -0.041826 0.188948
v 4.199112 -0.136508 0.186244
v 4.203251 -0.221669 0.184092
v 4.215213 -0.302195 0.182366
v 4.234588 -0.377556 0.181065
v 4.260964 -0.447226 0.180189
v 4.293935 -0.510675 0.179735
v 4.333087 -0.567378 0.179703
v 4.378013 -0.616805 0.180089
v 4.428301 -0.658428 0.180895
v 4.483542 -0.691721 0.182117
v 4.543326 -0.716155 0.183754
v 4.607243 -0.731203 0.185805
v 4.674884 -0.736336 0.188269
v 4.698246 -0.735832 0.189182
v 4.723052 -0.734358 0.190176
v 4.749012 -0.731971 0.191240
v 4.775839 -0.728728 0.192360
v 4.803244 -0.724686 0.193525
v 4.830936 -0.719903 0.194720
v 4.858628 -0.714434 0.195934
v 4.886030 -0.708338 0.197154
v 4.912853 -0.701671 0.198368
v 4.938809 -0.694491 0.199561
v 4.963609 -0.686855 0.200723
v 4.986963 -0.678818 0.201840
v 6.466311 0.837187 0.299928
v 6.580121 0.828796 0.304080
v 6.688600 0.804300 0.307589
v 6.790882 0.764712 0.310450
v 6.886097 0.711043 0.312658
v 6.973378 0.644308 0.314205
v 7.051856 0.565518 0.315086
v 7.120664 0.475687 0.315295
v 7.178933 0.375827 0.314826
v 7.225795 0.266952 0.313674
v 7.260383 0.150074 0.311831
v 7.281827 0.026205 0.309294
v 7.289260 -0.103640 0.306055
v 7.282372 -0.241981 0.302034
v 7.261892 -0.372932 0.297691
v 7.228541 -0.495609 0.293077
v 7.183043 -0.609128 0.288244
v 7.126119 -0.712604 0.283244
v 7.058489 -0.805152 0.278129
v 6.980875 -0.885889 0.272950
v 6.894000 -0.953930 0.267760
v 6.798584 -1.008390 0.262609
v 6.695351 -1.048386 0.257551
v 6.585019 -1.073031 0.252636
v 6.468313 -1.081443 0.247916
v 6.346808 -1.073345 0.243460
v 6.232441 -1.049527 0.239705
v 6.125861 -1.010701 0.236658
v 6.027719 -0.957582 0.234323
v 5.938669 -0.890882 0.232707
v 5.859359 -0.811315 0.231815
v 5.790440 -0.719593 0.231653
v 5.732565 -0.616431 0.232227
v 5.686384 -0.502542 0.233542
v 5.652548 -0.378638 0.235603
v 5.631708 -0.245433 0.238418
v 5.624516 -0.103640 0.241990
v 5.631620 0.029657 0.245883
v 5.652713 0.155779 0.250118
v 5.687037 0.273885 0.254646
v 5.733835 0.383131 0.259413
v 5.792347 0.482677 0.264367
v 5.861818 0.571681 0.269457
v 5.941487 0.649301 0.274630
v 6.030600 0.714695 0.279835
v 6.128396 0.767023 0.285019
v 6.234118 0.805442 0.290130
v 6.347010 0.829111 0.295117
v 6.470122 0.508513 0.291151
v 6.394845 0.503214 0.288110
v 6.323660 0.487686 0.284949
v 6.257038 0.462487 0.281701
v 6.195446 0.428171 0.278400
v 6.139355 0.385297 0.275077
v 6.089233 0.334420 0.271767
v 6.045550 0.276096 0.268502
v 6.008775 0.210882 0.265317
v 5.979375 0.139334 0.262243
v 5.957822 0.062009 0.259314
v 5.944583 -0.020537 0.256564
v 5.940128 -0.107749 0.254025
v 5.944443 -0.204156 0.251573
v 5.956988 -0.293902 0.249620
v 5.977474 -0.376657 0.248161
v 6.005612 -0.452095 0.247196
v 6.041111 -0.519886 0.246722
v 6.083683 -0.579703 0.246736
v 6.133039 -0.631217 0.247237
v 6.188889 -0.674101 0.248222
v 6.250942 -0.708027 0.249689
v 6.318912 -0.732665 0.251635
v 6.392506 -0.747689 0.254060
v 6.471438 -0.752770 0.256959
v 6.543983 -0.747451 0.259896
v 6.612233 -0.731790 0.262947
v 6.675797 -0.706229 0.266087
v 6.734295 -0.671210 0.269289
v 6.787340 -0.627176 0.272526
v 6.834548 -0.574567 0.275771
v 6.875533 -0.513828 0.278997
v 6.909911 -0.445400 0.282178
v 6.937296 -0.369724 0.285286
v 6.957305 -0.287245 0.288296
v 6.969552 -0.198402 0.291179
v 6.973652 -0.103640 0.293909
v 6.969231 -0.017373 0.296081
v 6.956457 0.064386 0.297809
v 6.935789 0.141067 0.299096
v 6.907684 0.212099 0.299942
v 6.872601 0.276911 0.300352
v 6.830998 0.334933 0.300326
v 6.783333 0.385594 0.299867
v 6.730065 0.428323 0.298977
v 6.671652 0.462551 0.297659
v 6.608552 0.487705 0.295913
v 6.541222 0.503217 0.293743
v 9.239925 1.757472 0.431649
v 9.242848 -1.044467 0.355692
v 8.902963 -1.044467 0.342612
v 8.901694 0.171623 0.375579
v 8.759497 0.171623 0.370107
v 8.716680 0.169997 0.368415
v 8.674469 0.164091 0.366630
v 8.632169 0.152365 0.364684
v 8.589082 0.133278 0.362508
v 8.544508 0.105290 0.360033
v 8.497756 0.066859 0.357190
v 8.448125 0.016445 0.353911
v 8.394920 -0.047492 0.350128
v 8.337444 -0.126493 0.345772
v 8.275000 -0.222100 0.340773
v 8.206890 -0.335851 0.335064
v 8.132419 -0.469289 0.328575
v 7.820879 -1.044467 0.300971
v 7.415098 -1.044467 0.285355
v 7.453700 -0.981144 0.288560
v 7.488480 -0.924068 0.291448
v 7.519940 -0.872299 0.294064
v 7.548587 -0.824895 0.296453
v 7.574926 -0.780915 0.298661
v 7.599462 -0.739418 0.300732
v 7.622698 -0.699460 0.302711
v 7.645141 -0.660102 0.304643
v 7.667293 -0.620402 0.306573
v 7.689662 -0.579418 0.308547
v 7.712749 -0.536208 0.310608
v 7.737064 -0.489831 0.312803
v 7.781126 -0.404411 0.316818
v 7.823627 -0.322756 0.320670
v 7.865024 -0.244867 0.324378
v 7.905774 -0.170744 0.327958
v 7.946336 -0.100388 0.331429
v 7.987166 -0.033797 0.334808
v 8.028724 0.029027 0.338113
v 8.071465 0.088086 0.341361
v 8.115848 0.143378 0.344571
v 8.162329 0.194905 0.347758
v 8.211369 0.242665 0.350942
v 8.263422 0.286659 0.354140
v 8.202424 0.318989 0.352670
v 8.146152 0.356312 0.351518
v 8.094718 0.398485 0.350683
v 8.048226 0.445366 0.350167
v 8.006789 0.496811 0.349969
v 7.970514 0.552679 0.350090
v 7.939508 0.612826 0.350529
v 7.913881 0.677111 0.351288
v 7.893741 0.745389 0.352367
v 7.879197 0.817520 0.353766
v 7.870357 0.893359 0.355484
v 7.867330 0.972764 0.357524
v 7.873353 1.090044 0.360940
v 7.891404 1.199222 0.364598
v 7.921072 1.299897 0.368473
v 7.961947 1.391671 0.372538
v 8.013623 1.474143 0.376765
v 8.075690 1.546915 0.381130
v 8.147739 1.609588 0.385604
v 8.229362 1.661761 0.390161
v 8.320146 1.703035 0.394775
v 8.419685 1.733012 0.399420
v 8.527571 1.751290 0.404068
v 8.643392 1.757472 0.408693
v 8.900399 1.412365 0.409214
v 8.681902 1.412365 0.400806
v 8.603613 1.409060 0.397703
v 8.533328 1.399279 0.394733
v 8.470805 1.383221 0.391891
v 8.415802 1.361086 0.389173
v 8.368078 1.333073 0.386576
v 8.327394 1.299383 0.384096
v 8.293508 1.260215 0.381728
v 8.266178 1.215769 0.379470
v 8.245164 1.166245 0.377317
v 8.230223 1.111842 0.375265
v 8.221117 1.052759 0.373310
v 8.217602 0.989198 0.371449
v 8.219124 0.931031 0.369929
v 8.225654 0.874105 0.368635
v 8.237721 0.819148 0.367607
v 8.255857 0.766887 0.366886
v 8.280586 0.718050 0.366512
v 8.312441 0.673364 0.366525
v 8.351949 0.633556 0.366964
v 8.399641 0.599355 0.367871
v 8.456045 0.571488 0.369285
v 8.521689 0.550682 0.371246
v 8.597104 0.537665 0.373795
v 8.682819 0.533164 0.376972
v 8.901317 0.533164 0.385380
vn 0.0384 0.0271 -0.9989
vn -0.0000 1.0000 -0.0000
vt 0.759259 0.000000
vt 0.722222 0.000000
vt 0.740741 0.000000
vt 0.703704 0.000000
vt 0.777778 0.000000
vt 0.685185 0.000000
vt 0.796296 0.000000
vt 0.666667 0.000000
vt 0.648148 0.000000
vt 0.814815 0.000000
vt 0.629630 0.000000
vt 0.018519 0.000000
vt 1.000000 0.000000
vt 0.000000 0.000000
vt 0.981481 0.000000
vt 0.833333 0.000000
vt 0.611111 0.000000
vt 0.592593 0.000000
vt 0.851852 0.000000
vt 0.574074 0.000000
vt 0.870370 0.000000
vt 0.555556 0.000000
vt 0.537037 0.000000
vt 0.888889 0.000000
vt 0.518519 0.000000
vt 0.907407 0.000000
vt 0.333333 0.000000
vt 0.351852 0.000000
vt 0.370370 0.000000
vt 0.388889 0.000000
vt 0.407407 0.000000
vt 0.425926 0.000000
vt 0.444444 0.000000
vt 0.462963 0.000000
vt 0.481481 0.000000
vt 0.500000 0.000000
vt 0.925926 0.000000
vt 0.296296 0.000000
vt 0.314815 0.000000
vt 0.944444 0.000000
vt 0.259259 0.000000
vt 0.277778 0.000000
vt 0.240741 0.000000
vt 0.222222 0.000000
vt 0.962963 0.000000
vt 0.203704 0.000000
vt 0.185185 0.000000
vt 0.111111 0.000000
vt 0.129630 0.000000
vt 0.148148 0.000000
vt 0.166667 0.000000
vt 0.092593 0.000000
vt 0.074074 0.000000
vt 0.055556 0.000000
vt 0.037037 0.000000
vt 0.387755 0.000000
vt 0.367347 0.000000
vt 0.377551 0.000000
vt 0.357143 0.000000
vt 0.397959 0.000000
vt 0.346939 0.000000
vt 0.408163 0.000000
vt 0.336735 0.000000
vt 0.418367 0.000000
vt 0.326531 0.000000
vt 0.428571 0.000000
vt 0.316327 0.000000
vt 0.438776 0.000000
vt 0.306122 0.000000
vt 0.448980 0.000000
vt 0.877551 0.000000
vt 0.867347 0.000000
vt 0.887755 0.000000
vt 0.857143 0.000000
vt 0.897959 0.000000
vt 0.846939 0.000000
vt 0.908163 0.000000
vt 0.295918 0.000000
vt 0.836735 0.000000
vt 0.459184 0.000000
vt 0.918367 0.000000
vt 0.826531 0.000000
vt 0.928571 0.000000
vt 0.816327 0.000000
vt 0.938776 0.000000
vt 0.806122 0.000000
vt 0.948980 0.000000
vt 0.469388 0.000000
vt 0.285714 0.000000
vt 0.795918 0.000000
vt 0.959184 0.000000
vt 0.785714 0.000000
vt 0.969388 0.000000
vt 0.479592 0.000000
vt 0.275510 0.000000
vt 0.775510 0.000000
vt 0.979592 0.000000
vt 0.765306 0.000000
vt 0.989796 0.000000
vt 0.489796 0.000000
vt 0.755102 0.000000
vt 0.265306 0.000000
vt 0.255102 0.000000
vt 0.510204 0.000000
vt 0.244898 0.000000
vt 0.234694 0.000000
vt 0.520408 0.000000
vt 0.224490 0.000000
vt 0.214286 0.000000
vt 0.530612 0.000000
vt 0.204082 0.000000
vt 0.540816 0.000000
vt 0.193878 0.000000
vt 0.010204 0.000000
vt 0.744898 0.000000
vt 0.183673 0.000000
vt 0.020408 0.000000
vt 0.030612 0.000000
vt 0.551020 0.000000
vt 0.173469 0.000000
vt 0.040816 0.000000
vt 0.051020 0.000000
vt 0.163265 0.000000
vt 0.061224 0.000000
vt 0.153061 0.000000
vt 0.071429 0.000000
vt 0.561224 0.000000
vt 0.081633 0.000000
vt 0.142857 0.000000
vt 0.091837 0.000000
vt 0.132653 0.000000
vt 0.102041 0.000000
vt 0.112245 0.000000
vt 0.122449 0.000000
vt 0.571429 0.000000
vt 0.734694 0.000000
vt 0.581633 0.000000
vt 0.724490 0.000000
vt 0.714286 0.000000
vt 0.591837 0.000000
vt 0.704082 0.000000
vt 0.693878 0.000000
vt 0.602041 0.000000
vt 0.683673 0.000000
vt 0.673469 0.000000
vt 0.612245 0.000000
vt 0.663265 0.000000
vt 0.653061 0.000000
vt 0.642857 0.000000
vt 0.622449 0.000000
vt 0.632653 0.000000
vt 0.219653 0.000000
vt 0.208092 0.000000
vt 0.213873 0.000000
vt 0.225434 0.000000
vt 0.202312 0.000000
vt 0.231214 0.000000
vt 0.236994 0.000000
vt 0.196532 0.000000
vt 0.242775 0.000000
vt 0.190751 0.000000
vt 0.248555 0.000000
vt 0.254335 0.000000
vt 0.184971 0.000000
vt 0.260116 0.000000
vt 0.179191 0.000000
vt 0.265896 0.000000
vt 0.271676 0.000000
vt 0.173410 0.000000
vt 0.277457 0.000000
vt 0.167630 0.000000
vt 0.283237 0.000000
vt 0.289017 0.000000
vt 0.294798 0.000000
vt 0.300578 0.000000
vt 0.306358 0.000000
vt 0.312139 0.000000
vt 0.317919 0.000000
vt 0.323699 0.000000
vt 0.329480 0.000000
vt 0.335260 0.000000
vt 0.341040 0.000000
vt 0.346821 0.000000
vt 0.352601 0.000000
vt 0.358382 0.000000
vt 0.161850 0.000000
vt 0.364162 0.000000
vt 0.156069 0.000000
vt 0.369942 0.000000
vt 0.375723 0.000000
vt 0.381503 0.000000
vt 0.387283 0.000000
vt 0.393064 0.000000
vt 0.150289 0.000000
vt 0.398844 0.000000
vt 0.404624 0.000000
vt 0.410405 0.000000
vt 0.144509 0.000000
vt 0.416185 0.000000
vt 0.421965 0.000000
vt 0.138728 0.000000
vt 0.427746 0.000000
vt 0.433526 0.000000
vt 0.439306 0.000000
vt 0.445087 0.000000
vt 0.450867 0.000000
vt 0.456647 0.000000
vt 0.462428 0.000000
vt 0.994220 0.000000
vt 0.791907 0.000000
vt 0.988439 0.000000
vt 0.468208 0.000000
vt 0.982659 0.000000
vt 0.473988 0.000000
vt 0.976879 0.000000
vt 0.479769 0.000000
vt 0.971098 0.000000
vt 0.965318 0.000000
vt 0.485549 0.000000
vt 0.959538 0.000000
vt 0.491329 0.000000
vt 0.953757 0.000000
vt 0.947977 0.000000
vt 0.497110 0.000000
vt 0.942197 0.000000
vt 0.936416 0.000000
vt 0.502890 0.000000
vt 0.930636 0.000000
vt 0.508671 0.000000
vt 0.924855 0.000000
vt 0.919075 0.000000
vt 0.514451 0.000000
vt 0.913295 0.000000
vt 0.907514 0.000000
vt 0.797688 0.000000
vt 0.520231 0.000000
vt 0.803468 0.000000
vt 0.901734 0.000000
vt 0.809249 0.000000
vt 0.005780 0.000000
vt 0.786127 0.000000
vt 0.132948 0.000000
vt 0.895954 0.000000
vt 0.011561 0.000000
vt 0.815029 0.000000
vt 0.127168 0.000000
vt 0.017341 0.000000
vt 0.526012 0.000000
vt 0.890173 0.000000
vt 0.121387 0.000000
vt 0.820809 0.000000
vt 0.023121 0.000000
vt 0.115607 0.000000
vt 0.826590 0.000000
vt 0.028902 0.000000
vt 0.884393 0.000000
vt 0.109827 0.000000
vt 0.034682 0.000000
vt 0.832370 0.000000
vt 0.104046 0.000000
vt 0.040462 0.000000
vt 0.878613 0.000000
vt 0.098266 0.000000
vt 0.838150 0.000000
vt 0.046243 0.000000
vt 0.092486 0.000000
vt 0.531792 0.000000
vt 0.052023 0.000000
vt 0.872832 0.000000
vt 0.843931 0.000000
vt 0.086705 0.000000
vt 0.057803 0.000000
vt 0.080925 0.000000
vt 0.063584 0.000000
vt 0.849711 0.000000
vt 0.075145 0.000000
vt 0.069364 0.000000
vt 0.867052 0.000000
vt 0.855491 0.000000
vt 0.861272 0.000000
vt 0.647399 0.000000
vt 0.537572 0.000000
vt 0.641618 0.000000
vt 0.653179 0.000000
vt 0.543353 0.000000
vt 0.635838 0.000000
vt 0.658960 0.000000
vt 0.780347 0.000000
vt 0.549133 0.000000
vt 0.630058 0.000000
vt 0.664740 0.000000
vt 0.774566 0.000000
vt 0.624277 0.000000
vt 0.670520 0.000000
vt 0.554913 0.000000
vt 0.768786 0.000000
vt 0.618497 0.000000
vt 0.676301 0.000000
vt 0.763006 0.000000
vt 0.560694 0.000000
vt 0.612717 0.000000
vt 0.682081 0.000000
vt 0.757225 0.000000
vt 0.606936 0.000000
vt 0.687861 0.000000
vt 0.751445 0.000000
vt 0.566474 0.000000
vt 0.601156 0.000000
vt 0.693642 0.000000
vt 0.745665 0.000000
vt 0.595376 0.000000
vt 0.739884 0.000000
vt 0.699422 0.000000
vt 0.572254 0.000000
vt 0.734104 0.000000
vt 0.589595 0.000000
vt 0.705202 0.000000
vt 0.728324 0.000000
vt 0.583815 0.000000
vt 0.710983 0.000000
vt 0.578035 0.000000
vt 0.722543 0.000000
vt 0.716763 0.000000
vt 0.495238 0.000000
vt 0.485714 0.000000
vt 0.476190 0.000000
vt 0.466667 0.000000
vt 0.457143 0.000000
vt 0.447619 0.000000
vt 0.438095 0.000000
vt 0.419048 0.000000
vt 0.409524 0.000000
vt 0.504762 0.000000
vt 0.400000 0.000000
vt 0.742857 0.000000
vt 0.514286 0.000000
vt 0.523810 0.000000
vt 0.390476 0.000000
vt 0.533333 0.000000
vt 0.542857 0.000000
vt 0.552381 0.000000
vt 0.561905 0.000000
vt 0.380952 0.000000
vt 0.580952 0.000000
vt 0.371429 0.000000
vt 0.590476 0.000000
vt 0.600000 0.000000
vt 0.361905 0.000000
vt 0.609524 0.000000
vt 0.619048 0.000000
vt 0.352381 0.000000
vt 0.628571 0.000000
vt 0.342857 0.000000
vt 0.638095 0.000000
vt 0.647619 0.000000
vt 0.323810 0.000000
vt 0.657143 0.000000
vt 0.314286 0.000000
vt 0.304762 0.000000
vt 0.676190 0.000000
vt 0.295238 0.000000
vt 0.685714 0.000000
vt 0.695238 0.000000
vt 0.704762 0.000000
vt 0.276190 0.000000
vt 0.723810 0.000000
vt 0.733333 0.000000
vt 0.752381 0.000000
vt 0.266667 0.000000
vt 0.257143 0.000000
vt 0.247619 0.000000
vt 0.238095 0.000000
vt 0.228571 0.000000
vt 0.219048 0.000000
vt 0.209524 0.000000
vt 0.200000 0.000000
vt 0.190476 0.000000
vt 0.761905 0.000000
vt 0.180952 0.000000
vt 0.771429 0.000000
vt 0.780952 0.000000
vt 0.790476 0.000000
vt 0.171429 0.000000
vt 0.800000 0.000000
vt 0.809524 0.000000
vt 0.161905 0.000000
vt 0.819048 0.000000
vt 0.828571 0.000000
vt 0.152381 0.000000
vt 0.838095 0.000000
vt 0.847619 0.000000
vt 0.133333 0.000000
vt 0.866667 0.000000
vt 0.876190 0.000000
vt 0.123810 0.000000
vt 0.885714 0.000000
vt 0.895238 0.000000
vt 0.114286 0.000000
vt 0.904762 0.000000
vt 0.104762 0.000000
vt 0.914286 0.000000
vt 0.923810 0.000000
vt 0.095238 0.000000
vt 0.933333 0.000000
vt 0.942857 0.000000
vt 0.085714 0.000000
vt 0.952381 0.000000
vt 0.961905 0.000000
vt 0.971429 0.000000
vt 0.076190 0.000000
vt 0.980952 0.000000
vt 0.990476 0.000000
vt 0.066667 0.000000
vt 0.057143 0.000000
vt 0.047619 0.000000
vt 0.038095 0.000000
vt 0.028571 0.000000
vt 0.019048 0.000000
vt 0.009524 0.000000
vt 0.017544 0.000000
vt 0.982456 0.000000
vt 0.964912 0.000000
vt 0.035088 0.000000
vt 0.052632 0.000000
vt 0.070175 0.000000
vt 0.947368 0.000000
vt 0.929825 0.000000
vt 0.912281 0.000000
vt 0.087719 0.000000
vt 0.894737 0.000000
vt 0.877193 0.000000
vt 0.105263 0.000000
vt 0.859649 0.000000
vt 0.526316 0.000000
vt 0.491228 0.000000
vt 0.508772 0.000000
vt 0.543860 0.000000
vt 0.842105 0.000000
vt 0.561404 0.000000
vt 0.122807 0.000000
vt 0.824561 0.000000
vt 0.578947 0.000000
vt 0.596491 0.000000
vt 0.807018 0.000000
vt 0.614035 0.000000
vt 0.789474 0.000000
vt 0.631579 0.000000
vt 0.771930 0.000000
vt 0.649123 0.000000
vt 0.140351 0.000000
vt 0.754386 0.000000
vt 0.684211 0.000000
vt 0.736842 0.000000
vt 0.701754 0.000000
vt 0.719298 0.000000
vt 0.157895 0.000000
vt 0.175439 0.000000
vt 0.192982 0.000000
vt 0.473684 0.000000
vt 0.210526 0.000000
vt 0.456140 0.000000
vt 0.438596 0.000000
vt 0.228070 0.000000
vt 0.421053 0.000000
vt 0.403509 0.000000
vt 0.385965 0.000000
vt 0.245614 0.000000
vt 0.368421 0.000000
vt 0.350877 0.000000
vt 0.263158 0.000000
vt 0.315789 0.000000
vt 0.280702 0.000000
vt 0.298246 0.000000
vt 0.010526 0.000000
vt 0.494737 0.000000
vt 0.484211 0.000000
vt 0.021053 0.000000
vt 0.031579 0.000000
vt 0.463158 0.000000
vt 0.042105 0.000000
vt 0.452632 0.000000
vt 0.442105 0.000000
vt 0.063158 0.000000
vt 0.431579 0.000000
vt 0.073684 0.000000
vt 0.505263 0.000000
vt 0.515789 0.000000
vt 0.989474 0.000000
vt 0.978947 0.000000
vt 0.536842 0.000000
vt 0.084211 0.000000
vt 0.968421 0.000000
vt 0.547368 0.000000
vt 0.957895 0.000000
vt 0.557895 0.000000
vt 0.568421 0.000000
vt 0.410526 0.000000
vt 0.094737 0.000000
vt 0.936842 0.000000
vt 0.926316 0.000000
vt 0.589474 0.000000
vt 0.915789 0.000000
vt 0.389474 0.000000
vt 0.115789 0.000000
vt 0.905263 0.000000
vt 0.610526 0.000000
vt 0.621053 0.000000
vt 0.378947 0.000000
vt 0.126316 0.000000
vt 0.884211 0.000000
vt 0.136842 0.000000
vt 0.873684 0.000000
vt 0.642105 0.000000
vt 0.863158 0.000000
vt 0.652632 0.000000
vt 0.147368 0.000000
vt 0.357895 0.000000
vt 0.852632 0.000000
vt 0.663158 0.000000
vt 0.673684 0.000000
vt 0.347368 0.000000
vt 0.831579 0.000000
vt 0.168421 0.000000
vt 0.336842 0.000000
vt 0.821053 0.000000
vt 0.694737 0.000000
vt 0.810526 0.000000
vt 0.705263 0.000000
vt 0.178947 0.000000
vt 0.326316 0.000000
vt 0.715789 0.000000
vt 0.726316 0.000000
vt 0.778947 0.000000
vt 0.189474 0.000000
vt 0.768421 0.000000
vt 0.747368 0.000000
vt 0.757895 0.000000
vt 0.305263 0.000000
vt 0.294737 0.000000
vt 0.221053 0.000000
vt 0.284211 0.000000
vt 0.231579 0.000000
vt 0.273684 0.000000
vt 0.242105 0.000000
vt 0.252632 0.000000
vt 0.020202 0.000000
vt 0.010101 0.000000
vt 0.505050 0.000000
vt 0.393939 0.000000
vt 0.373737 0.000000
vt 0.383838 0.000000
vt 0.404040 0.000000
vt 0.414141 0.000000
vt 0.363636 0.000000
vt 0.424242 0.000000
vt 0.434343 0.000000
vt 0.353535 0.000000
vt 0.454545 0.000000
vt 0.464646 0.000000
vt 0.343434 0.000000
vt 0.474747 0.000000
vt 0.484848 0.000000
vt 0.494949 0.000000
vt 0.515152 0.000000
vt 0.525253 0.000000
vt 0.535354 0.000000
vt 0.545455 0.000000
vt 0.565657 0.000000
vt 0.575758 0.000000
vt 0.585859 0.000000
vt 0.595960 0.000000
vt 0.606061 0.000000
vt 0.616162 0.000000
vt 0.323232 0.000000
vt 0.626263 0.000000
vt 0.636364 0.000000
vt 0.313131 0.000000
vt 0.646465 0.000000
vt 0.656566 0.000000
vt 0.303030 0.000000
vt 0.676768 0.000000
vt 0.686869 0.000000
vt 0.292929 0.000000
vt 0.696970 0.000000
vt 0.707071 0.000000
vt 0.282828 0.000000
vt 0.717172 0.000000
vt 0.727273 0.000000
vt 0.272727 0.000000
vt 0.737374 0.000000
vt 0.747475 0.000000
vt 0.262626 0.000000
vt 0.757576 0.000000
vt 0.252525 0.000000
vt 0.767677 0.000000
vt 0.242424 0.000000
vt 0.787879 0.000000
vt 0.232323 0.000000
vt 0.797980 0.000000
vt 0.808081 0.000000
vt 0.818182 0.000000
vt 0.828283 0.000000
vt 0.838384 0.000000
vt 0.212121 0.000000
vt 0.848485 0.000000
vt 0.989899 0.000000
vt 0.979798 0.000000
vt 0.858586 0.000000
vt 0.969697 0.000000
vt 0.959596 0.000000
vt 0.949495 0.000000
vt 0.939394 0.000000
vt 0.868687 0.000000
vt 0.929293 0.000000
vt 0.202020 0.000000
vt 0.919192 0.000000
vt 0.909091 0.000000
vt 0.878788 0.000000
vt 0.898990 0.000000
vt 0.191919 0.000000
vt 0.181818 0.000000
vt 0.030303 0.000000
vt 0.171717 0.000000
vt 0.040404 0.000000
vt 0.050505 0.000000
vt 0.060606 0.000000
vt 0.161616 0.000000
vt 0.070707 0.000000
vt 0.080808 0.000000
vt 0.090909 0.000000
vt 0.151515 0.000000
vt 0.101010 0.000000
vt 0.121212 0.000000
vt 0.141414 0.000000
vt 0.131313 0.000000
vt 0.010753 0.000000
vt 0.720430 0.000000
vt 0.709677 0.000000
vt 0.698925 0.000000
vt 0.688172 0.000000
vt 0.677419 0.000000
vt 0.655914 0.000000
vt 0.645161 0.000000
vt 0.634409 0.000000
vt 0.731183 0.000000
vt 0.623656 0.000000
vt 0.741935 0.000000
vt 0.752688 0.000000
vt 0.763441 0.000000
vt 0.612903 0.000000
vt 0.774194 0.000000
vt 0.784946 0.000000
vt 0.795699 0.000000
vt 0.602151 0.000000
vt 0.806452 0.000000
vt 0.817204 0.000000
vt 0.827957 0.000000
vt 0.591398 0.000000
vt 0.838710 0.000000
vt 0.849462 0.000000
vt 0.580645 0.000000
vt 0.860215 0.000000
vt 0.870968 0.000000
vt 0.569892 0.000000
vt 0.881720 0.000000
vt 0.559140 0.000000
vt 0.892473 0.000000
vt 0.903226 0.000000
vt 0.548387 0.000000
vt 0.913979 0.000000
vt 0.537634 0.000000
vt 0.924731 0.000000
vt 0.526882 0.000000
vt 0.935484 0.000000
vt 0.946237 0.000000
vt 0.516129 0.000000
vt 0.956989 0.000000
vt 0.967742 0.000000
vt 0.505376 0.000000
vt 0.978495 0.000000
vt 0.989247 0.000000
vt 0.032258 0.000000
vt 0.494624 0.000000
vt 0.483871 0.000000
vt 0.473118 0.000000
vt 0.462366 0.000000
vt 0.451613 0.000000
vt 0.440860 0.000000
vt 0.430108 0.000000
vt 0.043011 0.000000
vt 0.053763 0.000000
vt 0.419355 0.000000
vt 0.021505 0.000000
vt 0.064516 0.000000
vt 0.075269 0.000000
vt 0.086022 0.000000
vt 0.408602 0.000000
vt 0.096774 0.000000
vt 0.107527 0.000000
vt 0.397849 0.000000
vt 0.118280 0.000000
vt 0.387097 0.000000
vt 0.129032 0.000000
vt 0.376344 0.000000
vt 0.139785 0.000000
vt 0.365591 0.000000
vt 0.150538 0.000000
vt 0.354839 0.000000
vt 0.161290 0.000000
vt 0.344086 0.000000
vt 0.172043 0.000000
vt 0.322581 0.000000
vt 0.182796 0.000000
vt 0.311828 0.000000
vt 0.301075 0.000000
vt 0.290323 0.000000
vt 0.279570 0.000000
vt 0.268817 0.000000
vt 0.258065 0.000000
vt 0.247312 0.000000
vt 0.236559 0.000000
vt 0.225806 0.000000
vt 0.215054 0.000000
vt 0.204301 0.000000
vt 0.193548 0.000000
s 0
usemtl マテリアル
f 42/1/1 40/2/1 41/3/1
f 42/1/1 39/4/1 40/2/1
f 43/5/1 39/4/1 42/1/1
f 43/5/1 38/6/1 39/4/1
f 44/7/1 38/6/1 43/5/1
f 44/7/1 37/8/1 38/6/1
f 44/7/1 36/9/1 37/8/1
f 45/10/1 36/9/1 44/7/1
f 45/10/1 35/11/1 36/9/1
f 2/12/1 55/13/1 1/14/1
f 2/12/1 54/15/1 55/13/1
f 46/16/1 35/11/1 45/10/1
f 46/16/1 34/17/1 35/11/1
f 46/16/1 33/18/1 34/17/1
f 47/19/1 33/18/1 46/16/1
f 47/19/1 32/20/1 33/18/1
f 48/21/1 32/20/1 47/19/1
f 48/21/1 31/22/1 32/20/1
f 48/21/1 30/23/1 31/22/1
f 49/24/1 30/23/1 48/21/1
f 49/24/1 29/25/1 30/23/1
f 50/26/1 29/25/1 49/24/1
f 50/26/1 19/27/1 29/25/1
f 19/27/1 20/28/1 29/25/1
f 20/28/1 21/29/1 29/25/1
f 21/29/1 22/30/1 29/25/1
f 22/30/1 23/31/1 29/25/1
f 23/31/1 24/32/1 29/25/1
f 24/32/1 25/33/1 29/25/1
f 25/33/1 26/34/1 29/25/1
f 26/34/1 27/35/1 29/25/1
f 27/35/1 28/36/1 29/25/1
f 51/37/1 17/38/1 50/26/1
f 17/38/1 18/39/1 50/26/1
f 18/39/1 19/27/1 50/26/1
f 52/40/1 15/41/1 51/37/1
f 15/41/1 16/42/1 51/37/1
f 16/42/1 17/38/1 51/37/1
f 52/40/1 14/43/1 15/41/1
f 52/40/1 13/44/1 14/43/1
f 53/45/1 13/44/1 52/40/1
f 53/45/1 12/46/1 13/44/1
f 53/45/1 11/47/1 12/46/1
f 2/12/1 53/45/1 54/15/1
f 2/12/1 7/48/1 53/45/1
f 7/48/1 8/49/1 53/45/1
f 8/49/1 9/50/1 53/45/1
f 9/50/1 10/51/1 53/45/1
f 10/51/1 11/47/1 53/45/1
f 2/12/1 6/52/1 7/48/1
f 2/12/1 5/53/1 6/52/1
f 2/12/1 4/54/1 5/53/1
f 2/12/1 3/55/1 4/54/1
f 94/56/1 92/57/1 93/58/1
f 94/56/1 91/59/1 92/57/1
f 95/60/1 91/59/1 94/56/1
f 95/60/1 90/61/1 91/59/1
f 96/62/1 90/61/1 95/60/1
f 96/62/1 89/63/1 90/61/1
f 97/64/1 89/63/1 96/62/1
f 97/64/1 88/65/1 89/63/1
f 98/66/1 88/65/1 97/64/1
f 98/66/1 87/67/1 88/65/1
f 99/68/1 87/67/1 98/66/1
f 99/68/1 86/69/1 87/67/1
f 100/70/1 142/71/1 99/68/1
f 142/71/1 86/69/1 99/68/1
f 100/70/1 141/72/1 142/71/1
f 143/73/1 86/69/1 142/71/1
f 100/70/1 140/74/1 141/72/1
f 144/75/1 86/69/1 143/73/1
f 100/70/1 139/76/1 140/74/1
f 145/77/1 86/69/1 144/75/1
f 145/77/1 85/78/1 86/69/1
f 100/70/1 138/79/1 139/76/1
f 101/80/1 138/79/1 100/70/1
f 146/81/1 85/78/1 145/77/1
f 101/80/1 137/82/1 138/79/1
f 147/83/1 85/78/1 146/81/1
f 101/80/1 136/84/1 137/82/1
f 148/85/1 85/78/1 147/83/1
f 101/80/1 135/86/1 136/84/1
f 149/87/1 85/78/1 148/85/1
f 102/88/1 135/86/1 101/80/1
f 149/87/1 84/89/1 85/78/1
f 102/88/1 134/90/1 135/86/1
f 150/91/1 84/89/1 149/87/1
f 102/88/1 133/92/1 134/90/1
f 151/93/1 84/89/1 150/91/1
f 103/94/1 133/92/1 102/88/1
f 151/93/1 83/95/1 84/89/1
f 103/94/1 132/96/1 133/92/1
f 152/97/1 83/95/1 151/93/1
f 103/94/1 131/98/1 132/96/1
f 153/99/1 83/95/1 152/97/1
f 104/100/1 131/98/1 103/94/1
f 104/100/1 130/101/1 131/98/1
f 153/99/1 82/102/1 83/95/1
f 154/13/1 82/102/1 153/99/1
f 104/100/1 154/13/1 130/101/1
f 104/100/1 82/102/1 154/13/1
f 105/36/1 82/102/1 104/100/1
f 105/36/1 81/103/1 82/102/1
f 106/104/1 80/105/1 105/36/1
f 80/105/1 81/103/1 105/36/1
f 106/104/1 79/106/1 80/105/1
f 107/107/1 79/106/1 106/104/1
f 107/107/1 78/108/1 79/106/1
f 107/107/1 77/109/1 78/108/1
f 108/110/1 77/109/1 107/107/1
f 108/110/1 76/111/1 77/109/1
f 109/112/1 76/111/1 108/110/1
f 109/112/1 75/113/1 76/111/1
f 57/114/1 129/115/1 56/14/1
f 109/112/1 74/116/1 75/113/1
f 58/117/1 129/115/1 57/114/1
f 59/118/1 129/115/1 58/117/1
f 110/119/1 74/116/1 109/112/1
f 110/119/1 73/120/1 74/116/1
f 60/121/1 129/115/1 59/118/1
f 61/122/1 129/115/1 60/121/1
f 110/119/1 72/123/1 73/120/1
f 62/124/1 129/115/1 61/122/1
f 110/119/1 71/125/1 72/123/1
f 63/126/1 129/115/1 62/124/1
f 111/127/1 71/125/1 110/119/1
f 64/128/1 129/115/1 63/126/1
f 111/127/1 70/129/1 71/125/1
f 65/130/1 129/115/1 64/128/1
f 111/127/1 69/131/1 70/129/1
f 66/132/1 129/115/1 65/130/1
f 67/133/1 129/115/1 66/132/1
f 111/127/1 68/134/1 69/131/1
f 68/134/1 129/115/1 67/133/1
f 111/127/1 129/115/1 68/134/1
f 112/135/1 129/115/1 111/127/1
f 112/135/1 128/136/1 129/115/1
f 113/137/1 128/136/1 112/135/1
f 113/137/1 127/138/1 128/136/1
f 113/137/1 126/139/1 127/138/1
f 114/140/1 126/139/1 113/137/1
f 114/140/1 125/141/1 126/139/1
f 114/140/1 124/142/1 125/141/1
f 115/143/1 124/142/1 114/140/1
f 115/143/1 123/144/1 124/142/1
f 115/143/1 122/145/1 123/144/1
f 116/146/1 122/145/1 115/143/1
f 116/146/1 121/147/1 122/145/1
f 116/146/1 120/148/1 121/147/1
f 116/146/1 119/149/1 120/148/1
f 117/150/1 119/149/1 116/146/1
f 117/150/1 118/151/1 119/149/1
f 161/8/1 159/33/1 160/22/1
f 161/8/1 164/13/1 159/33/1
f 162/5/1 164/13/1 161/8/1
f 162/5/1 163/24/1 164/13/1
f 157/44/1 155/14/1 156/48/1
f 157/44/1 158/27/1 155/14/1
f 203/152/1 201/153/1 202/154/1
f 204/155/1 201/153/1 203/152/1
f 204/155/1 200/156/1 201/153/1
f 205/157/1 200/156/1 204/155/1
f 206/158/1 200/156/1 205/157/1
f 206/158/1 199/159/1 200/156/1
f 207/160/1 199/159/1 206/158/1
f 207/160/1 198/161/1 199/159/1
f 208/162/1 198/161/1 207/160/1
f 209/163/1 198/161/1 208/162/1
f 209/163/1 197/164/1 198/161/1
f 210/165/1 197/164/1 209/163/1
f 210/165/1 196/166/1 197/164/1
f 211/167/1 196/166/1 210/165/1
f 212/168/1 196/166/1 211/167/1
f 212/168/1 195/169/1 196/166/1
f 213/170/1 195/169/1 212/168/1
f 213/170/1 194/171/1 195/169/1
f 214/172/1 194/171/1 213/170/1
f 215/173/1 216/174/1 214/172/1
f 216/174/1 217/175/1 214/172/1
f 217/175/1 218/176/1 214/172/1
f 218/176/1 219/177/1 214/172/1
f 219/177/1 220/178/1 214/172/1
f 220/178/1 221/179/1 214/172/1
f 221/179/1 222/180/1 214/172/1
f 222/180/1 223/181/1 214/172/1
f 223/181/1 224/182/1 214/172/1
f 224/182/1 225/183/1 214/172/1
f 225/183/1 194/171/1 214/172/1
f 225/183/1 226/184/1 194/171/1
f 226/184/1 227/185/1 194/171/1
f 227/185/1 193/186/1 194/171/1
f 227/185/1 228/187/1 193/186/1
f 228/187/1 192/188/1 193/186/1
f 229/189/1 192/188/1 228/187/1
f 230/190/1 192/188/1 229/189/1
f 231/191/1 192/188/1 230/190/1
f 232/192/1 192/188/1 231/191/1
f 233/193/1 192/188/1 232/192/1
f 233/193/1 191/194/1 192/188/1
f 234/195/1 191/194/1 233/193/1
f 235/196/1 191/194/1 234/195/1
f 236/197/1 191/194/1 235/196/1
f 236/197/1 190/198/1 191/194/1
f 237/199/1 190/198/1 236/197/1
f 238/200/1 190/198/1 237/199/1
f 238/200/1 189/201/1 190/198/1
f 239/202/1 189/201/1 238/200/1
f 240/203/1 189/201/1 239/202/1
f 241/204/1 338/13/1 240/203/1
f 338/13/1 189/201/1 240/203/1
f 242/205/1 338/13/1 241/204/1
f 243/206/1 338/13/1 242/205/1
f 244/207/1 338/13/1 243/206/1
f 245/208/1 338/13/1 244/207/1
f 245/208/1 337/209/1 338/13/1
f 302/210/1 189/201/1 338/13/1
f 245/208/1 336/211/1 337/209/1
f 246/212/1 336/211/1 245/208/1
f 246/212/1 335/213/1 336/211/1
f 247/214/1 335/213/1 246/212/1
f 247/214/1 334/215/1 335/213/1
f 248/216/1 334/215/1 247/214/1
f 248/216/1 333/217/1 334/215/1
f 248/216/1 332/218/1 333/217/1
f 249/219/1 332/218/1 248/216/1
f 249/219/1 331/220/1 332/218/1
f 250/221/1 331/220/1 249/219/1
f 250/221/1 330/222/1 331/220/1
f 250/221/1 329/223/1 330/222/1
f 251/224/1 329/223/1 250/221/1
f 251/224/1 328/225/1 329/223/1
f 251/224/1 327/226/1 328/225/1
f 252/227/1 327/226/1 251/224/1
f 252/227/1 326/228/1 327/226/1
f 253/229/1 326/228/1 252/227/1
f 253/229/1 325/230/1 326/228/1
f 253/229/1 324/231/1 325/230/1
f 254/232/1 324/231/1 253/229/1
f 254/232/1 323/233/1 324/231/1
f 254/232/1 322/234/1 323/233/1
f 303/235/1 189/201/1 302/210/1
f 255/236/1 322/234/1 254/232/1
f 304/237/1 189/201/1 303/235/1
f 255/236/1 321/238/1 322/234/1
f 305/239/1 189/201/1 304/237/1
f 166/240/1 301/241/1 165/14/1
f 305/239/1 188/242/1 189/201/1
f 255/236/1 320/243/1 321/238/1
f 167/244/1 301/241/1 166/240/1
f 306/245/1 188/242/1 305/239/1
f 306/245/1 187/246/1 188/242/1
f 168/247/1 301/241/1 167/244/1
f 256/248/1 320/243/1 255/236/1
f 256/248/1 319/249/1 320/243/1
f 306/245/1 186/250/1 187/246/1
f 307/251/1 186/250/1 306/245/1
f 169/252/1 301/241/1 168/247/1
f 307/251/1 185/253/1 186/250/1
f 308/254/1 185/253/1 307/251/1
f 170/255/1 301/241/1 169/252/1
f 256/248/1 318/256/1 319/249/1
f 308/254/1 184/257/1 185/253/1
f 171/258/1 301/241/1 170/255/1
f 309/259/1 184/257/1 308/254/1
f 309/259/1 183/260/1 184/257/1
f 172/261/1 301/241/1 171/258/1
f 256/248/1 317/262/1 318/256/1
f 309/259/1 182/263/1 183/260/1
f 310/264/1 182/263/1 309/259/1
f 173/265/1 301/241/1 172/261/1
f 310/264/1 181/266/1 182/263/1
f 257/267/1 317/262/1 256/248/1
f 174/268/1 301/241/1 173/265/1
f 257/267/1 316/269/1 317/262/1
f 311/270/1 181/266/1 310/264/1
f 311/270/1 180/271/1 181/266/1
f 175/272/1 301/241/1 174/268/1
f 311/270/1 179/273/1 180/271/1
f 176/274/1 301/241/1 175/272/1
f 312/275/1 179/273/1 311/270/1
f 312/275/1 178/276/1 179/273/1
f 177/277/1 301/241/1 176/274/1
f 312/275/1 177/277/1 178/276/1
f 257/267/1 315/278/1 316/269/1
f 312/275/1 301/241/1 177/277/1
f 313/279/1 301/241/1 312/275/1
f 257/267/1 314/280/1 315/278/1
f 314/280/1 301/241/1 313/279/1
f 257/267/1 277/281/1 314/280/1
f 277/281/1 301/241/1 314/280/1
f 258/282/1 277/281/1 257/267/1
f 258/282/1 276/283/1 277/281/1
f 278/284/1 301/241/1 277/281/1
f 259/285/1 276/283/1 258/282/1
f 259/285/1 275/286/1 276/283/1
f 279/287/1 301/241/1 278/284/1
f 279/287/1 300/288/1 301/241/1
f 260/289/1 275/286/1 259/285/1
f 260/289/1 274/290/1 275/286/1
f 280/291/1 300/288/1 279/287/1
f 280/291/1 299/292/1 300/288/1
f 260/289/1 273/293/1 274/290/1
f 281/294/1 299/292/1 280/291/1
f 261/295/1 273/293/1 260/289/1
f 281/294/1 298/296/1 299/292/1
f 261/295/1 272/297/1 273/293/1
f 282/298/1 298/296/1 281/294/1
f 282/298/1 297/299/1 298/296/1
f 262/300/1 272/297/1 261/295/1
f 262/300/1 271/301/1 272/297/1
f 283/302/1 297/299/1 282/298/1
f 283/302/1 296/303/1 297/299/1
f 262/300/1 270/304/1 271/301/1
f 284/305/1 296/303/1 283/302/1
f 284/305/1 295/306/1 296/303/1
f 263/307/1 270/304/1 262/300/1
f 263/307/1 269/308/1 270/304/1
f 285/309/1 295/306/1 284/305/1
f 285/309/1 294/310/1 295/306/1
f 263/307/1 268/311/1 269/308/1
f 285/309/1 293/312/1 294/310/1
f 286/313/1 293/312/1 285/309/1
f 264/314/1 268/311/1 263/307/1
f 286/313/1 292/315/1 293/312/1
f 264/314/1 267/316/1 268/311/1
f 287/317/1 292/315/1 286/313/1
f 287/317/1 291/318/1 292/315/1
f 264/314/1 266/319/1 267/316/1
f 288/320/1 291/318/1 287/317/1
f 265/321/1 266/319/1 264/314/1
f 288/320/1 290/322/1 291/318/1
f 289/323/1 290/322/1 288/320/1
f 377/56/1 375/57/1 376/58/1
f 377/56/1 374/59/1 375/57/1
f 378/60/1 374/59/1 377/56/1
f 378/60/1 373/61/1 374/59/1
f 379/62/1 373/61/1 378/60/1
f 379/62/1 372/63/1 373/61/1
f 380/64/1 372/63/1 379/62/1
f 380/64/1 371/65/1 372/63/1
f 381/66/1 371/65/1 380/64/1
f 381/66/1 370/67/1 371/65/1
f 382/68/1 370/67/1 381/66/1
f 382/68/1 369/69/1 370/67/1
f 383/70/1 425/71/1 382/68/1
f 425/71/1 369/69/1 382/68/1
f 383/70/1 424/72/1 425/71/1
f 426/73/1 369/69/1 425/71/1
f 383/70/1 423/74/1 424/72/1
f 427/75/1 369/69/1 426/73/1
f 383/70/1 422/76/1 423/74/1
f 428/77/1 369/69/1 427/75/1
f 428/77/1 368/78/1 369/69/1
f 383/70/1 421/79/1 422/76/1
f 384/80/1 421/79/1 383/70/1
f 429/81/1 368/78/1 428/77/1
f 384/80/1 420/82/1 421/79/1
f 430/83/1 368/78/1 429/81/1
f 384/80/1 419/84/1 420/82/1
f 431/85/1 368/78/1 430/83/1
f 384/80/1 418/86/1 419/84/1
f 432/87/1 368/78/1 431/85/1
f 385/88/1 418/86/1 384/80/1
f 432/87/1 367/89/1 368/78/1
f 385/88/1 417/90/1 418/86/1
f 433/91/1 367/89/1 432/87/1
f 385/88/1 416/92/1 417/90/1
f 434/93/1 367/89/1 433/91/1
f 386/94/1 416/92/1 385/88/1
f 434/93/1 366/95/1 367/89/1
f 386/94/1 415/96/1 416/92/1
f 435/97/1 366/95/1 434/93/1
f 386/94/1 414/98/1 415/96/1
f 436/99/1 366/95/1 435/97/1
f 387/100/1 414/98/1 386/94/1
f 387/100/1 413/101/1 414/98/1
f 436/99/1 365/102/1 366/95/1
f 437/13/1 365/102/1 436/99/1
f 387/100/1 437/13/1 413/101/1
f 387/100/1 365/102/1 437/13/1
f 388/36/1 365/102/1 387/100/1
f 388/36/1 364/103/1 365/102/1
f 389/104/1 363/105/1 388/36/1
f 363/105/1 364/103/1 388/36/1
f 389/104/1 362/106/1 363/105/1
f 390/107/1 362/106/1 389/104/1
f 390/107/1 361/108/1 362/106/1
f 390/107/1 360/109/1 361/108/1
f 391/110/1 360/109/1 390/107/1
f 391/110/1 359/111/1 360/109/1
f 392/112/1 359/111/1 391/110/1
f 392/112/1 358/113/1 359/111/1
f 340/114/1 412/115/1 339/14/1
f 392/112/1 357/116/1 358/113/1
f 341/117/1 412/115/1 340/114/1
f 342/118/1 412/115/1 341/117/1
f 393/119/1 357/116/1 392/112/1
f 393/119/1 356/120/1 357/116/1
f 343/121/1 412/115/1 342/118/1
f 344/122/1 412/115/1 343/121/1
f 393/119/1 355/123/1 356/120/1
f 345/124/1 412/115/1 344/122/1
f 393/119/1 354/125/1 355/123/1
f 346/126/1 412/115/1 345/124/1
f 394/127/1 354/125/1 393/119/1
f 347/128/1 412/115/1 346/126/1
f 394/127/1 353/129/1 354/125/1
f 348/130/1 412/115/1 347/128/1
f 394/127/1 352/131/1 353/129/1
f 349/132/1 412/115/1 348/130/1
f 350/133/1 412/115/1 349/132/1
f 394/127/1 351/134/1 352/131/1
f 351/134/1 412/115/1 350/133/1
f 394/127/1 412/115/1 351/134/1
f 395/135/1 412/115/1 394/127/1
f 395/135/1 411/136/1 412/115/1
f 396/137/1 411/136/1 395/135/1
f 396/137/1 410/138/1 411/136/1
f 396/137/1 409/139/1 410/138/1
f 397/140/1 409/139/1 396/137/1
f 397/140/1 408/141/1 409/139/1
f 397/140/1 407/142/1 408/141/1
f 398/143/1 407/142/1 397/140/1
f 398/143/1 406/144/1 407/142/1
f 398/143/1 405/145/1 406/144/1
f 399/146/1 405/145/1 398/143/1
f 399/146/1 404/147/1 405/145/1
f 399/146/1 403/148/1 404/147/1
f 399/146/1 402/149/1 403/148/1
f 400/150/1 402/149/1 399/146/1
f 400/150/1 401/151/1 402/149/1
f 479/1/1 477/2/1 478/3/1
f 479/1/1 476/4/1 477/2/1
f 480/5/1 476/4/1 479/1/1
f 480/5/1 475/6/1 476/4/1
f 481/7/1 475/6/1 480/5/1
f 481/7/1 474/8/1 475/6/1
f 481/7/1 473/9/1 474/8/1
f 482/10/1 473/9/1 481/7/1
f 482/10/1 472/11/1 473/9/1
f 439/12/1 492/13/1 438/14/1
f 439/12/1 491/15/1 492/13/1
f 483/16/1 472/11/1 482/10/1
f 483/16/1 471/17/1 472/11/1
f 483/16/1 470/18/1 471/17/1
f 484/19/1 470/18/1 483/16/1
f 484/19/1 469/20/1 470/18/1
f 485/21/1 469/20/1 484/19/1
f 485/21/1 468/22/1 469/20/1
f 485/21/1 467/23/1 468/22/1
f 486/24/1 467/23/1 485/21/1
f 486/24/1 466/25/1 467/23/1
f 487/26/1 466/25/1 486/24/1
f 487/26/1 456/27/1 466/25/1
f 456/27/1 457/28/1 466/25/1
f 457/28/1 458/29/1 466/25/1
f 458/29/1 459/30/1 466/25/1
f 459/30/1 460/31/1 466/25/1
f 460/31/1 461/32/1 466/25/1
f 461/32/1 462/33/1 466/25/1
f 462/33/1 463/34/1 466/25/1
f 463/34/1 464/35/1 466/25/1
f 464/35/1 465/36/1 466/25/1
f 488/37/1 454/38/1 487/26/1
f 454/38/1 455/39/1 487/26/1
f 455/39/1 456/27/1 487/26/1
f 489/40/1 452/41/1 488/37/1
f 452/41/1 453/42/1 488/37/1
f 453/42/1 454/38/1 488/37/1
f 489/40/1 451/43/1 452/41/1
f 489/40/1 450/44/1 451/43/1
f 490/45/1 450/44/1 489/40/1
f 490/45/1 449/46/1 450/44/1
f 490/45/1 448/47/1 449/46/1
f 439/12/1 490/45/1 491/15/1
f 439/12/1 444/48/1 490/45/1
f 444/48/1 445/49/1 490/45/1
f 445/49/1 446/50/1 490/45/1
f 446/50/1 447/51/1 490/45/1
f 447/51/1 448/47/1 490/45/1
f 439/12/1 443/52/1 444/48/1
f 439/12/1 442/53/1 443/52/1
f 439/12/1 441/54/1 442/53/1
f 439/12/1 440/55/1 441/54/1
f 493/14/1 545/324/1 544/325/1
f 545/324/1 543/326/1 544/325/1
f 545/324/1 542/327/1 543/326/1
f 545/324/1 541/328/1 542/327/1
f 545/324/1 540/329/1 541/328/1
f 545/324/1 539/330/1 540/329/1
f 545/324/1 538/66/1 539/330/1
f 545/324/1 537/331/1 538/66/1
f 545/324/1 536/332/1 537/331/1
f 545/324/1 546/333/1 536/332/1
f 546/333/1 535/334/1 536/332/1
f 493/14/1 571/335/1 545/324/1
f 547/336/1 535/334/1 546/333/1
f 548/337/1 535/334/1 547/336/1
f 548/337/1 534/338/1 535/334/1
f 549/339/1 534/338/1 548/337/1
f 550/340/1 534/338/1 549/339/1
f 551/341/1 534/338/1 550/340/1
f 552/342/1 534/338/1 551/341/1
f 552/342/1 533/343/1 534/338/1
f 553/135/1 533/343/1 552/342/1
f 554/344/1 533/343/1 553/135/1
f 554/344/1 532/345/1 533/343/1
f 555/346/1 532/345/1 554/344/1
f 556/347/1 532/345/1 555/346/1
f 556/347/1 531/348/1 532/345/1
f 557/349/1 531/348/1 556/347/1
f 558/350/1 531/348/1 557/349/1
f 558/350/1 530/351/1 531/348/1
f 559/352/1 530/351/1 558/350/1
f 559/352/1 529/353/1 530/351/1
f 560/354/1 529/353/1 559/352/1
f 560/354/1 528/27/1 529/353/1
f 561/355/1 528/27/1 560/354/1
f 561/355/1 527/356/1 528/27/1
f 562/357/1 527/356/1 561/355/1
f 562/357/1 526/358/1 527/356/1
f 563/8/1 526/358/1 562/357/1
f 563/8/1 525/359/1 526/358/1
f 564/360/1 525/359/1 563/8/1
f 564/360/1 524/361/1 525/359/1
f 565/362/1 524/361/1 564/360/1
f 566/363/1 524/361/1 565/362/1
f 566/363/1 523/89/1 524/361/1
f 567/364/1 523/89/1 566/363/1
f 567/364/1 522/365/1 523/89/1
f 568/139/1 522/365/1 567/364/1
f 569/366/1 522/365/1 568/139/1
f 570/367/1 522/365/1 569/366/1
f 493/14/1 572/368/1 571/335/1
f 572/368/1 570/367/1 571/335/1
f 572/368/1 522/365/1 570/367/1
f 572/368/1 521/369/1 522/365/1
f 572/368/1 520/370/1 521/369/1
f 572/368/1 519/371/1 520/370/1
f 572/368/1 518/372/1 519/371/1
f 572/368/1 517/373/1 518/372/1
f 572/368/1 516/374/1 517/373/1
f 572/368/1 515/375/1 516/374/1
f 572/368/1 514/376/1 515/375/1
f 572/368/1 513/377/1 514/376/1
f 572/368/1 573/378/1 513/377/1
f 573/378/1 512/379/1 513/377/1
f 493/14/1 598/13/1 572/368/1
f 574/380/1 512/379/1 573/378/1
f 575/381/1 512/379/1 574/380/1
f 576/382/1 512/379/1 575/381/1
f 576/382/1 511/383/1 512/379/1
f 577/384/1 511/383/1 576/382/1
f 578/385/1 511/383/1 577/384/1
f 578/385/1 510/386/1 511/383/1
f 579/387/1 510/386/1 578/385/1
f 580/388/1 510/386/1 579/387/1
f 580/388/1 509/389/1 510/386/1
f 581/390/1 509/389/1 580/388/1
f 582/391/1 509/389/1 581/390/1
f 582/391/1 508/129/1 509/389/1
f 583/74/1 508/129/1 582/391/1
f 583/74/1 507/392/1 508/129/1
f 584/393/1 507/392/1 583/74/1
f 585/394/1 507/392/1 584/393/1
f 585/394/1 506/395/1 507/392/1
f 586/396/1 506/395/1 585/394/1
f 587/397/1 506/395/1 586/396/1
f 587/397/1 505/398/1 506/395/1
f 588/399/1 505/398/1 587/397/1
f 588/399/1 504/400/1 505/398/1
f 589/401/1 504/400/1 588/399/1
f 590/402/1 504/400/1 589/401/1
f 590/402/1 503/403/1 504/400/1
f 591/404/1 503/403/1 590/402/1
f 592/405/1 503/403/1 591/404/1
f 592/405/1 502/406/1 503/403/1
f 593/407/1 502/406/1 592/405/1
f 594/408/1 502/406/1 593/407/1
f 595/409/1 502/406/1 594/408/1
f 595/409/1 501/410/1 502/406/1
f 596/411/1 501/410/1 595/409/1
f 597/412/1 501/410/1 596/411/1
f 493/14/1 597/412/1 598/13/1
f 493/14/1 501/410/1 597/412/1
f 493/14/1 500/413/1 501/410/1
f 493/14/1 499/414/1 500/413/1
f 493/14/1 498/415/1 499/414/1
f 493/14/1 497/416/1 498/415/1
f 493/14/1 496/417/1 497/416/1
f 493/14/1 495/418/1 496/417/1
f 493/14/1 494/419/1 495/418/1
f 600/420/1 656/13/1 599/14/1
f 600/420/1 655/421/1 656/13/1
f 600/420/1 654/422/1 655/421/1
f 601/423/1 654/422/1 600/420/1
f 602/424/2 654/422/2 601/423/2
f 603/425/1 653/426/1 602/424/1
f 653/426/2 654/422/2 602/424/2
f 603/425/1 652/427/1 653/426/1
f 603/425/1 651/428/1 652/427/1
f 604/429/1 651/428/1 603/425/1
f 604/429/1 650/430/1 651/428/1
f 604/429/1 649/431/1 650/430/1
f 605/432/1 649/431/1 604/429/1
f 605/432/1 648/433/1 649/431/1
f 629/434/1 627/435/1 628/436/1
f 630/437/1 627/435/1 629/434/1
f 605/432/1 647/438/1 648/433/1
f 631/439/1 627/435/1 630/437/1
f 606/440/1 647/438/1 605/432/1
f 606/440/1 646/441/1 647/438/1
f 632/442/1 627/435/1 631/439/1
f 633/443/1 627/435/1 632/442/1
f 606/440/1 645/444/1 646/441/1
f 634/445/1 627/435/1 633/443/1
f 606/440/1 644/446/1 645/444/1
f 635/447/1 627/435/1 634/445/1
f 606/440/1 643/448/1 644/446/1
f 636/449/1 627/435/1 635/447/1
f 607/450/1 643/448/1 606/440/1
f 637/8/1 627/435/1 636/449/1
f 607/450/1 642/451/1 643/448/1
f 638/452/1 627/435/1 637/8/1
f 607/450/1 641/453/1 642/451/1
f 639/454/1 627/435/1 638/452/1
f 607/450/1 640/455/1 641/453/1
f 640/455/1 627/435/1 639/454/1
f 607/450/1 627/435/1 640/455/1
f 608/456/1 627/435/1 607/450/1
f 609/457/1 627/435/1 608/456/1
f 610/458/1 627/435/1 609/457/1
f 610/458/1 626/459/1 627/435/1
f 611/460/1 626/459/1 610/458/1
f 611/460/1 625/461/1 626/459/1
f 611/460/1 624/462/1 625/461/1
f 612/463/1 624/462/1 611/460/1
f 612/463/1 623/464/1 624/462/1
f 612/463/1 622/465/1 623/464/1
f 612/463/1 621/466/1 622/465/1
f 613/467/1 621/466/1 612/463/1
f 613/467/1 620/468/1 621/466/1
f 613/467/1 619/469/1 620/468/1
f 614/470/1 619/469/1 613/467/1
f 614/470/1 618/27/1 619/469/1
f 614/470/1 617/471/1 618/27/1
f 615/472/1 617/471/1 614/470/1
f 615/472/1 616/473/1 617/471/1
f 658/474/1 704/475/1 657/14/1
f 658/474/1 703/476/1 704/475/1
f 659/477/1 703/476/1 658/474/1
f 659/477/1 702/459/1 703/476/1
f 660/478/1 702/459/1 659/477/1
f 660/478/1 701/479/1 702/459/1
f 661/480/1 701/479/1 660/478/1
f 661/480/1 700/481/1 701/479/1
f 662/424/1 700/481/1 661/480/1
f 662/424/1 699/482/1 700/481/1
f 663/483/1 699/482/1 662/424/1
f 663/483/1 698/484/1 699/482/1
f 664/485/1 705/486/1 663/483/1
f 705/486/1 698/484/1 663/483/1
f 664/485/1 752/13/1 705/486/1
f 706/487/1 698/484/1 705/486/1
f 664/485/1 751/488/1 752/13/1
f 707/434/1 698/484/1 706/487/1
f 664/485/1 750/489/1 751/488/1
f 708/490/1 698/484/1 707/434/1
f 708/490/1 697/464/1 698/484/1
f 665/491/1 750/489/1 664/485/1
f 665/491/1 749/492/1 750/489/1
f 709/493/1 697/464/1 708/490/1
f 665/491/1 748/494/1 749/492/1
f 710/495/1 697/464/1 709/493/1
f 665/491/1 747/426/1 748/494/1
f 711/496/1 697/464/1 710/495/1
f 711/496/1 696/497/1 697/464/1
f 666/498/1 747/426/1 665/491/1
f 666/498/1 746/499/1 747/426/1
f 712/442/1 696/497/1 711/496/1
f 666/498/1 745/500/1 746/499/1
f 713/501/1 696/497/1 712/442/1
f 713/501/1 695/334/1 696/497/1
f 667/432/1 745/500/1 666/498/1
f 667/432/1 744/502/1 745/500/1
f 714/347/1 695/334/1 713/501/1
f 714/347/1 694/503/1 695/334/1
f 668/504/1 744/502/1 667/432/1
f 668/504/1 743/505/1 744/502/1
f 715/506/1 694/503/1 714/347/1
f 668/504/1 742/430/1 743/505/1
f 716/507/1 694/503/1 715/506/1
f 716/507/1 693/508/1 694/503/1
f 669/509/1 742/430/1 668/504/1
f 669/509/1 741/510/1 742/430/1
f 717/447/1 693/508/1 716/507/1
f 670/511/1 741/510/1 669/509/1
f 670/511/1 740/512/1 741/510/1
f 717/447/1 692/468/1 693/508/1
f 718/513/1 692/468/1 717/447/1
f 670/511/1 739/514/1 740/512/1
f 719/515/1 692/468/1 718/513/1
f 671/516/1 739/514/1 670/511/1
f 719/515/1 691/517/1 692/468/1
f 671/516/1 738/518/1 739/514/1
f 720/519/1 691/517/1 719/515/1
f 671/516/1 737/438/1 738/518/1
f 672/456/1 737/438/1 671/516/1
f 721/520/1 691/517/1 720/519/1
f 721/520/1 690/521/1 691/517/1
f 672/456/1 736/522/1 737/438/1
f 722/452/1 690/521/1 721/520/1
f 673/523/1 736/522/1 672/456/1
f 722/452/1 689/524/1 690/521/1
f 673/523/1 735/525/1 736/522/1
f 723/526/1 689/524/1 722/452/1
f 673/523/1 734/527/1 735/525/1
f 724/528/1 689/524/1 723/526/1
f 674/529/1 734/527/1 673/523/1
f 724/528/1 688/530/1 689/524/1
f 674/529/1 733/384/1 734/527/1
f 725/531/1 688/530/1 724/528/1
f 674/529/1 732/446/1 733/384/1
f 726/532/1 688/530/1 725/531/1
f 674/529/1 731/533/1 732/446/1
f 727/453/1 688/530/1 726/532/1
f 675/534/1 731/533/1 674/529/1
f 727/453/1 687/471/1 688/530/1
f 675/534/1 730/535/1 731/533/1
f 728/536/1 687/471/1 727/453/1
f 675/534/1 729/537/1 730/535/1
f 729/537/1 687/471/1 728/536/1
f 675/534/1 687/471/1 729/537/1
f 676/376/1 687/471/1 675/534/1
f 676/376/1 686/538/1 687/471/1
f 677/460/1 686/538/1 676/376/1
f 677/460/1 685/539/1 686/538/1
f 678/540/1 685/539/1 677/460/1
f 678/540/1 684/541/1 685/539/1
f 679/542/1 684/541/1 678/540/1
f 679/542/1 683/543/1 684/541/1
f 680/544/1 683/543/1 679/542/1
f 680/544/1 682/470/1 683/543/1
f 681/545/1 682/470/1 680/544/1
f 755/546/1 753/14/1 754/547/1
f 755/546/1 803/548/1 753/14/1
f 792/549/1 790/550/1 791/551/1
f 793/552/1 790/550/1 792/549/1
f 794/553/1 790/550/1 793/552/1
f 794/553/1 789/554/1 790/550/1
f 795/555/1 789/554/1 794/553/1
f 796/556/1 789/554/1 795/555/1
f 797/33/1 789/554/1 796/556/1
f 797/33/1 788/557/1 789/554/1
f 798/558/1 788/557/1 797/33/1
f 799/559/1 788/557/1 798/558/1
f 799/559/1 787/560/1 788/557/1
f 800/561/1 787/560/1 799/559/1
f 801/562/1 787/560/1 800/561/1
f 802/563/1 787/560/1 801/562/1
f 802/563/1 786/27/1 787/560/1
f 803/548/1 786/27/1 802/563/1
f 755/546/1 804/564/1 803/548/1
f 804/564/1 805/565/1 803/548/1
f 805/565/1 806/566/1 803/548/1
f 806/566/1 807/567/1 803/548/1
f 807/567/1 808/22/1 803/548/1
f 808/22/1 809/568/1 803/548/1
f 809/568/1 810/569/1 803/548/1
f 810/569/1 811/570/1 803/548/1
f 811/570/1 812/571/1 803/548/1
f 812/571/1 813/572/1 803/548/1
f 813/572/1 786/27/1 803/548/1
f 813/572/1 814/573/1 786/27/1
f 814/573/1 785/574/1 786/27/1
f 814/573/1 815/575/1 785/574/1
f 815/575/1 816/576/1 785/574/1
f 816/576/1 784/577/1 785/574/1
f 817/578/1 784/577/1 816/576/1
f 818/579/1 784/577/1 817/578/1
f 818/579/1 783/580/1 784/577/1
f 819/8/1 783/580/1 818/579/1
f 820/581/1 783/580/1 819/8/1
f 821/582/1 783/580/1 820/581/1
f 821/582/1 782/583/1 783/580/1
f 822/584/1 782/583/1 821/582/1
f 823/585/1 782/583/1 822/584/1
f 755/546/1 852/13/1 804/564/1
f 823/585/1 781/586/1 782/583/1
f 824/587/1 781/586/1 823/585/1
f 825/588/1 781/586/1 824/587/1
f 825/588/1 780/589/1 781/586/1
f 826/590/1 780/589/1 825/588/1
f 827/591/1 780/589/1 826/590/1
f 827/591/1 779/592/1 780/589/1
f 828/593/1 779/592/1 827/591/1
f 828/593/1 778/594/1 779/592/1
f 829/595/1 778/594/1 828/593/1
f 830/5/1 778/594/1 829/595/1
f 830/5/1 777/596/1 778/594/1
f 831/597/1 777/596/1 830/5/1
f 831/597/1 776/598/1 777/596/1
f 832/599/1 776/598/1 831/597/1
f 833/600/1 776/598/1 832/599/1
f 833/600/1 775/44/1 776/598/1
f 834/601/1 775/44/1 833/600/1
f 835/602/1 775/44/1 834/601/1
f 836/603/1 775/44/1 835/602/1
f 836/603/1 774/604/1 775/44/1
f 837/605/1 774/604/1 836/603/1
f 755/546/1 851/606/1 852/13/1
f 755/546/1 850/607/1 851/606/1
f 838/608/1 774/604/1 837/605/1
f 755/546/1 849/609/1 850/607/1
f 755/546/1 848/610/1 849/609/1
f 755/546/1 847/611/1 848/610/1
f 755/546/1 846/612/1 847/611/1
f 839/613/1 774/604/1 838/608/1
f 755/546/1 845/614/1 846/612/1
f 839/613/1 773/615/1 774/604/1
f 755/546/1 844/616/1 845/614/1
f 755/546/1 843/617/1 844/616/1
f 840/618/1 773/615/1 839/613/1
f 755/546/1 842/619/1 843/617/1
f 755/546/1 841/24/1 842/619/1
f 755/546/1 840/618/1 841/24/1
f 755/546/1 773/615/1 840/618/1
f 755/546/1 772/620/1 773/615/1
f 755/546/1 771/621/1 772/620/1
f 756/622/1 771/621/1 755/546/1
f 756/622/1 770/623/1 771/621/1
f 757/624/1 770/623/1 756/622/1
f 758/625/1 770/623/1 757/624/1
f 759/626/1 770/623/1 758/625/1
f 759/626/1 769/627/1 770/623/1
f 760/628/1 769/627/1 759/626/1
f 761/629/1 769/627/1 760/628/1
f 762/630/1 769/627/1 761/629/1
f 762/630/1 768/631/1 769/627/1
f 763/632/1 768/631/1 762/630/1
f 764/48/1 768/631/1 763/632/1
f 765/633/1 768/631/1 764/48/1
f 765/633/1 767/634/1 768/631/1
f 766/635/1 767/634/1 765/633/1
f 854/474/1 900/475/1 853/14/1
f 854/474/1 899/476/1 900/475/1
f 855/477/1 899/476/1 854/474/1
f 855/477/1 898/459/1 899/476/1
f 856/478/1 898/459/1 855/477/1
f 856/478/1 897/479/1 898/459/1
f 857/480/1 897/479/1 856/478/1
f 857/480/1 896/481/1 897/479/1
f 858/424/1 896/481/1 857/480/1
f 858/424/1 895/482/1 896/481/1
f 859/483/1 895/482/1 858/424/1
f 859/483/1 894/484/1 895/482/1
f 860/485/1 901/486/1 859/483/1
f 901/486/1 894/484/1 859/483/1
f 860/485/1 948/13/1 901/486/1
f 902/487/1 894/484/1 901/486/1
f 860/485/1 947/488/1 948/13/1
f 903/434/1 894/484/1 902/487/1
f 860/485/1 946/489/1 947/488/1
f 904/490/1 894/484/1 903/434/1
f 904/490/1 893/464/1 894/484/1
f 861/491/1 946/489/1 860/485/1
f 861/491/1 945/492/1 946/489/1
f 905/493/1 893/464/1 904/490/1
f 861/491/1 944/494/1 945/492/1
f 906/495/1 893/464/1 905/493/1
f 861/491/1 943/426/1 944/494/1
f 907/496/1 893/464/1 906/495/1
f 907/496/1 892/497/1 893/464/1
f 862/498/1 943/426/1 861/491/1
f 862/498/1 942/499/1 943/426/1
f 908/442/1 892/497/1 907/496/1
f 862/498/1 941/500/1 942/499/1
f 909/501/1 892/497/1 908/442/1
f 909/501/1 891/334/1 892/497/1
f 863/432/1 941/500/1 862/498/1
f 863/432/1 940/502/1 941/500/1
f 910/347/1 891/334/1 909/501/1
f 910/347/1 890/503/1 891/334/1
f 864/504/1 940/502/1 863/432/1
f 864/504/1 939/505/1 940/502/1
f 911/506/1 890/503/1 910/347/1
f 864/504/1 938/430/1 939/505/1
f 912/507/1 890/503/1 911/506/1
f 912/507/1 889/508/1 890/503/1
f 865/509/1 938/430/1 864/504/1
f 865/509/1 937/510/1 938/430/1
f 913/447/1 889/508/1 912/507/1
f 866/511/1 937/510/1 865/509/1
f 866/511/1 936/512/1 937/510/1
f 913/447/1 888/468/1 889/508/1
f 914/513/1 888/468/1 913/447/1
f 866/511/1 935/514/1 936/512/1
f 915/515/1 888/468/1 914/513/1
f 867/516/1 935/514/1 866/511/1
f 915/515/1 887/517/1 888/468/1
f 867/516/1 934/518/1 935/514/1
f 916/519/1 887/517/1 915/515/1
f 867/516/1 933/438/1 934/518/1
f 868/456/1 933/438/1 867/516/1
f 917/520/1 887/517/1 916/519/1
f 917/520/1 886/521/1 887/517/1
f 868/456/1 932/522/1 933/438/1
f 918/452/1 886/521/1 917/520/1
f 869/523/1 932/522/1 868/456/1
f 918/452/1 885/524/1 886/521/1
f 869/523/1 931/525/1 932/522/1
f 919/526/1 885/524/1 918/452/1
f 869/523/1 930/527/1 931/525/1
f 920/528/1 885/524/1 919/526/1
f 870/529/1 930/527/1 869/523/1
f 920/528/1 884/530/1 885/524/1
f 870/529/1 929/384/1 930/527/1
f 921/531/1 884/530/1 920/528/1
f 870/529/1 928/446/1 929/384/1
f 922/532/1 884/530/1 921/531/1
f 870/529/1 927/533/1 928/446/1
f 923/453/1 884/530/1 922/532/1
f 871/534/1 927/533/1 870/529/1
f 923/453/1 883/471/1 884/530/1
f 871/534/1 926/535/1 927/533/1
f 924/536/1 883/471/1 923/453/1
f 871/534/1 925/537/1 926/535/1
f 925/537/1 883/471/1 924/536/1
f 871/534/1 883/471/1 925/537/1
f 872/376/1 883/471/1 871/534/1
f 872/376/1 882/538/1 883/471/1
f 873/460/1 882/538/1 872/376/1
f 873/460/1 881/539/1 882/538/1
f 874/540/1 881/539/1 873/460/1
f 874/540/1 880/541/1 881/539/1
f 875/542/1 880/541/1 874/540/1
f 875/542/1 879/543/1 880/541/1
f 876/544/1 879/543/1 875/542/1
f 876/544/1 878/470/1 879/543/1
f 877/545/1 878/470/1 876/544/1
f 950/636/1 1016/637/1 949/14/1
f 1016/637/1 1015/638/1 949/14/1
f 1016/637/1 1014/639/1 1015/638/1
f 1016/637/1 1013/640/1 1014/639/1
f 1016/637/1 1012/641/1 1013/640/1
f 1016/637/1 1011/8/1 1012/641/1
f 1016/637/1 1010/642/1 1011/8/1
f 1016/637/1 1009/643/1 1010/642/1
f 1016/637/1 1008/644/1 1009/643/1
f 1016/637/1 1017/645/1 1008/644/1
f 1017/645/1 1007/646/1 1008/644/1
f 950/636/1 1042/13/1 1016/637/1
f 1018/647/1 1007/646/1 1017/645/1
f 1019/648/1 1007/646/1 1018/647/1
f 1020/649/1 1007/646/1 1019/648/1
f 1020/649/1 1006/650/1 1007/646/1
f 1021/651/1 1006/650/1 1020/649/1
f 1022/652/1 1006/650/1 1021/651/1
f 1023/653/1 1006/650/1 1022/652/1
f 1023/653/1 1005/654/1 1006/650/1
f 1024/655/1 1005/654/1 1023/653/1
f 1025/656/1 1005/654/1 1024/655/1
f 1026/657/1 1005/654/1 1025/656/1
f 1026/657/1 1004/658/1 1005/654/1
f 1027/659/1 1004/658/1 1026/657/1
f 1028/660/1 1004/658/1 1027/659/1
f 1028/660/1 1003/661/1 1004/658/1
f 1029/662/1 1003/661/1 1028/660/1
f 1030/663/1 1003/661/1 1029/662/1
f 1030/663/1 1002/664/1 1003/661/1
f 1031/665/1 1002/664/1 1030/663/1
f 1031/665/1 1001/666/1 1002/664/1
f 1032/667/1 1001/666/1 1031/665/1
f 1033/668/1 1001/666/1 1032/667/1
f 1033/668/1 1000/669/1 1001/666/1
f 1034/670/1 1000/669/1 1033/668/1
f 1034/670/1 999/671/1 1000/669/1
f 1035/672/1 999/671/1 1034/670/1
f 1035/672/1 998/673/1 999/671/1
f 1036/674/1 998/673/1 1035/672/1
f 1037/675/1 998/673/1 1036/674/1
f 1037/675/1 997/676/1 998/673/1
f 1038/677/1 997/676/1 1037/675/1
f 1039/678/1 997/676/1 1038/677/1
f 1039/678/1 996/679/1 997/676/1
f 1040/680/1 996/679/1 1039/678/1
f 1041/681/1 996/679/1 1040/680/1
f 950/636/1 952/682/1 1042/13/1
f 952/682/1 1041/681/1 1042/13/1
f 952/682/1 996/679/1 1041/681/1
f 952/682/1 995/683/1 996/679/1
f 952/682/1 994/684/1 995/683/1
f 952/682/1 993/685/1 994/684/1
f 952/682/1 992/686/1 993/685/1
f 952/682/1 991/687/1 992/686/1
f 952/682/1 990/688/1 991/687/1
f 952/682/1 989/689/1 990/688/1
f 952/682/1 953/690/1 989/689/1
f 953/690/1 954/691/1 989/689/1
f 954/691/1 988/692/1 989/689/1
f 950/636/1 951/693/1 952/682/1
f 955/694/1 988/692/1 954/691/1
f 956/695/1 988/692/1 955/694/1
f 957/696/1 988/692/1 956/695/1
f 957/696/1 987/697/1 988/692/1
f 958/698/1 987/697/1 957/696/1
f 959/699/1 987/697/1 958/698/1
f 959/699/1 986/700/1 987/697/1
f 960/701/1 986/700/1 959/699/1
f 960/701/1 985/702/1 986/700/1
f 961/703/1 985/702/1 960/701/1
f 961/703/1 984/704/1 985/702/1
f 962/705/1 984/704/1 961/703/1
f 962/705/1 983/706/1 984/704/1
f 963/707/1 983/706/1 962/705/1
f 963/707/1 982/708/1 983/706/1
f 964/709/1 982/708/1 963/707/1
f 964/709/1 981/710/1 982/708/1
f 964/709/1 980/27/1 981/710/1
f 965/711/1 980/27/1 964/709/1
f 965/711/1 979/712/1 980/27/1
f 966/713/1 979/712/1 965/711/1
f 966/713/1 978/714/1 979/712/1
f 966/713/1 977/715/1 978/714/1
f 966/713/1 976/716/1 977/715/1
f 966/713/1 975/717/1 976/716/1
f 966/713/1 974/718/1 975/717/1
f 966/713/1 973/719/1 974/718/1
f 966/713/1 972/720/1 973/719/1
f 966/713/1 971/721/1 972/720/1
f 966/713/1 970/722/1 971/721/1
f 966/713/1 969/723/1 970/722/1
f 966/713/1 968/724/1 969/723/1
f 966/713/1 967/725/1 968/724/1
