# Blender 4.4.1
# www.blender.org
mtllib attack.mtl
o 球.001
v 0.003627 0.207473 -0.145670
v 0.003627 0.138629 -0.218011
v 0.003627 0.048680 -0.257161
v 0.003627 0.000000 -0.262199
v 0.003627 -0.048680 -0.257161
v 0.003627 -0.138629 -0.218011
v 0.014496 0.244731 -0.050170
v 0.024947 0.230531 -0.098411
v 0.034578 0.207473 -0.142871
v 0.043021 0.176441 -0.181840
v 0.049949 0.138629 -0.213822
v 0.055097 0.095489 -0.237586
v 0.058268 0.048680 -0.252220
v 0.059338 0.000000 -0.257161
v 0.058268 -0.048680 -0.252220
v 0.055097 -0.095489 -0.237586
v 0.049949 -0.138629 -0.213822
v 0.043021 -0.176441 -0.181840
v 0.034578 -0.207473 -0.142871
v 0.024947 -0.230531 -0.098411
v 0.014496 -0.244731 -0.050170
v 0.024947 0.244731 -0.047259
v 0.045447 0.230531 -0.092701
v 0.064340 0.207473 -0.134582
v 0.080900 0.176441 -0.171290
v 0.094491 0.138629 -0.201416
v 0.104590 0.095489 -0.223801
v 0.110808 0.048680 -0.237586
v 0.112908 0.000000 -0.242241
v 0.110808 -0.048680 -0.237586
v 0.104590 -0.095489 -0.223801
v 0.094491 -0.138629 -0.201416
v 0.080900 -0.176441 -0.171290
v 0.064340 -0.207473 -0.134582
v 0.045447 -0.230531 -0.092701
v 0.024947 -0.244731 -0.047259
v 0.034578 0.244731 -0.042532
v 0.064340 0.230531 -0.083429
v 0.091769 0.207473 -0.121120
v 0.115811 0.176441 -0.154157
v 0.135541 0.138629 -0.181269
v 0.150202 0.095489 -0.201416
v 0.159230 0.048680 -0.213822
v 0.162278 0.000000 -0.218011
v 0.159230 -0.048680 -0.213822
v 0.150202 -0.095489 -0.201416
v 0.135541 -0.138629 -0.181269
v 0.115811 -0.176441 -0.154157
v 0.091769 -0.207473 -0.121120
v 0.064340 -0.230531 -0.083429
v 0.034578 -0.244731 -0.042532
v 0.043021 0.244731 -0.036170
v 0.080900 0.230531 -0.070951
v 0.115811 0.207473 -0.103004
v 0.146410 0.176441 -0.131100
v 0.171521 0.138629 -0.154157
v 0.190181 0.095489 -0.171290
v 0.201672 0.048680 -0.181840
v 0.205552 0.000000 -0.185403
v 0.201672 -0.048680 -0.181840
v 0.190181 -0.095489 -0.171290
v 0.171521 -0.138629 -0.154157
v 0.146410 -0.176441 -0.131100
v 0.115811 -0.207473 -0.103004
v 0.080900 -0.230531 -0.070951
v 0.043021 -0.244731 -0.036170
v 0.049949 0.244731 -0.028419
v 0.094491 0.230531 -0.055746
v 0.135541 0.207473 -0.080930
v 0.171522 0.176441 -0.103004
v 0.201050 0.138629 -0.121120
v 0.222992 0.095489 -0.134582
v 0.236503 0.048680 -0.142871
v 0.241066 0.000000 -0.145670
v 0.236503 -0.048680 -0.142871
v 0.222992 -0.095489 -0.134582
v 0.201050 -0.138629 -0.121120
v 0.171522 -0.176441 -0.103004
v 0.135541 -0.207473 -0.080930
v 0.094491 -0.230531 -0.055746
v 0.049949 -0.244731 -0.028419
v 0.003627 0.249525 0.000000
v 0.055097 0.244731 -0.019575
v 0.104590 0.230531 -0.038398
v 0.150202 0.207473 -0.055746
v 0.190181 0.176441 -0.070951
v 0.222992 0.138629 -0.083429
v 0.247372 0.095489 -0.092701
v 0.262385 0.048680 -0.098411
v 0.267455 0.000000 -0.100339
v 0.262385 -0.048680 -0.098411
v 0.247372 -0.095489 -0.092701
v 0.222992 -0.138629 -0.083429
v 0.190181 -0.176441 -0.070951
v 0.150202 -0.207473 -0.055746
v 0.104590 -0.230531 -0.038398
v 0.055097 -0.244731 -0.019575
v 0.058268 0.244731 -0.009979
v 0.110808 0.230531 -0.019575
v 0.159230 0.207473 -0.028419
v 0.201672 0.176441 -0.036170
v 0.236503 0.138629 -0.042532
v 0.262385 0.095489 -0.047259
v 0.278323 0.048680 -0.050170
v 0.283705 0.000000 -0.051153
v 0.278323 -0.048680 -0.050170
v 0.262385 -0.095489 -0.047259
v 0.236503 -0.138629 -0.042532
v 0.201672 -0.176441 -0.036170
v 0.159230 -0.207473 -0.028419
v 0.110808 -0.230531 -0.019575
v 0.058268 -0.244731 -0.009979
v 0.059338 0.244731 0.000000
v 0.112908 0.230531 0.000000
v 0.162278 0.207473 0.000000
v 0.205552 0.176441 -0.000000
v 0.241066 0.138629 0.000000
v 0.267455 0.095489 -0.000000
v 0.283705 0.048680 0.000000
v 0.289192 0.000000 0.000000
v 0.283705 -0.048680 0.000000
v 0.267455 -0.095489 -0.000000
v 0.241066 -0.138629 0.000000
v 0.205552 -0.176441 -0.000000
v 0.162278 -0.207473 0.000000
v 0.112908 -0.230531 0.000000
v 0.059338 -0.244731 0.000000
v 0.058268 0.244731 0.009979
v 0.110808 0.230531 0.019575
v 0.159230 0.207473 0.028419
v 0.201672 0.176441 0.036170
v 0.236503 0.138629 0.042532
v 0.262385 0.095489 0.047259
v 0.278323 0.048680 0.050170
v 0.283705 0.000000 0.051153
v 0.278323 -0.048680 0.050170
v 0.262385 -0.095489 0.047259
v 0.236503 -0.138629 0.042532
v 0.201672 -0.176441 0.036170
v 0.159230 -0.207473 0.028419
v 0.110808 -0.230531 0.019575
v 0.058268 -0.244731 0.009979
v 0.055097 0.244731 0.019575
v 0.104590 0.230531 0.038398
v 0.150202 0.207473 0.055746
v 0.190181 0.176441 0.070951
v 0.222992 0.138629 0.083429
v 0.247372 0.095489 0.092701
v 0.262385 0.048680 0.098411
v 0.267455 0.000000 0.100339
v 0.262385 -0.048680 0.098411
v 0.247372 -0.095489 0.092701
v 0.222992 -0.138629 0.083429
v 0.190181 -0.176441 0.070951
v 0.150202 -0.207473 0.055746
v 0.104590 -0.230531 0.038398
v 0.055097 -0.244731 0.019575
v 0.049949 0.244731 0.028419
v 0.094491 0.230531 0.055746
v 0.135541 0.207473 0.080930
v 0.171521 0.176441 0.103004
v 0.201050 0.138629 0.121120
v 0.222992 0.095489 0.134582
v 0.236503 0.048680 0.142871
v 0.241066 0.000000 0.145670
v 0.236503 -0.048680 0.142871
v 0.222992 -0.095489 0.134582
v 0.201050 -0.138629 0.121120
v 0.171521 -0.176441 0.103004
v 0.135541 -0.207473 0.080930
v 0.094491 -0.230531 0.055746
v 0.049949 -0.244731 0.028419
v 0.043021 0.244731 0.036170
v 0.080900 0.230531 0.070951
v 0.115811 0.207473 0.103004
v 0.146410 0.176441 0.131100
v 0.171521 0.138629 0.154157
v 0.190181 0.095489 0.171290
v 0.201672 0.048680 0.181840
v 0.205552 0.000000 0.185403
v 0.201672 -0.048680 0.181840
v 0.190181 -0.095489 0.171290
v 0.171521 -0.138629 0.154157
v 0.146410 -0.176441 0.131100
v 0.115811 -0.207473 0.103004
v 0.080900 -0.230531 0.070951
v 0.043021 -0.244731 0.036170
v 0.034578 0.244731 0.042532
v 0.064340 0.230531 0.083429
v 0.091769 0.207473 0.121120
v 0.115811 0.176441 0.154157
v 0.135541 0.138629 0.181269
v 0.150202 0.095489 0.201416
v 0.159230 0.048680 0.213822
v 0.162278 0.000000 0.218011
v 0.159230 -0.048680 0.213822
v 0.150202 -0.095489 0.201416
v 0.135541 -0.138629 0.181269
v 0.115811 -0.176441 0.154157
v 0.091769 -0.207473 0.121120
v 0.064340 -0.230531 0.083429
v 0.034578 -0.244731 0.042532
v 0.024947 0.244731 0.047259
v 0.045447 0.230531 0.092701
v 0.064340 0.207473 0.134582
v 0.080900 0.176441 0.171290
v 0.094491 0.138629 0.201416
v 0.104590 0.095489 0.223801
v 0.110808 0.048680 0.237586
v 0.112908 0.000000 0.242241
v 0.110808 -0.048680 0.237586
v 0.104590 -0.095489 0.223801
v 0.094491 -0.138629 0.201416
v 0.080900 -0.176441 0.171290
v 0.064340 -0.207473 0.134582
v 0.045447 -0.230531 0.092701
v 0.024947 -0.244731 0.047259
v 0.014496 0.244731 0.050170
v 0.024947 0.230531 0.098411
v 0.034578 0.207473 0.142871
v 0.043021 0.176441 0.181840
v 0.049949 0.138629 0.213822
v 0.055097 0.095489 0.237586
v 0.058268 0.048680 0.252220
v 0.059338 0.000000 0.257161
v 0.058268 -0.048680 0.252220
v 0.055097 -0.095489 0.237586
v 0.049949 -0.138629 0.213822
v 0.043021 -0.176441 0.181840
v 0.034578 -0.207473 0.142871
v 0.024947 -0.230531 0.098411
v 0.014496 -0.244731 0.050170
v 0.003627 0.244731 0.051153
v 0.003627 0.230531 0.100339
v 0.003627 0.207473 0.145670
v 0.003627 0.176441 0.185403
v 0.003627 0.138629 0.218011
v 0.003627 0.095489 0.242241
v 0.003627 0.048680 0.257161
v 0.003627 0.000000 0.262199
v 0.003627 -0.048680 0.257161
v 0.003627 -0.095489 0.242241
v 0.003627 -0.138629 0.218011
v 0.003627 -0.176441 0.185403
v 0.003627 -0.207473 0.145670
v 0.003627 -0.230531 0.100339
v 0.003627 -0.244731 0.051153
v -0.007242 0.244731 0.050170
v -0.017693 0.230531 0.098411
v -0.027324 0.207473 0.142871
v -0.035766 0.176441 0.181840
v -0.042695 0.138629 0.213822
v -0.047843 0.095489 0.237586
v -0.051013 0.048680 0.252220
v -0.052084 0.000000 0.257161
v -0.051013 -0.048680 0.252220
v -0.047843 -0.095489 0.237586
v -0.042695 -0.138629 0.213822
v -0.035766 -0.176441 0.181840
v -0.027324 -0.207473 0.142871
v -0.017693 -0.230531 0.098411
v -0.007242 -0.244731 0.050170
v -0.017693 0.244731 0.047259
v -0.038193 0.230531 0.092701
v -0.057086 0.207473 0.134582
v -0.073646 0.176441 0.171290
v -0.087237 0.138629 0.201416
v -0.097335 0.095489 0.223801
v -0.103554 0.048680 0.237586
v -0.105654 0.000000 0.242240
v -0.103554 -0.048680 0.237586
v -0.097335 -0.095489 0.223801
v -0.087237 -0.138629 0.201416
v -0.073646 -0.176441 0.171290
v -0.057086 -0.207473 0.134582
v -0.038193 -0.230531 0.092701
v -0.017693 -0.244731 0.047259
v -0.027324 0.244731 0.042532
v -0.057086 0.230531 0.083429
v -0.084515 0.207473 0.121120
v -0.108556 0.176441 0.154157
v -0.128287 0.138629 0.181269
v -0.142948 0.095489 0.201416
v -0.151976 0.048680 0.213822
v -0.155024 0.000000 0.218011
v -0.151976 -0.048680 0.213822
v -0.142948 -0.095489 0.201416
v -0.128287 -0.138629 0.181269
v -0.108556 -0.176441 0.154157
v -0.084515 -0.207473 0.121120
v -0.057086 -0.230531 0.083429
v -0.027324 -0.244731 0.042532
v -0.035766 0.244731 0.036170
v -0.073646 0.230531 0.070951
v -0.108556 0.207473 0.103004
v -0.139155 0.176441 0.131100
v -0.164267 0.138629 0.154157
v -0.182927 0.095489 0.171290
v -0.194418 0.048680 0.181840
v -0.198298 0.000000 0.185403
v -0.194418 -0.048680 0.181840
v -0.182927 -0.095489 0.171290
v -0.164267 -0.138629 0.154157
v -0.139155 -0.176441 0.131100
v -0.108556 -0.207473 0.103004
v -0.073646 -0.230531 0.070951
v -0.035766 -0.244731 0.036170
v 0.003627 -0.249525 0.000000
v -0.042695 0.244731 0.028419
v -0.087237 0.230531 0.055746
v -0.128287 0.207473 0.080930
v -0.164267 0.176441 0.103004
v -0.193796 0.138629 0.121120
v -0.215737 0.095489 0.134582
v -0.229249 0.048680 0.142871
v -0.233811 0.000000 0.145670
v -0.229249 -0.048680 0.142871
v -0.215737 -0.095489 0.134582
v -0.193796 -0.138629 0.121120
v -0.164267 -0.176441 0.103004
v -0.128287 -0.207473 0.080930
v -0.087237 -0.230531 0.055746
v -0.042695 -0.244731 0.028419
v -0.047843 0.244731 0.019575
v -0.097335 0.230531 0.038398
v -0.142948 0.207473 0.055745
v -0.182927 0.176441 0.070951
v -0.215737 0.138629 0.083429
v -0.240118 0.095489 0.092701
v -0.255131 0.048680 0.098411
v -0.260200 0.000000 0.100339
v -0.255131 -0.048680 0.098411
v -0.240118 -0.095489 0.092701
v -0.215737 -0.138629 0.083429
v -0.182927 -0.176441 0.070951
v -0.142948 -0.207473 0.055745
v -0.097335 -0.230531 0.038398
v -0.047843 -0.244731 0.019575
v -0.051013 0.244731 0.009979
v -0.103554 0.230531 0.019575
v -0.151976 0.207473 0.028419
v -0.194418 0.176441 0.036170
v -0.229249 0.138629 0.042532
v -0.255131 0.095489 0.047259
v -0.271069 0.048680 0.050170
v -0.276451 0.000000 0.051152
v -0.271069 -0.048680 0.050170
v -0.255131 -0.095489 0.047259
v -0.229249 -0.138629 0.042532
v -0.194418 -0.176441 0.036170
v -0.151976 -0.207473 0.028419
v -0.103554 -0.230531 0.019575
v -0.051013 -0.244731 0.009979
v -0.052084 0.244731 -0.000000
v -0.105654 0.230531 -0.000000
v -0.155024 0.207473 -0.000000
v -0.198298 0.176441 -0.000000
v -0.233811 0.138629 -0.000000
v -0.260200 0.095489 -0.000000
v -0.276451 0.048680 -0.000000
v -0.281938 0.000000 -0.000000
v -0.276451 -0.048680 -0.000000
v -0.260200 -0.095489 -0.000000
v -0.233811 -0.138629 -0.000000
v -0.198298 -0.176441 -0.000000
v -0.155024 -0.207473 -0.000000
v -0.105654 -0.230531 -0.000000
v -0.052084 -0.244731 -0.000000
v -0.051013 0.244731 -0.009979
v -0.103554 0.230531 -0.019575
v -0.151976 0.207473 -0.028419
v -0.194418 0.176441 -0.036170
v -0.229249 0.138629 -0.042532
v -0.255131 0.095489 -0.047259
v -0.271069 0.048680 -0.050170
v -0.276450 0.000000 -0.051153
v -0.271069 -0.048680 -0.050170
v -0.255131 -0.095489 -0.047259
v -0.229249 -0.138629 -0.042532
v -0.194418 -0.176441 -0.036170
v -0.151976 -0.207473 -0.028419
v -0.103554 -0.230531 -0.019575
v -0.051013 -0.244731 -0.009979
v -0.047843 0.244731 -0.019575
v -0.097335 0.230531 -0.038398
v -0.142947 0.207473 -0.055746
v -0.182927 0.176441 -0.070951
v -0.215737 0.138629 -0.083429
v -0.240118 0.095489 -0.092701
v -0.255131 0.048680 -0.098411
v -0.260200 0.000000 -0.100339
v -0.255131 -0.048680 -0.098411
v -0.240118 -0.095489 -0.092701
v -0.215737 -0.138629 -0.083429
v -0.182927 -0.176441 -0.070951
v -0.142947 -0.207473 -0.055746
v -0.097335 -0.230531 -0.038398
v -0.047843 -0.244731 -0.019575
v -0.042695 0.244731 -0.028419
v -0.087237 0.230531 -0.055746
v -0.128287 0.207473 -0.080930
v -0.164267 0.176441 -0.103004
v -0.193796 0.138629 -0.121120
v -0.215737 0.095489 -0.134582
v -0.229249 0.048680 -0.142871
v -0.233811 0.000000 -0.145670
v -0.229249 -0.048680 -0.142871
v -0.215737 -0.095489 -0.134582
v -0.193796 -0.138629 -0.121120
v -0.164267 -0.176441 -0.103004
v -0.128287 -0.207473 -0.080930
v -0.087237 -0.230531 -0.055746
v -0.042695 -0.244731 -0.028419
v -0.035766 0.244731 -0.036170
v -0.073646 0.230531 -0.070951
v -0.108556 0.207473 -0.103004
v -0.139155 0.176441 -0.131100
v -0.164267 0.138629 -0.154157
v -0.182927 0.095489 -0.171290
v -0.194418 0.048680 -0.181840
v -0.198297 0.000000 -0.185403
v -0.194418 -0.048680 -0.181840
v -0.182927 -0.095489 -0.171290
v -0.164267 -0.138629 -0.154157
v -0.139155 -0.176441 -0.131100
v -0.108556 -0.207473 -0.103004
v -0.073646 -0.230531 -0.070951
v -0.035766 -0.244731 -0.036170
v -0.027324 0.244731 -0.042532
v -0.057086 0.230531 -0.083429
v -0.084515 0.207473 -0.121120
v -0.108556 0.176441 -0.154157
v -0.128287 0.138629 -0.181269
v -0.142948 0.095489 -0.201416
v -0.151976 0.048680 -0.213822
v -0.155024 0.000000 -0.218011
v -0.151976 -0.048680 -0.213822
v -0.142948 -0.095489 -0.201416
v -0.128287 -0.138629 -0.181269
v -0.108556 -0.176441 -0.154157
v -0.084515 -0.207473 -0.121120
v -0.057086 -0.230531 -0.083429
v -0.027324 -0.244731 -0.042532
v -0.017693 0.244731 -0.047259
v -0.038193 0.230531 -0.092701
v -0.057086 0.207473 -0.134582
v -0.073646 0.176441 -0.171290
v -0.087237 0.138629 -0.201416
v -0.097335 0.095489 -0.223801
v -0.103554 0.048680 -0.237586
v -0.105654 0.000000 -0.242240
v -0.103554 -0.048680 -0.237586
v -0.097335 -0.095489 -0.223801
v -0.087237 -0.138629 -0.201416
v -0.073646 -0.176441 -0.171290
v -0.057086 -0.207473 -0.134582
v -0.038193 -0.230531 -0.092701
v -0.017693 -0.244731 -0.047259
v -0.007242 0.244731 -0.050170
v -0.017693 0.230531 -0.098411
v -0.027324 0.207473 -0.142871
v -0.035766 0.176441 -0.181840
v -0.042695 0.138629 -0.213822
v -0.047843 0.095489 -0.237586
v -0.051013 0.048680 -0.252220
v -0.052084 0.000000 -0.257161
v -0.051013 -0.048680 -0.252220
v -0.047843 -0.095489 -0.237586
v -0.042695 -0.138629 -0.213822
v -0.035766 -0.176441 -0.181840
v -0.027324 -0.207473 -0.142871
v -0.017693 -0.230531 -0.098411
v -0.007242 -0.244731 -0.050170
v 0.003627 0.244731 -0.051153
v 0.003627 0.230531 -0.100339
v 0.003627 0.176441 -0.185403
v 0.003627 0.095489 -0.242241
v 0.003627 -0.095489 -0.242241
v 0.003627 -0.176441 -0.185403
v 0.003627 -0.207473 -0.145670
v 0.003627 -0.230531 -0.100339
v 0.003627 -0.244731 -0.051153
vn 0.0786 -0.4882 -0.8692
vn 0.0556 0.7869 -0.6146
vn 0.0683 -0.6515 -0.7555
vn 0.0683 0.6515 -0.7555
vn 0.0556 -0.7869 -0.6146
vn 0.0786 0.4882 -0.8692
vn 0.0410 -0.8906 -0.4530
vn 0.0858 0.3026 -0.9493
vn 0.0251 -0.9605 -0.2773
vn 0.0896 0.1025 -0.9907
vn 0.0084 0.9956 -0.0933
vn 0.0084 -0.9956 -0.0933
vn 0.0896 -0.1025 -0.9907
vn 0.0251 0.9605 -0.2773
vn 0.0858 -0.3026 -0.9493
vn 0.0410 0.8906 -0.4530
vn 0.2556 -0.3042 -0.9177
vn 0.1215 0.8916 -0.4361
vn 0.2338 -0.4904 -0.8395
vn 0.1650 0.7887 -0.5923
vn 0.2030 -0.6538 -0.7290
vn 0.2030 0.6538 -0.7290
vn 0.1650 -0.7887 -0.5923
vn 0.2338 0.4904 -0.8395
vn 0.1215 -0.8916 -0.4361
vn 0.2556 0.3042 -0.9177
vn 0.0743 -0.9609 -0.2667
vn 0.2669 0.1031 -0.9582
vn 0.0250 0.9957 -0.0897
vn 0.0250 -0.9957 -0.0897
vn 0.2669 -0.1031 -0.9582
vn 0.0743 0.9609 -0.2667
vn 0.1977 -0.8937 -0.4028
vn 0.4193 0.3073 -0.8543
vn 0.1207 -0.9617 -0.2460
vn 0.4382 0.1043 -0.8928
vn 0.0406 0.9957 -0.0827
vn 0.0406 -0.9957 -0.0827
vn 0.4382 -0.1043 -0.8928
vn 0.1207 0.9617 -0.2460
vn 0.4193 -0.3073 -0.8543
vn 0.1977 0.8937 -0.4028
vn 0.3829 -0.4945 -0.7803
vn 0.2690 0.7920 -0.5481
vn 0.3318 -0.6579 -0.6761
vn 0.3318 0.6579 -0.6761
vn 0.2690 -0.7920 -0.5481
vn 0.3829 0.4945 -0.7803
vn 0.2669 0.8963 -0.3541
vn 0.5211 -0.5001 -0.6916
vn 0.3640 0.7963 -0.4831
vn 0.4503 -0.6634 -0.5976
vn 0.4503 0.6634 -0.5976
vn 0.3640 -0.7963 -0.4831
vn 0.5211 0.5001 -0.6916
vn 0.2669 -0.8963 -0.3541
vn 0.5719 0.3114 -0.7589
vn 0.1627 -0.9628 -0.2159
vn 0.5984 0.1058 -0.7942
vn 0.0546 0.9959 -0.0725
vn 0.0546 -0.9959 -0.0725
vn 0.5984 -0.1058 -0.7942
vn 0.1627 0.9628 -0.2159
vn 0.5719 -0.3114 -0.7589
vn 0.7073 0.3161 -0.6322
vn 0.1985 -0.9639 -0.1774
vn 0.7413 0.1076 -0.6625
vn 0.0666 0.9960 -0.0595
vn 0.0666 -0.9960 -0.0595
vn 0.7413 -0.1076 -0.6625
vn 0.1985 0.9639 -0.1774
vn 0.7073 -0.3161 -0.6322
vn 0.3262 0.8992 -0.2916
vn 0.6429 -0.5063 -0.5747
vn 0.4462 0.8011 -0.3988
vn 0.5538 -0.6696 -0.4950
vn 0.5538 0.6696 -0.4950
vn 0.4462 -0.8011 -0.3988
vn 0.6429 0.5063 -0.5747
vn 0.3262 -0.8992 -0.2916
vn 0.7422 -0.5123 -0.4321
vn 0.5120 0.8056 -0.2980
vn 0.6373 -0.6754 -0.3710
vn 0.6373 0.6754 -0.3710
vn 0.5120 -0.8056 -0.2980
vn 0.7422 0.5123 -0.4321
vn 0.3733 -0.9019 -0.2173
vn 0.8186 0.3207 -0.4765
vn 0.2267 -0.9650 -0.1320
vn 0.8591 0.1093 -0.5001
vn 0.0760 0.9961 -0.0442
vn 0.0760 -0.9961 -0.0442
vn 0.8591 -0.1093 -0.5001
vn 0.2267 0.9650 -0.1320
vn 0.8186 -0.3207 -0.4765
vn 0.3733 0.9019 -0.2173
vn 0.2462 -0.9658 -0.0813
vn 0.9437 0.1106 -0.3118
vn 0.0824 0.9962 -0.0272
vn 0.0824 -0.9962 -0.0272
vn 0.9437 -0.1106 -0.3118
vn 0.2462 0.9658 -0.0813
vn 0.8982 -0.3243 -0.2968
vn 0.4060 0.9040 -0.1341
vn 0.8128 -0.5170 -0.2685
vn 0.5579 0.8091 -0.1843
vn 0.6962 -0.6800 -0.2300
vn 0.6962 0.6800 -0.2300
vn 0.5579 -0.8091 -0.1843
vn 0.8128 0.5170 -0.2685
vn 0.4060 -0.9040 -0.1341
vn 0.8982 0.3243 -0.2967
vn 0.5816 0.8111 -0.0624
vn 0.7267 -0.6825 -0.0780
vn 0.7267 0.6825 -0.0780
vn 0.5816 -0.8111 -0.0624
vn 0.8495 0.5197 -0.0911
vn 0.4227 -0.9051 -0.0453
vn 0.9399 0.3263 -0.1008
vn 0.2561 -0.9663 -0.0275
vn 0.9881 0.1114 -0.1060
vn 0.0857 0.9963 -0.0092
vn 0.0857 -0.9963 -0.0092
vn 0.9881 -0.1114 -0.1060
vn 0.2561 0.9663 -0.0275
vn 0.9399 -0.3263 -0.1008
vn 0.4227 0.9051 -0.0453
vn 0.8495 -0.5197 -0.0911
vn 0.9881 0.1114 0.1060
vn 0.0857 0.9963 0.0092
vn 0.0857 -0.9963 0.0092
vn 0.9881 -0.1114 0.1060
vn 0.2561 0.9663 0.0275
vn 0.9399 -0.3263 0.1008
vn 0.4227 0.9051 0.0453
vn 0.8495 -0.5197 0.0911
vn 0.5816 0.8111 0.0624
vn 0.7267 -0.6825 0.0780
vn 0.7267 0.6825 0.0780
vn 0.5816 -0.8111 0.0624
vn 0.8495 0.5197 0.0911
vn 0.4227 -0.9051 0.0453
vn 0.9399 0.3263 0.1008
vn 0.2561 -0.9663 0.0275
vn 0.6962 -0.6800 0.2300
vn 0.6962 0.6800 0.2300
vn 0.5579 -0.8091 0.1843
vn 0.8128 0.5170 0.2685
vn 0.4060 -0.9040 0.1341
vn 0.8982 0.3243 0.2967
vn 0.2462 -0.9658 0.0813
vn 0.9437 0.1106 0.3118
vn 0.0824 0.9962 0.0272
vn 0.0824 -0.9962 0.0272
vn 0.9437 -0.1106 0.3118
vn 0.2462 0.9658 0.0813
vn 0.8982 -0.3243 0.2968
vn 0.4060 0.9040 0.1341
vn 0.8128 -0.5170 0.2685
vn 0.5579 0.8091 0.1843
vn 0.0760 -0.9961 0.0442
vn 0.8591 -0.1093 0.5001
vn 0.2267 0.9650 0.1320
vn 0.8186 -0.3207 0.4765
vn 0.3733 0.9019 0.2173
vn 0.7422 -0.5123 0.4321
vn 0.5120 0.8056 0.2980
vn 0.6373 -0.6754 0.3710
vn 0.6373 0.6754 0.3710
vn 0.5120 -0.8056 0.2980
vn 0.7422 0.5123 0.4321
vn 0.3733 -0.9019 0.2173
vn 0.8186 0.3207 0.4765
vn 0.2267 -0.9650 0.1320
vn 0.8591 0.1093 0.5001
vn 0.0760 0.9961 0.0442
vn 0.4462 -0.8011 0.3988
vn 0.6429 0.5063 0.5747
vn 0.3262 -0.8992 0.2916
vn 0.7073 0.3161 0.6322
vn 0.1985 -0.9639 0.1774
vn 0.7413 0.1076 0.6625
vn 0.0666 0.9960 0.0595
vn 0.0666 -0.9960 0.0595
vn 0.7413 -0.1076 0.6625
vn 0.1985 0.9639 0.1774
vn 0.7073 -0.3161 0.6322
vn 0.3262 0.8992 0.2916
vn 0.6429 -0.5063 0.5747
vn 0.4462 0.8011 0.3988
vn 0.5538 -0.6696 0.4950
vn 0.5538 0.6696 0.4950
vn 0.1627 0.9628 0.2159
vn 0.5719 -0.3114 0.7589
vn 0.2669 0.8963 0.3541
vn 0.5211 -0.5001 0.6916
vn 0.3640 0.7963 0.4831
vn 0.4503 -0.6634 0.5976
vn 0.4503 0.6634 0.5976
vn 0.3640 -0.7963 0.4831
vn 0.5211 0.5001 0.6916
vn 0.2669 -0.8963 0.3541
vn 0.5719 0.3114 0.7589
vn 0.1627 -0.9628 0.2159
vn 0.5984 0.1058 0.7942
vn 0.0546 0.9959 0.0725
vn 0.0546 -0.9959 0.0725
vn 0.5984 -0.1058 0.7942
vn 0.3829 0.4945 0.7803
vn 0.1977 -0.8937 0.4028
vn 0.4193 0.3073 0.8543
vn 0.1207 -0.9617 0.2460
vn 0.4382 0.1043 0.8928
vn 0.0406 0.9957 0.0827
vn 0.0406 -0.9957 0.0827
vn 0.4382 -0.1043 0.8928
vn 0.1207 0.9617 0.2460
vn 0.4193 -0.3073 0.8543
vn 0.1977 0.8937 0.4028
vn 0.3829 -0.4945 0.7803
vn 0.2690 0.7920 0.5481
vn 0.3318 -0.6579 0.6761
vn 0.3318 0.6579 0.6761
vn 0.2690 -0.7920 0.5481
vn 0.2556 -0.3042 0.9177
vn 0.1215 0.8916 0.4361
vn 0.2338 -0.4904 0.8395
vn 0.1650 0.7887 0.5923
vn 0.2030 -0.6538 0.7290
vn 0.2030 0.6538 0.7290
vn 0.1650 -0.7887 0.5923
vn 0.2338 0.4904 0.8395
vn 0.1215 -0.8916 0.4361
vn 0.2556 0.3042 0.9177
vn 0.0743 -0.9609 0.2667
vn 0.2669 0.1031 0.9582
vn 0.0250 0.9957 0.0897
vn 0.0250 -0.9957 0.0897
vn 0.2669 -0.1031 0.9582
vn 0.0743 0.9609 0.2667
vn 0.0410 -0.8906 0.4530
vn 0.0858 0.3026 0.9493
vn 0.0251 -0.9605 0.2773
vn 0.0896 0.1025 0.9907
vn 0.0084 0.9956 0.0933
vn 0.0084 -0.9956 0.0933
vn 0.0896 -0.1025 0.9907
vn 0.0251 0.9605 0.2773
vn 0.0858 -0.3026 0.9493
vn 0.0410 0.8906 0.4530
vn 0.0786 -0.4882 0.8692
vn 0.0556 0.7869 0.6146
vn 0.0683 -0.6515 0.7555
vn 0.0683 0.6515 0.7555
vn 0.0556 -0.7869 0.6146
vn 0.0786 0.4882 0.8692
vn -0.0410 0.8906 0.4530
vn -0.0786 -0.4882 0.8692
vn -0.0556 0.7869 0.6146
vn -0.0683 -0.6515 0.7555
vn -0.0683 0.6515 0.7555
vn -0.0556 -0.7869 0.6146
vn -0.0786 0.4882 0.8692
vn -0.0410 -0.8906 0.4530
vn -0.0858 0.3026 0.9493
vn -0.0251 -0.9605 0.2773
vn -0.0896 0.1025 0.9907
vn -0.0084 0.9956 0.0933
vn -0.0084 -0.9956 0.0933
vn -0.0896 -0.1025 0.9907
vn -0.0251 0.9605 0.2773
vn -0.0858 -0.3026 0.9493
vn -0.2556 0.3042 0.9177
vn -0.0743 -0.9609 0.2667
vn -0.2669 0.1031 0.9582
vn -0.0250 0.9957 0.0897
vn -0.0250 -0.9957 0.0897
vn -0.2669 -0.1031 0.9582
vn -0.0743 0.9609 0.2667
vn -0.2556 -0.3042 0.9177
vn -0.1215 0.8916 0.4361
vn -0.2338 -0.4904 0.8395
vn -0.1650 0.7887 0.5923
vn -0.2030 -0.6538 0.7290
vn -0.2030 0.6538 0.7290
vn -0.1650 -0.7887 0.5923
vn -0.2338 0.4904 0.8395
vn -0.1215 -0.8916 0.4361
vn -0.3829 -0.4945 0.7803
vn -0.2690 0.7920 0.5481
vn -0.3318 -0.6579 0.6761
vn -0.3318 0.6579 0.6761
vn -0.2690 -0.7920 0.5481
vn -0.3829 0.4945 0.7803
vn -0.1977 -0.8937 0.4028
vn -0.4193 0.3073 0.8543
vn -0.1207 -0.9617 0.2460
vn -0.4382 0.1043 0.8928
vn -0.0406 0.9957 0.0827
vn -0.0406 -0.9957 0.0827
vn -0.4382 -0.1043 0.8928
vn -0.1207 0.9617 0.2460
vn -0.4193 -0.3073 0.8543
vn -0.1977 0.8937 0.4028
vn -0.1627 -0.9628 0.2159
vn -0.5984 0.1058 0.7942
vn -0.0546 0.9959 0.0725
vn -0.0546 -0.9959 0.0725
vn -0.5984 -0.1058 0.7942
vn -0.1627 0.9628 0.2159
vn -0.5719 -0.3114 0.7589
vn -0.2669 0.8963 0.3541
vn -0.5211 -0.5001 0.6916
vn -0.3640 0.7963 0.4831
vn -0.4503 -0.6634 0.5976
vn -0.4503 0.6634 0.5976
vn -0.3640 -0.7963 0.4831
vn -0.5211 0.5001 0.6916
vn -0.2669 -0.8963 0.3541
vn -0.5719 0.3114 0.7589
vn -0.5538 -0.6696 0.4950
vn -0.5538 0.6696 0.4950
vn -0.4462 -0.8011 0.3988
vn -0.6429 0.5063 0.5747
vn -0.3262 -0.8992 0.2916
vn -0.7073 0.3161 0.6322
vn -0.1985 -0.9639 0.1774
vn -0.7413 0.1076 0.6625
vn -0.0666 0.9960 0.0595
vn -0.0666 -0.9960 0.0595
vn -0.7413 -0.1076 0.6625
vn -0.1985 0.9639 0.1774
vn -0.7073 -0.3161 0.6322
vn -0.3262 0.8992 0.2916
vn -0.6429 -0.5063 0.5747
vn -0.4462 0.8011 0.3988
vn -0.0760 0.9961 0.0442
vn -0.0760 -0.9961 0.0442
vn -0.8591 -0.1093 0.5001
vn -0.2267 0.9650 0.1320
vn -0.8186 -0.3207 0.4765
vn -0.3733 0.9019 0.2173
vn -0.7422 -0.5123 0.4321
vn -0.5120 0.8056 0.2980
vn -0.6373 -0.6754 0.3710
vn -0.6373 0.6754 0.3710
vn -0.5120 -0.8056 0.2980
vn -0.7422 0.5123 0.4321
vn -0.3733 -0.9019 0.2173
vn -0.8186 0.3207 0.4765
vn -0.2267 -0.9650 0.1320
vn -0.8591 0.1093 0.5001
vn -0.6962 0.6800 0.2300
vn -0.5579 -0.8091 0.1843
vn -0.8128 0.5170 0.2685
vn -0.4060 -0.9040 0.1341
vn -0.8982 0.3243 0.2967
vn -0.2462 -0.9658 0.0813
vn -0.9437 0.1106 0.3118
vn -0.0824 0.9962 0.0272
vn -0.0824 -0.9962 0.0272
vn -0.9437 -0.1106 0.3118
vn -0.2462 0.9658 0.0813
vn -0.8982 -0.3243 0.2967
vn -0.4060 0.9040 0.1341
vn -0.8128 -0.5170 0.2685
vn -0.5579 0.8091 0.1843
vn -0.6962 -0.6800 0.2300
vn -0.9881 -0.1114 0.1060
vn -0.2561 0.9663 0.0275
vn -0.9399 -0.3263 0.1008
vn -0.4227 0.9051 0.0453
vn -0.8495 -0.5197 0.0911
vn -0.5816 0.8111 0.0624
vn -0.7267 -0.6825 0.0780
vn -0.7267 0.6825 0.0780
vn -0.5816 -0.8111 0.0624
vn -0.8495 0.5197 0.0911
vn -0.4227 -0.9051 0.0453
vn -0.9399 0.3263 0.1008
vn -0.2561 -0.9663 0.0275
vn -0.9881 0.1114 0.1060
vn -0.0857 0.9963 0.0092
vn -0.0857 -0.9963 0.0092
vn -0.5816 -0.8111 -0.0624
vn -0.8495 0.5197 -0.0911
vn -0.4227 -0.9051 -0.0453
vn -0.9399 0.3263 -0.1008
vn -0.2561 -0.9663 -0.0275
vn -0.9881 0.1114 -0.1060
vn -0.0857 0.9963 -0.0092
vn -0.0857 -0.9963 -0.0092
vn -0.9881 -0.1114 -0.1060
vn -0.2561 0.9663 -0.0275
vn -0.9399 -0.3263 -0.1008
vn -0.4227 0.9051 -0.0453
vn -0.8495 -0.5197 -0.0911
vn -0.5816 0.8111 -0.0624
vn -0.7267 -0.6825 -0.0780
vn -0.7267 0.6825 -0.0780
vn -0.2462 0.9658 -0.0813
vn -0.8982 -0.3243 -0.2967
vn -0.4060 0.9040 -0.1341
vn -0.8128 -0.5170 -0.2685
vn -0.5579 0.8091 -0.1843
vn -0.6962 -0.6800 -0.2300
vn -0.6962 0.6800 -0.2300
vn -0.5579 -0.8091 -0.1843
vn -0.8128 0.5170 -0.2685
vn -0.4060 -0.9040 -0.1341
vn -0.8982 0.3243 -0.2967
vn -0.2462 -0.9658 -0.0813
vn -0.9437 0.1106 -0.3118
vn -0.0824 0.9962 -0.0272
vn -0.0824 -0.9962 -0.0272
vn -0.9437 -0.1106 -0.3118
vn -0.7422 0.5123 -0.4321
vn -0.3733 -0.9019 -0.2173
vn -0.8186 0.3207 -0.4765
vn -0.2267 -0.9650 -0.1320
vn -0.8591 0.1093 -0.5001
vn -0.0760 0.9961 -0.0442
vn -0.0760 -0.9961 -0.0442
vn -0.8591 -0.1093 -0.5001
vn -0.2267 0.9650 -0.1320
vn -0.8186 -0.3207 -0.4765
vn -0.3733 0.9019 -0.2173
vn -0.7422 -0.5123 -0.4321
vn -0.5120 0.8056 -0.2980
vn -0.6373 -0.6754 -0.3710
vn -0.6373 0.6754 -0.3710
vn -0.5120 -0.8056 -0.2980
vn -0.7073 -0.3161 -0.6322
vn -0.3262 0.8992 -0.2916
vn -0.6429 -0.5063 -0.5747
vn -0.4462 0.8011 -0.3988
vn -0.5538 -0.6696 -0.4950
vn -0.5538 0.6696 -0.4950
vn -0.4462 -0.8011 -0.3988
vn -0.6429 0.5063 -0.5747
vn -0.3262 -0.8992 -0.2916
vn -0.7073 0.3161 -0.6322
vn -0.1985 -0.9639 -0.1774
vn -0.7413 0.1076 -0.6625
vn -0.0666 0.9960 -0.0595
vn -0.0666 -0.9960 -0.0595
vn -0.7413 -0.1076 -0.6625
vn -0.1985 0.9639 -0.1774
vn -0.2669 -0.8963 -0.3541
vn -0.5719 0.3114 -0.7589
vn -0.1627 -0.9628 -0.2159
vn -0.5984 0.1058 -0.7942
vn -0.0546 0.9959 -0.0725
vn -0.0546 -0.9959 -0.0725
vn -0.5984 -0.1058 -0.7942
vn -0.1627 0.9628 -0.2159
vn -0.5719 -0.3114 -0.7589
vn -0.2669 0.8963 -0.3541
vn -0.5211 -0.5001 -0.6916
vn -0.3640 0.7963 -0.4831
vn -0.4503 -0.6634 -0.5976
vn -0.4503 0.6634 -0.5976
vn -0.3640 -0.7963 -0.4831
vn -0.5211 0.5001 -0.6916
vn -0.3829 -0.4945 -0.7803
vn -0.2690 0.7920 -0.5481
vn -0.3318 -0.6579 -0.6761
vn -0.3318 0.6579 -0.6761
vn -0.2690 -0.7920 -0.5481
vn -0.3829 0.4945 -0.7803
vn -0.1977 -0.8937 -0.4028
vn -0.4193 0.3073 -0.8543
vn -0.1207 -0.9617 -0.2460
vn -0.4382 0.1043 -0.8928
vn -0.0406 0.9957 -0.0827
vn -0.0406 -0.9957 -0.0827
vn -0.4382 -0.1043 -0.8928
vn -0.1207 0.9617 -0.2460
vn -0.4193 -0.3073 -0.8543
vn -0.1977 0.8937 -0.4028
vn -0.0743 -0.9609 -0.2667
vn -0.2669 0.1031 -0.9582
vn -0.0250 0.9957 -0.0897
vn -0.0250 -0.9957 -0.0897
vn -0.2669 -0.1031 -0.9582
vn -0.0743 0.9609 -0.2667
vn -0.2556 -0.3042 -0.9177
vn -0.1215 0.8916 -0.4361
vn -0.2338 -0.4904 -0.8395
vn -0.1650 0.7887 -0.5923
vn -0.2030 -0.6538 -0.7290
vn -0.2030 0.6538 -0.7290
vn -0.1650 -0.7887 -0.5923
vn -0.2338 0.4904 -0.8395
vn -0.1215 -0.8916 -0.4361
vn -0.2556 0.3042 -0.9177
vn -0.0556 0.7869 -0.6146
vn -0.0683 -0.6515 -0.7555
vn -0.0683 0.6515 -0.7555
vn -0.0556 -0.7869 -0.6146
vn -0.0786 0.4882 -0.8692
vn -0.0410 -0.8906 -0.4530
vn -0.0858 0.3026 -0.9493
vn -0.0251 -0.9605 -0.2773
vn -0.0896 0.1025 -0.9907
vn -0.0084 0.9956 -0.0933
vn -0.0084 -0.9956 -0.0933
vn -0.0896 -0.1025 -0.9907
vn -0.0251 0.9605 -0.2773
vn -0.0858 -0.3026 -0.9493
vn -0.0410 0.8906 -0.4530
vn -0.0786 -0.4882 -0.8692
vn 0.8982 -0.3243 -0.2967
vn 0.8982 0.3243 -0.2968
vn 0.8982 0.3243 0.2968
vn 0.8982 -0.3243 0.2967
vt 0.375025 0.250050
vt 0.312537 0.281294
vt 0.312538 0.250050
vt 0.749950 0.250050
vt 0.812438 0.281294
vt 0.749950 0.281294
vt 0.250050 0.281294
vt 0.250050 0.250050
vt 0.687463 0.250050
vt 0.687463 0.281294
vt 0.187562 0.281294
vt 0.187562 0.250050
vt 0.624975 0.250050
vt 0.624975 0.281294
vt 0.125075 0.281294
vt 0.125075 0.250050
vt 0.562487 0.250050
vt 0.562487 0.281294
vt 0.062587 0.281294
vt 0.062587 0.250050
vt 0.500000 0.250050
vt 0.500000 0.281294
vt 0.937413 0.250050
vt 0.999900 0.265672
vt 0.937413 0.281294
vt 0.000100 0.265672
vt 0.437513 0.281294
vt 0.437513 0.250050
vt 0.874925 0.250050
vt 0.874925 0.281294
vt 0.375025 0.281294
vt 0.812438 0.250050
vt 0.375025 0.312537
vt 0.874925 0.312537
vt 0.812438 0.312537
vt 0.312537 0.312537
vt 0.749950 0.312537
vt 0.250050 0.312537
vt 0.687463 0.312537
vt 0.187562 0.312537
vt 0.624975 0.312537
vt 0.125075 0.312537
vt 0.562487 0.312537
vt 0.062587 0.312537
vt 0.500000 0.312537
vt 0.999900 0.296916
vt 0.937413 0.312537
vt 0.000100 0.296916
vt 0.437513 0.312537
vt 0.125075 0.343781
vt 0.624975 0.343781
vt 0.562487 0.343781
vt 0.062587 0.343781
vt 0.500000 0.343781
vt 0.999900 0.328159
vt 0.937413 0.343781
vt 0.000100 0.328159
vt 0.437513 0.343781
vt 0.874925 0.343781
vt 0.375025 0.343781
vt 0.812438 0.343781
vt 0.312537 0.343781
vt 0.749950 0.343781
vt 0.250050 0.343781
vt 0.687463 0.343781
vt 0.187562 0.343781
vt 0.874925 0.375025
vt 0.812438 0.375025
vt 0.312537 0.375025
vt 0.749950 0.375025
vt 0.250050 0.375025
vt 0.687463 0.375025
vt 0.187563 0.375025
vt 0.624975 0.375025
vt 0.125075 0.375025
vt 0.562488 0.375025
vt 0.062587 0.375025
vt 0.500000 0.375025
vt 0.999900 0.359403
vt 0.937413 0.375025
vt 0.000100 0.359403
vt 0.437513 0.375025
vt 0.375025 0.375025
vt 0.624975 0.406269
vt 0.562488 0.406269
vt 0.062587 0.406269
vt 0.500000 0.406269
vt 0.999900 0.390647
vt 0.937413 0.406269
vt 0.000100 0.390647
vt 0.437513 0.406269
vt 0.874925 0.406269
vt 0.375025 0.406269
vt 0.812438 0.406269
vt 0.312537 0.406269
vt 0.749950 0.406269
vt 0.250050 0.406269
vt 0.687463 0.406269
vt 0.187563 0.406269
vt 0.125075 0.406269
vt 0.312537 0.437512
vt 0.812438 0.437512
vt 0.749950 0.437512
vt 0.250050 0.437512
vt 0.687463 0.437512
vt 0.187563 0.437512
vt 0.624975 0.437512
vt 0.125075 0.437513
vt 0.562488 0.437512
vt 0.062587 0.437513
vt 0.500000 0.437512
vt 0.999900 0.421891
vt 0.937413 0.437512
vt 0.000100 0.421891
vt 0.437513 0.437512
vt 0.874925 0.437512
vt 0.375025 0.437512
vt 0.062587 0.468756
vt 0.562488 0.468756
vt 0.500000 0.468756
vt 0.999900 0.453134
vt 0.937413 0.468756
vt 0.000100 0.453134
vt 0.437513 0.468756
vt 0.874925 0.468756
vt 0.375025 0.468756
vt 0.812438 0.468756
vt 0.312537 0.468756
vt 0.749950 0.468756
vt 0.250050 0.468756
vt 0.687463 0.468756
vt 0.187563 0.468756
vt 0.624975 0.468756
vt 0.125075 0.468756
vt 0.812438 0.500000
vt 0.749950 0.500000
vt 0.250050 0.500000
vt 0.687463 0.500000
vt 0.187563 0.500000
vt 0.624975 0.500000
vt 0.125075 0.500000
vt 0.562488 0.500000
vt 0.062587 0.500000
vt 0.500000 0.500000
vt 0.999900 0.484378
vt 0.937413 0.500000
vt 0.000100 0.484378
vt 0.437513 0.500000
vt 0.874925 0.500000
vt 0.375025 0.500000
vt 0.312537 0.500000
vt 0.500000 0.531244
vt 0.999900 0.515622
vt 0.937413 0.531244
vt 0.000100 0.515622
vt 0.062587 0.531244
vt 0.437513 0.531244
vt 0.874925 0.531244
vt 0.375025 0.531244
vt 0.812438 0.531244
vt 0.312537 0.531244
vt 0.749950 0.531244
vt 0.250050 0.531244
vt 0.687463 0.531244
vt 0.187563 0.531244
vt 0.624975 0.531244
vt 0.125075 0.531244
vt 0.562488 0.531244
vt 0.312537 0.562488
vt 0.250050 0.562487
vt 0.687463 0.562487
vt 0.187563 0.562488
vt 0.624975 0.562487
vt 0.125075 0.562487
vt 0.562488 0.562487
vt 0.062587 0.562487
vt 0.500000 0.562488
vt 0.999900 0.546866
vt 0.937413 0.562487
vt 0.000100 0.546866
vt 0.437513 0.562487
vt 0.874925 0.562487
vt 0.375025 0.562487
vt 0.812438 0.562487
vt 0.749950 0.562487
vt 0.000100 0.578109
vt 0.062587 0.593731
vt 0.500000 0.593731
vt 0.437513 0.593731
vt 0.874925 0.593731
vt 0.375025 0.593731
vt 0.812438 0.593731
vt 0.312537 0.593731
vt 0.749950 0.593731
vt 0.250050 0.593731
vt 0.687463 0.593731
vt 0.187563 0.593731
vt 0.624975 0.593731
vt 0.125075 0.593731
vt 0.562488 0.593731
vt 0.999900 0.578109
vt 0.937413 0.593731
vt 0.250050 0.624975
vt 0.187563 0.624975
vt 0.624975 0.624975
vt 0.125075 0.624975
vt 0.562488 0.624975
vt 0.062587 0.624975
vt 0.500000 0.624975
vt 0.999900 0.609353
vt 0.937413 0.624975
vt 0.000100 0.609353
vt 0.437513 0.624975
vt 0.874925 0.624975
vt 0.375025 0.624975
vt 0.812438 0.624975
vt 0.312537 0.624975
vt 0.749950 0.624975
vt 0.687463 0.624975
vt 0.874925 0.656219
vt 0.437513 0.656219
vt 0.375025 0.656219
vt 0.812438 0.656219
vt 0.312537 0.656219
vt 0.749950 0.656219
vt 0.250050 0.656219
vt 0.687463 0.656219
vt 0.187563 0.656219
vt 0.624975 0.656219
vt 0.125075 0.656219
vt 0.562488 0.656219
vt 0.062587 0.656219
vt 0.500000 0.656219
vt 0.999900 0.640597
vt 0.937413 0.656219
vt 0.000100 0.640597
vt 0.624975 0.687463
vt 0.187563 0.687463
vt 0.125075 0.687463
vt 0.562488 0.687463
vt 0.062587 0.687463
vt 0.500000 0.687463
vt 0.999900 0.671841
vt 0.937413 0.687462
vt 0.000100 0.671841
vt 0.437513 0.687463
vt 0.874925 0.687462
vt 0.375025 0.687463
vt 0.812438 0.687463
vt 0.312537 0.687463
vt 0.749950 0.687463
vt 0.250050 0.687463
vt 0.687463 0.687463
vt 0.437513 0.718706
vt 0.375025 0.718706
vt 0.812438 0.718706
vt 0.312537 0.718706
vt 0.749950 0.718706
vt 0.250050 0.718706
vt 0.687463 0.718706
vt 0.187563 0.718706
vt 0.624975 0.718706
vt 0.125075 0.718706
vt 0.562488 0.718706
vt 0.062587 0.718706
vt 0.500000 0.718706
vt 0.999900 0.703084
vt 0.937413 0.718706
vt 0.000100 0.703084
vt 0.874925 0.718706
vt 0.187563 0.749950
vt 0.125075 0.749950
vt 0.562488 0.749950
vt 0.062587 0.749950
vt 0.500000 0.749950
vt 0.999900 0.734328
vt 0.937413 0.749950
vt 0.000100 0.734328
vt 0.437513 0.749950
vt 0.874925 0.749950
vt 0.375025 0.749950
vt 0.812438 0.749950
vt 0.312537 0.749950
vt 0.749950 0.749950
vt 0.250050 0.749950
vt 0.687463 0.749950
vt 0.624975 0.749950
vt 0.874925 0.781194
vt 0.812438 0.781194
vt 0.312537 0.781194
vt 0.749950 0.781194
vt 0.250050 0.781194
vt 0.687463 0.781194
vt 0.187563 0.781194
vt 0.624975 0.781194
vt 0.125075 0.781194
vt 0.562488 0.781194
vt 0.062587 0.781194
vt 0.500000 0.781194
vt 0.999900 0.765572
vt 0.937413 0.781194
vt 0.000100 0.765572
vt 0.437513 0.781194
vt 0.375025 0.781194
vt 0.624975 0.812437
vt 0.562488 0.812438
vt 0.062587 0.812438
vt 0.500000 0.812438
vt 0.999900 0.796816
vt 0.937413 0.812437
vt 0.000100 0.796816
vt 0.437513 0.812438
vt 0.874925 0.812437
vt 0.375025 0.812437
vt 0.812438 0.812437
vt 0.312537 0.812437
vt 0.749950 0.812437
vt 0.250050 0.812438
vt 0.687463 0.812437
vt 0.187563 0.812438
vt 0.125075 0.812438
vt 0.312537 0.843681
vt 0.812438 0.843681
vt 0.749950 0.843681
vt 0.250050 0.843681
vt 0.687463 0.843681
vt 0.187562 0.843681
vt 0.624975 0.843681
vt 0.125075 0.843681
vt 0.562488 0.843681
vt 0.062587 0.843681
vt 0.500000 0.843681
vt 0.999900 0.828059
vt 0.937413 0.843681
vt 0.000100 0.828059
vt 0.437513 0.843681
vt 0.874925 0.843681
vt 0.375025 0.843681
vt 0.062587 0.874925
vt 0.562488 0.874925
vt 0.500000 0.874925
vt 0.999900 0.859303
vt 0.937413 0.874925
vt 0.000100 0.859303
vt 0.437513 0.874925
vt 0.874925 0.874925
vt 0.375025 0.874925
vt 0.812438 0.874925
vt 0.312537 0.874925
vt 0.749950 0.874925
vt 0.250050 0.874925
vt 0.687463 0.874925
vt 0.187562 0.874925
vt 0.624975 0.874925
vt 0.125075 0.874925
vt 0.250050 0.906169
vt 0.749950 0.906169
vt 0.687463 0.906169
vt 0.187562 0.906169
vt 0.624975 0.906169
vt 0.125075 0.906169
vt 0.562488 0.906169
vt 0.062587 0.906169
vt 0.500000 0.906169
vt 0.999900 0.890547
vt 0.937413 0.906169
vt 0.000100 0.890547
vt 0.437513 0.906169
vt 0.874925 0.906169
vt 0.375025 0.906169
vt 0.812438 0.906169
vt 0.312537 0.906169
vt 0.999900 0.921791
vt 0.937413 0.937413
vt 0.000100 0.921791
vt 0.062587 0.937413
vt 0.437513 0.937413
vt 0.874925 0.937413
vt 0.375025 0.937413
vt 0.812438 0.937413
vt 0.312537 0.937413
vt 0.749950 0.937412
vt 0.250050 0.937413
vt 0.687463 0.937413
vt 0.187562 0.937413
vt 0.624975 0.937412
vt 0.125075 0.937413
vt 0.562488 0.937413
vt 0.500000 0.937413
vt 0.749950 0.968656
vt 0.687463 0.968656
vt 0.187562 0.968656
vt 0.624975 0.968656
vt 0.125075 0.968656
vt 0.562488 0.968656
vt 0.062587 0.968656
vt 0.500000 0.968656
vt 0.999900 0.953034
vt 0.937413 0.968656
vt 0.000100 0.953034
vt 0.437513 0.968656
vt 0.874925 0.968656
vt 0.375025 0.968656
vt 0.812438 0.968656
vt 0.312537 0.968656
vt 0.250050 0.968656
vt 0.437513 0.999900
vt 0.937413 0.999900
vt 0.874925 0.999900
vt 0.375025 0.999900
vt 0.812438 0.999900
vt 0.312537 0.999900
vt 0.749950 0.999900
vt 0.250050 0.999900
vt 0.687463 0.999900
vt 0.187562 0.999900
vt 0.624975 0.999900
vt 0.125075 0.999900
vt 0.562488 0.999900
vt 0.062587 0.999900
vt 0.500000 0.999900
vt 0.999900 0.984278
vt 0.000100 0.984278
vt 0.187562 0.000100
vt 0.250050 0.031344
vt 0.187562 0.031344
vt 0.687463 0.000100
vt 0.624975 0.031344
vt 0.624975 0.000100
vt 0.125075 0.000100
vt 0.125075 0.031344
vt 0.562487 0.031344
vt 0.562487 0.000100
vt 0.062587 0.000100
vt 0.062587 0.031344
vt 0.500000 0.031344
vt 0.500000 0.000100
vt 0.937413 0.000100
vt 0.999900 0.015722
vt 0.937413 0.031344
vt 0.000100 0.015722
vt 0.437512 0.000100
vt 0.437512 0.031344
vt 0.874925 0.031344
vt 0.874925 0.000100
vt 0.375025 0.000100
vt 0.375025 0.031344
vt 0.812438 0.031344
vt 0.812438 0.000100
vt 0.312537 0.000100
vt 0.312537 0.031344
vt 0.749950 0.031344
vt 0.749950 0.000100
vt 0.250050 0.000100
vt 0.687463 0.031344
vt 0.874925 0.062587
vt 0.437512 0.062588
vt 0.375025 0.062587
vt 0.812438 0.062588
vt 0.312537 0.062588
vt 0.749950 0.062587
vt 0.250050 0.062587
vt 0.687463 0.062588
vt 0.187562 0.062588
vt 0.624975 0.062587
vt 0.125075 0.062587
vt 0.562488 0.062588
vt 0.062587 0.062587
vt 0.500000 0.062588
vt 0.999900 0.046966
vt 0.937413 0.062587
vt 0.000100 0.046966
vt 0.624975 0.093831
vt 0.187562 0.093831
vt 0.125075 0.093831
vt 0.562488 0.093831
vt 0.062587 0.093831
vt 0.500000 0.093831
vt 0.999900 0.078209
vt 0.937413 0.093831
vt 0.000100 0.078209
vt 0.437512 0.093831
vt 0.874925 0.093831
vt 0.375025 0.093831
vt 0.812438 0.093831
vt 0.312537 0.093831
vt 0.749950 0.093831
vt 0.250050 0.093831
vt 0.687463 0.093831
vt 0.437512 0.125075
vt 0.375025 0.125075
vt 0.812438 0.125075
vt 0.312537 0.125075
vt 0.749950 0.125075
vt 0.250050 0.125075
vt 0.687463 0.125075
vt 0.187562 0.125075
vt 0.624975 0.125075
vt 0.125075 0.125075
vt 0.562488 0.125075
vt 0.062587 0.125075
vt 0.500000 0.125075
vt 0.999900 0.109453
vt 0.937413 0.125075
vt 0.000100 0.109453
vt 0.874925 0.125075
vt 0.187562 0.156319
vt 0.125075 0.156319
vt 0.562488 0.156319
vt 0.062587 0.156319
vt 0.500000 0.156319
vt 0.999900 0.140697
vt 0.937413 0.156319
vt 0.000100 0.140697
vt 0.437512 0.156319
vt 0.874925 0.156319
vt 0.375025 0.156319
vt 0.812438 0.156319
vt 0.312537 0.156319
vt 0.749950 0.156319
vt 0.250050 0.156319
vt 0.687463 0.156319
vt 0.624975 0.156319
vt 0.375025 0.187562
vt 0.312537 0.187563
vt 0.749950 0.187562
vt 0.250050 0.187562
vt 0.687463 0.187563
vt 0.187562 0.187563
vt 0.624975 0.187562
vt 0.125075 0.187562
vt 0.562488 0.187563
vt 0.062587 0.187562
vt 0.500000 0.187563
vt 0.999900 0.171941
vt 0.937413 0.187562
vt 0.000100 0.171941
vt 0.437513 0.187563
vt 0.874925 0.187562
vt 0.812438 0.187563
vt 0.125075 0.218806
vt 0.062587 0.218806
vt 0.500000 0.218806
vt 0.999900 0.203184
vt 0.937413 0.218806
vt 0.000100 0.203184
vt 0.437513 0.218806
vt 0.874925 0.218806
vt 0.375025 0.218806
vt 0.812438 0.218806
vt 0.312537 0.218806
vt 0.749950 0.218806
vt 0.250050 0.218806
vt 0.687463 0.218806
vt 0.187562 0.218806
vt 0.624975 0.218806
vt 0.562488 0.218806
vt 0.999900 0.234428
vt 0.000100 0.234428
s 0
usemtl マテリアル.001
f 478/1/1 17/2/1 6/3/1
f 476/4/2 9/5/2 10/6/2
f 6/3/3 18/7/3 479/8/3
f 2/9/4 10/6/4 11/10/4
f 479/8/5 19/11/5 480/12/5
f 477/13/6 11/10/6 12/14/6
f 480/12/7 20/15/7 481/16/7
f 3/17/8 12/14/8 13/18/8
f 481/16/9 21/19/9 482/20/9
f 4/21/10 13/18/10 14/22/10
f 474/23/11 82/24/11 7/25/11
f 308/26/12 482/20/12 21/19/12
f 4/21/13 15/27/13 5/28/13
f 475/29/14 7/25/14 8/30/14
f 5/28/15 16/31/15 478/1/15
f 1/32/16 8/30/16 9/5/16
f 15/27/17 31/33/17 16/31/17
f 9/5/18 23/34/18 24/35/18
f 16/31/19 32/36/19 17/2/19
f 10/6/20 24/35/20 25/37/20
f 17/2/21 33/38/21 18/7/21
f 11/10/22 25/37/22 26/39/22
f 18/7/23 34/40/23 19/11/23
f 12/14/24 26/39/24 27/41/24
f 19/11/25 35/42/25 20/15/25
f 13/18/26 27/41/26 28/43/26
f 20/15/27 36/44/27 21/19/27
f 14/22/28 28/43/28 29/45/28
f 7/25/29 82/46/29 22/47/29
f 308/48/30 21/19/30 36/44/30
f 14/22/31 30/49/31 15/27/31
f 8/30/32 22/47/32 23/34/32
f 34/40/33 50/50/33 35/42/33
f 28/43/34 42/51/34 43/52/34
f 35/42/35 51/53/35 36/44/35
f 29/45/36 43/52/36 44/54/36
f 22/47/37 82/55/37 37/56/37
f 308/57/38 36/44/38 51/53/38
f 29/45/39 45/58/39 30/49/39
f 23/34/40 37/56/40 38/59/40
f 30/49/41 46/60/41 31/33/41
f 24/35/42 38/59/42 39/61/42
f 31/33/43 47/62/43 32/36/43
f 25/37/44 39/61/44 40/63/44
f 32/36/45 48/64/45 33/38/45
f 26/39/46 40/63/46 41/65/46
f 33/38/47 49/66/47 34/40/47
f 27/41/48 41/65/48 42/51/48
f 39/61/49 53/67/49 54/68/49
f 46/60/50 62/69/50 47/62/50
f 40/63/51 54/68/51 55/70/51
f 47/62/52 63/71/52 48/64/52
f 41/65/53 55/70/53 56/72/53
f 48/64/54 64/73/54 49/66/54
f 42/51/55 56/72/55 57/74/55
f 49/66/56 65/75/56 50/50/56
f 43/52/57 57/74/57 58/76/57
f 50/50/58 66/77/58 51/53/58
f 44/54/59 58/76/59 59/78/59
f 37/56/60 82/79/60 52/80/60
f 308/81/61 51/53/61 66/77/61
f 44/54/62 60/82/62 45/58/62
f 38/59/63 52/80/63 53/67/63
f 45/58/64 61/83/64 46/60/64
f 58/76/65 72/84/65 73/85/65
f 65/75/66 81/86/66 66/77/66
f 59/78/67 73/85/67 74/87/67
f 52/80/68 82/88/68 67/89/68
f 308/90/69 66/77/69 81/86/69
f 59/78/70 75/91/70 60/82/70
f 53/67/71 67/89/71 68/92/71
f 60/82/72 76/93/72 61/83/72
f 54/68/73 68/92/73 69/94/73
f 61/83/74 77/95/74 62/69/74
f 55/70/75 69/94/75 70/96/75
f 62/69/76 78/97/76 63/71/76
f 56/72/77 70/96/77 71/98/77
f 63/71/78 79/99/78 64/73/78
f 57/74/79 71/98/79 72/84/79
f 64/73/80 80/100/80 65/75/80
f 76/93/81 93/101/81 77/95/81
f 70/96/82 85/102/82 86/103/82
f 77/95/83 94/104/83 78/97/83
f 71/98/84 86/103/84 87/105/84
f 78/97/85 95/106/85 79/99/85
f 72/84/86 87/105/86 88/107/86
f 79/99/87 96/108/87 80/100/87
f 73/85/88 88/107/88 89/109/88
f 80/100/89 97/110/89 81/86/89
f 74/87/90 89/109/90 90/111/90
f 67/89/91 82/112/91 83/113/91
f 308/114/92 81/86/92 97/110/92
f 74/87/93 91/115/93 75/91/93
f 68/92/94 83/113/94 84/116/94
f 75/91/95 92/117/95 76/93/95
f 69/94/96 84/116/96 85/102/96
f 96/108/97 112/118/97 97/110/97
f 90/111/98 104/119/98 105/120/98
f 83/113/99 82/121/99 98/122/99
f 308/123/100 97/110/100 112/118/100
f 90/111/101 106/124/101 91/115/101
f 84/116/102 98/122/102 99/125/102
f 91/115/103 107/126/103 92/117/103
f 85/102/104 99/125/104 100/127/104
f 92/117/105 108/128/105 93/101/105
f 86/103/106 100/127/106 101/129/106
f 93/101/107 109/130/107 94/104/107
f 87/105/108 101/129/108 102/131/108
f 94/104/109 110/132/109 95/106/109
f 88/107/110 102/131/110 103/133/110
f 95/106/111 111/134/111 96/108/111
f 89/109/112 103/133/112 104/119/112
f 101/129/113 115/135/113 116/136/113
f 108/128/114 124/137/114 109/130/114
f 102/131/115 116/136/115 117/138/115
f 109/130/116 125/139/116 110/132/116
f 103/133/117 117/138/117 118/140/117
f 110/132/118 126/141/118 111/134/118
f 104/119/119 118/140/119 119/142/119
f 111/134/120 127/143/120 112/118/120
f 105/120/121 119/142/121 120/144/121
f 98/122/122 82/145/122 113/146/122
f 308/147/123 112/118/123 127/143/123
f 105/120/124 121/148/124 106/124/124
f 99/125/125 113/146/125 114/149/125
f 106/124/126 122/150/126 107/126/126
f 100/127/127 114/149/127 115/135/127
f 107/126/128 123/151/128 108/128/128
f 119/142/129 135/152/129 120/144/129
f 113/146/130 82/153/130 128/154/130
f 308/155/131 127/143/131 142/156/131
f 121/148/132 135/152/132 136/157/132
f 113/146/133 129/158/133 114/149/133
f 122/150/134 136/157/134 137/159/134
f 114/149/135 130/160/135 115/135/135
f 123/151/136 137/159/136 138/161/136
f 115/135/137 131/162/137 116/136/137
f 124/137/138 138/161/138 139/163/138
f 116/136/139 132/164/139 117/138/139
f 125/139/140 139/163/140 140/165/140
f 117/138/141 133/166/141 118/140/141
f 126/141/142 140/165/142 141/167/142
f 118/140/143 134/168/143 119/142/143
f 127/143/144 141/167/144 142/156/144
f 139/163/145 153/169/145 154/170/145
f 131/162/146 147/171/146 132/164/146
f 140/165/147 154/170/147 155/172/147
f 132/164/148 148/173/148 133/166/148
f 141/167/149 155/172/149 156/174/149
f 133/166/150 149/175/150 134/168/150
f 142/156/151 156/174/151 157/176/151
f 134/168/152 150/177/152 135/152/152
f 128/154/153 82/178/153 143/179/153
f 308/180/154 142/156/154 157/176/154
f 136/157/155 150/177/155 151/181/155
f 128/154/156 144/182/156 129/158/156
f 137/159/157 151/181/157 152/183/157
f 129/158/158 145/184/158 130/160/158
f 138/161/159 152/183/159 153/169/159
f 130/160/160 146/185/160 131/162/160
f 308/186/161 157/176/161 172/187/161
f 151/181/162 165/188/162 166/189/162
f 143/179/163 159/190/163 144/182/163
f 152/183/164 166/189/164 167/191/164
f 144/182/165 160/192/165 145/184/165
f 153/169/166 167/191/166 168/193/166
f 145/184/167 161/194/167 146/185/167
f 154/170/168 168/193/168 169/195/168
f 146/185/169 162/196/169 147/171/169
f 155/172/170 169/195/170 170/197/170
f 147/171/171 163/198/171 148/173/171
f 156/174/172 170/197/172 171/199/172
f 148/173/173 164/200/173 149/175/173
f 157/176/174 171/199/174 172/187/174
f 149/175/175 165/188/175 150/177/175
f 143/179/176 82/201/176 158/202/176
f 170/197/177 184/203/177 185/204/177
f 162/196/178 178/205/178 163/198/178
f 171/199/179 185/204/179 186/206/179
f 163/198/180 179/207/180 164/200/180
f 172/187/181 186/206/181 187/208/181
f 164/200/182 180/209/182 165/188/182
f 158/202/183 82/210/183 173/211/183
f 308/212/184 172/187/184 187/208/184
f 166/189/185 180/209/185 181/213/185
f 158/202/186 174/214/186 159/190/186
f 167/191/187 181/213/187 182/215/187
f 159/190/188 175/216/188 160/192/188
f 168/193/189 182/215/189 183/217/189
f 160/192/190 176/218/190 161/194/190
f 169/195/191 183/217/191 184/203/191
f 161/194/192 177/219/192 162/196/192
f 173/211/193 189/220/193 174/214/193
f 182/215/194 196/221/194 197/222/194
f 174/214/195 190/223/195 175/216/195
f 183/217/196 197/222/196 198/224/196
f 175/216/197 191/225/197 176/218/197
f 184/203/198 198/224/198 199/226/198
f 176/218/199 192/227/199 177/219/199
f 185/204/200 199/226/200 200/228/200
f 177/219/201 193/229/201 178/205/201
f 186/206/202 200/228/202 201/230/202
f 178/205/203 194/231/203 179/207/203
f 187/208/204 201/230/204 202/232/204
f 179/207/205 195/233/205 180/209/205
f 173/211/206 82/234/206 188/235/206
f 308/236/207 187/208/207 202/232/207
f 181/213/208 195/233/208 196/221/208
f 192/227/209 208/237/209 193/229/209
f 201/230/210 215/238/210 216/239/210
f 193/229/211 209/240/211 194/231/211
f 202/232/212 216/239/212 217/241/212
f 194/231/213 210/242/213 195/233/213
f 188/235/214 82/243/214 203/244/214
f 308/245/215 202/232/215 217/241/215
f 196/221/216 210/242/216 211/246/216
f 188/235/217 204/247/217 189/220/217
f 197/222/218 211/246/218 212/248/218
f 189/220/219 205/249/219 190/223/219
f 198/224/220 212/248/220 213/250/220
f 190/223/221 206/251/221 191/225/221
f 199/226/222 213/250/222 214/252/222
f 191/225/223 207/253/223 192/227/223
f 200/228/224 214/252/224 215/238/224
f 212/248/225 226/254/225 227/255/225
f 204/247/226 220/256/226 205/249/226
f 213/250/227 227/255/227 228/257/227
f 205/249/228 221/258/228 206/251/228
f 214/252/229 228/257/229 229/259/229
f 206/251/230 222/260/230 207/253/230
f 215/238/231 229/259/231 230/261/231
f 207/253/232 223/262/232 208/237/232
f 216/239/233 230/261/233 231/263/233
f 208/237/234 224/264/234 209/240/234
f 217/241/235 231/263/235 232/265/235
f 209/240/236 225/266/236 210/242/236
f 203/244/237 82/267/237 218/268/237
f 308/269/238 217/241/238 232/265/238
f 211/246/239 225/266/239 226/254/239
f 203/244/240 219/270/240 204/247/240
f 231/263/241 245/271/241 246/272/241
f 223/262/242 239/273/242 224/264/242
f 232/265/243 246/272/243 247/274/243
f 224/264/244 240/275/244 225/266/244
f 218/268/245 82/276/245 233/277/245
f 308/278/246 232/265/246 247/274/246
f 226/254/247 240/275/247 241/279/247
f 218/268/248 234/280/248 219/270/248
f 227/255/249 241/279/249 242/281/249
f 219/270/250 235/282/250 220/256/250
f 228/257/251 242/281/251 243/283/251
f 220/256/252 236/284/252 221/258/252
f 229/259/253 243/283/253 244/285/253
f 221/258/254 237/286/254 222/260/254
f 230/261/255 244/285/255 245/271/255
f 222/260/256 238/287/256 223/262/256
f 235/282/257 249/288/257 250/289/257
f 242/281/258 258/290/258 243/283/258
f 236/284/259 250/289/259 251/291/259
f 243/283/260 259/292/260 244/285/260
f 237/286/261 251/291/261 252/293/261
f 244/285/262 260/294/262 245/271/262
f 238/287/263 252/293/263 253/295/263
f 245/271/264 261/296/264 246/272/264
f 239/273/265 253/295/265 254/297/265
f 246/272/266 262/298/266 247/274/266
f 240/275/267 254/297/267 255/299/267
f 233/277/268 82/300/268 248/301/268
f 308/302/269 247/274/269 262/298/269
f 240/275/270 256/303/270 241/279/270
f 234/280/271 248/301/271 249/288/271
f 241/279/272 257/304/272 242/281/272
f 254/297/273 268/305/273 269/306/273
f 261/296/274 277/307/274 262/298/274
f 255/299/275 269/306/275 270/308/275
f 248/301/276 82/309/276 263/310/276
f 308/311/277 262/298/277 277/307/277
f 255/299/278 271/312/278 256/303/278
f 249/288/279 263/310/279 264/313/279
f 256/303/280 272/314/280 257/304/280
f 250/289/281 264/313/281 265/315/281
f 257/304/282 273/316/282 258/290/282
f 251/291/283 265/315/283 266/317/283
f 258/290/284 274/318/284 259/292/284
f 252/293/285 266/317/285 267/319/285
f 259/292/286 275/320/286 260/294/286
f 253/295/287 267/319/287 268/305/287
f 260/294/288 276/321/288 261/296/288
f 272/314/289 288/322/289 273/316/289
f 266/317/290 280/323/290 281/324/290
f 273/316/291 289/325/291 274/318/291
f 267/319/292 281/324/292 282/326/292
f 274/318/293 290/327/293 275/320/293
f 268/305/294 282/326/294 283/328/294
f 275/320/295 291/329/295 276/321/295
f 269/306/296 283/328/296 284/330/296
f 276/321/297 292/331/297 277/307/297
f 270/308/298 284/330/298 285/332/298
f 263/310/299 82/333/299 278/334/299
f 308/335/300 277/307/300 292/331/300
f 270/308/301 286/336/301 271/312/301
f 264/313/302 278/334/302 279/337/302
f 271/312/303 287/338/303 272/314/303
f 265/315/304 279/337/304 280/323/304
f 291/329/305 307/339/305 292/331/305
f 285/332/306 299/340/306 300/341/306
f 278/334/307 82/342/307 293/343/307
f 308/344/308 292/331/308 307/339/308
f 285/332/309 301/345/309 286/336/309
f 279/337/310 293/343/310 294/346/310
f 286/336/311 302/347/311 287/338/311
f 280/323/312 294/346/312 295/348/312
f 287/338/313 303/349/313 288/322/313
f 281/324/314 295/348/314 296/350/314
f 288/322/315 304/351/315 289/325/315
f 282/326/316 296/350/316 297/352/316
f 289/325/317 305/353/317 290/327/317
f 283/328/318 297/352/318 298/354/318
f 290/327/319 306/355/319 291/329/319
f 284/330/320 298/354/320 299/340/320
f 303/349/321 320/356/321 304/351/321
f 297/352/322 312/357/322 313/358/322
f 304/351/323 321/359/323 305/353/323
f 298/354/324 313/358/324 314/360/324
f 305/353/325 322/361/325 306/355/325
f 299/340/326 314/360/326 315/362/326
f 306/355/327 323/363/327 307/339/327
f 300/341/328 315/362/328 316/364/328
f 293/343/329 82/365/329 309/366/329
f 308/367/330 307/339/330 323/363/330
f 300/341/331 317/368/331 301/345/331
f 294/346/332 309/366/332 310/369/332
f 301/345/333 318/370/333 302/347/333
f 295/348/334 310/369/334 311/371/334
f 302/347/335 319/372/335 303/349/335
f 296/350/336 311/371/336 312/357/336
f 309/366/337 82/373/337 324/374/337
f 308/375/338 323/363/338 338/376/338
f 316/364/339 332/377/339 317/368/339
f 310/369/340 324/374/340 325/378/340
f 317/368/341 333/379/341 318/370/341
f 311/371/342 325/378/342 326/380/342
f 318/370/343 334/381/343 319/372/343
f 312/357/344 326/380/344 327/382/344
f 319/372/345 335/383/345 320/356/345
f 313/358/346 327/382/346 328/384/346
f 320/356/347 336/385/347 321/359/347
f 314/360/348 328/384/348 329/386/348
f 321/359/349 337/387/349 322/361/349
f 315/362/350 329/386/350 330/388/350
f 322/361/351 338/376/351 323/363/351
f 316/364/352 330/388/352 331/389/352
f 328/384/353 342/390/353 343/391/353
f 335/383/354 351/392/354 336/385/354
f 329/386/355 343/391/355 344/393/355
f 336/385/356 352/394/356 337/387/356
f 330/388/357 344/393/357 345/395/357
f 337/387/358 353/396/358 338/376/358
f 331/389/359 345/395/359 346/397/359
f 324/374/360 82/398/360 339/399/360
f 308/400/361 338/376/361 353/396/361
f 331/389/362 347/401/362 332/377/362
f 325/378/363 339/399/363 340/402/363
f 332/377/364 348/403/364 333/379/364
f 326/380/365 340/402/365 341/404/365
f 333/379/366 349/405/366 334/381/366
f 327/382/367 341/404/367 342/390/367
f 334/381/368 350/406/368 335/383/368
f 346/397/369 362/407/369 347/401/369
f 340/402/370 354/408/370 355/409/370
f 347/401/371 363/410/371 348/403/371
f 341/404/372 355/409/372 356/411/372
f 348/403/373 364/412/373 349/405/373
f 342/390/374 356/411/374 357/413/374
f 349/405/375 365/414/375 350/406/375
f 343/391/376 357/413/376 358/415/376
f 350/406/377 366/416/377 351/392/377
f 344/393/378 358/415/378 359/417/378
f 351/392/379 367/418/379 352/394/379
f 345/395/380 359/417/380 360/419/380
f 352/394/381 368/420/381 353/396/381
f 346/397/382 360/419/382 361/421/382
f 339/399/383 82/422/383 354/408/383
f 308/423/384 353/396/384 368/420/384
f 366/424/385 380/425/385 381/426/385
f 358/427/386 374/428/386 359/429/386
f 367/430/387 381/426/387 382/431/387
f 359/429/388 375/432/388 360/433/388
f 368/434/389 382/431/389 383/435/389
f 360/433/390 376/436/390 361/437/390
f 354/438/391 82/439/391 369/440/391
f 308/441/392 368/434/392 383/435/392
f 362/442/393 376/436/393 377/443/393
f 354/438/394 370/444/394 355/445/394
f 363/446/395 377/443/395 378/447/395
f 355/445/396 371/448/396 356/449/396
f 364/450/397 378/447/397 379/451/397
f 356/449/398 372/452/398 357/453/398
f 365/454/399 379/451/399 380/425/399
f 357/453/400 373/455/400 358/427/400
f 369/440/401 385/456/401 370/444/401
f 378/447/402 392/457/402 393/458/402
f 370/444/403 386/459/403 371/448/403
f 379/451/404 393/458/404 394/460/404
f 371/448/405 387/461/405 372/452/405
f 380/425/406 394/460/406 395/462/406
f 372/452/407 388/463/407 373/455/407
f 381/426/408 395/462/408 396/464/408
f 373/455/409 389/465/409 374/428/409
f 382/431/410 396/464/410 397/466/410
f 374/428/411 390/467/411 375/432/411
f 383/435/412 397/466/412 398/468/412
f 375/432/413 391/469/413 376/436/413
f 369/440/414 82/470/414 384/471/414
f 308/472/415 383/435/415 398/468/415
f 377/443/416 391/469/416 392/457/416
f 388/463/417 404/473/417 389/465/417
f 397/466/418 411/474/418 412/475/418
f 389/465/419 405/476/419 390/467/419
f 398/468/420 412/475/420 413/477/420
f 390/467/421 406/478/421 391/469/421
f 384/471/422 82/479/422 399/480/422
f 308/481/423 398/468/423 413/477/423
f 392/457/424 406/478/424 407/482/424
f 384/471/425 400/483/425 385/456/425
f 393/458/426 407/482/426 408/484/426
f 385/456/427 401/485/427 386/459/427
f 394/460/428 408/484/428 409/486/428
f 386/459/429 402/487/429 387/461/429
f 395/462/430 409/486/430 410/488/430
f 387/461/431 403/489/431 388/463/431
f 396/464/432 410/488/432 411/474/432
f 408/484/433 422/490/433 423/491/433
f 400/483/434 416/492/434 401/485/434
f 409/486/435 423/491/435 424/493/435
f 401/485/436 417/494/436 402/487/436
f 410/488/437 424/493/437 425/495/437
f 402/487/438 418/496/438 403/489/438
f 411/474/439 425/495/439 426/497/439
f 403/489/440 419/498/440 404/473/440
f 412/475/441 426/497/441 427/499/441
f 404/473/442 420/500/442 405/476/442
f 413/477/443 427/499/443 428/501/443
f 405/476/444 421/502/444 406/478/444
f 399/480/445 82/503/445 414/504/445
f 308/505/446 413/477/446 428/501/446
f 407/482/447 421/502/447 422/490/447
f 399/480/448 415/506/448 400/483/448
f 427/499/449 441/507/449 442/508/449
f 419/498/450 435/509/450 420/500/450
f 428/501/451 442/508/451 443/510/451
f 420/500/452 436/511/452 421/502/452
f 414/504/453 82/512/453 429/513/453
f 308/514/454 428/501/454 443/510/454
f 422/490/455 436/511/455 437/515/455
f 414/504/456 430/516/456 415/506/456
f 423/491/457 437/515/457 438/517/457
f 415/506/458 431/518/458 416/492/458
f 424/493/459 438/517/459 439/519/459
f 416/492/460 432/520/460 417/494/460
f 425/495/461 439/519/461 440/521/461
f 417/494/462 433/522/462 418/496/462
f 426/497/463 440/521/463 441/507/463
f 418/496/464 434/523/464 419/498/464
f 439/519/465 453/524/465 454/525/465
f 431/518/466 447/526/466 432/520/466
f 440/521/467 454/525/467 455/527/467
f 432/520/468 448/528/468 433/522/468
f 441/507/469 455/527/469 456/529/469
f 433/522/470 449/530/470 434/523/470
f 442/508/471 456/529/471 457/531/471
f 434/523/472 450/532/472 435/509/472
f 443/510/473 457/531/473 458/533/473
f 435/509/474 451/534/474 436/511/474
f 429/513/475 82/535/475 444/536/475
f 308/537/476 443/510/476 458/533/476
f 437/515/477 451/534/477 452/538/477
f 429/513/478 445/539/478 430/516/478
f 438/517/479 452/538/479 453/524/479
f 430/516/480 446/540/480 431/518/480
f 458/533/481 472/541/481 473/542/481
f 450/532/482 466/543/482 451/534/482
f 444/536/483 82/544/483 459/545/483
f 308/546/484 458/533/484 473/542/484
f 452/538/485 466/543/485 467/547/485
f 444/536/486 460/548/486 445/539/486
f 453/524/487 467/547/487 468/549/487
f 445/539/488 461/550/488 446/540/488
f 454/525/489 468/549/489 469/551/489
f 446/540/490 462/552/490 447/526/490
f 455/527/491 469/551/491 470/553/491
f 447/526/492 463/554/492 448/528/492
f 456/529/493 470/553/493 471/555/493
f 448/528/494 464/556/494 449/530/494
f 457/531/495 471/555/495 472/541/495
f 449/530/496 465/557/496 450/532/496
f 461/550/497 476/4/497 462/552/497
f 470/553/498 6/3/498 479/8/498
f 462/552/499 2/9/499 463/554/499
f 471/555/500 479/8/500 480/12/500
f 463/554/501 477/13/501 464/556/501
f 472/541/502 480/12/502 481/16/502
f 464/556/503 3/17/503 465/557/503
f 473/542/504 481/16/504 482/20/504
f 465/557/505 4/21/505 466/543/505
f 459/545/506 82/558/506 474/23/506
f 308/559/507 473/542/507 482/20/507
f 467/547/508 4/21/508 5/28/508
f 459/545/509 475/29/509 460/548/509
f 468/549/510 5/28/510 478/1/510
f 460/548/511 1/32/511 461/550/511
f 469/551/512 478/1/512 6/3/512
f 478/1/1 16/31/1 17/2/1
f 476/4/2 1/32/2 9/5/2
f 6/3/3 17/2/3 18/7/3
f 2/9/4 476/4/4 10/6/4
f 479/8/5 18/7/5 19/11/5
f 477/13/6 2/9/6 11/10/6
f 480/12/7 19/11/7 20/15/7
f 3/17/8 477/13/8 12/14/8
f 481/16/9 20/15/9 21/19/9
f 4/21/10 3/17/10 13/18/10
f 4/21/13 14/22/13 15/27/13
f 475/29/14 474/23/14 7/25/14
f 5/28/15 15/27/15 16/31/15
f 1/32/16 475/29/16 8/30/16
f 15/27/17 30/49/17 31/33/17
f 9/5/18 8/30/18 23/34/18
f 16/31/19 31/33/19 32/36/19
f 10/6/20 9/5/20 24/35/20
f 17/2/21 32/36/21 33/38/21
f 11/10/22 10/6/22 25/37/22
f 18/7/23 33/38/23 34/40/23
f 12/14/24 11/10/24 26/39/24
f 19/11/25 34/40/25 35/42/25
f 13/18/26 12/14/26 27/41/26
f 20/15/27 35/42/27 36/44/27
f 14/22/28 13/18/28 28/43/28
f 14/22/31 29/45/31 30/49/31
f 8/30/32 7/25/32 22/47/32
f 34/40/33 49/66/33 50/50/33
f 28/43/34 27/41/34 42/51/34
f 35/42/35 50/50/35 51/53/35
f 29/45/36 28/43/36 43/52/36
f 29/45/39 44/54/39 45/58/39
f 23/34/40 22/47/40 37/56/40
f 30/49/41 45/58/41 46/60/41
f 24/35/42 23/34/42 38/59/42
f 31/33/43 46/60/43 47/62/43
f 25/37/44 24/35/44 39/61/44
f 32/36/45 47/62/45 48/64/45
f 26/39/46 25/37/46 40/63/46
f 33/38/47 48/64/47 49/66/47
f 27/41/48 26/39/48 41/65/48
f 39/61/49 38/59/49 53/67/49
f 46/60/50 61/83/50 62/69/50
f 40/63/51 39/61/51 54/68/51
f 47/62/52 62/69/52 63/71/52
f 41/65/53 40/63/53 55/70/53
f 48/64/54 63/71/54 64/73/54
f 42/51/55 41/65/55 56/72/55
f 49/66/56 64/73/56 65/75/56
f 43/52/57 42/51/57 57/74/57
f 50/50/58 65/75/58 66/77/58
f 44/54/59 43/52/59 58/76/59
f 44/54/62 59/78/62 60/82/62
f 38/59/63 37/56/63 52/80/63
f 45/58/64 60/82/64 61/83/64
f 58/76/65 57/74/65 72/84/65
f 65/75/66 80/100/66 81/86/66
f 59/78/67 58/76/67 73/85/67
f 59/78/70 74/87/70 75/91/70
f 53/67/71 52/80/71 67/89/71
f 60/82/72 75/91/72 76/93/72
f 54/68/73 53/67/73 68/92/73
f 61/83/74 76/93/74 77/95/74
f 55/70/75 54/68/75 69/94/75
f 62/69/76 77/95/76 78/97/76
f 56/72/77 55/70/77 70/96/77
f 63/71/78 78/97/78 79/99/78
f 57/74/79 56/72/79 71/98/79
f 64/73/80 79/99/80 80/100/80
f 76/93/81 92/117/81 93/101/81
f 70/96/82 69/94/82 85/102/82
f 77/95/83 93/101/83 94/104/83
f 71/98/84 70/96/84 86/103/84
f 78/97/85 94/104/85 95/106/85
f 72/84/86 71/98/86 87/105/86
f 79/99/87 95/106/87 96/108/87
f 73/85/88 72/84/88 88/107/88
f 80/100/89 96/108/89 97/110/89
f 74/87/90 73/85/90 89/109/90
f 74/87/93 90/111/93 91/115/93
f 68/92/94 67/89/94 83/113/94
f 75/91/95 91/115/95 92/117/95
f 69/94/96 68/92/96 84/116/96
f 96/108/97 111/134/97 112/118/97
f 90/111/98 89/109/98 104/119/98
f 90/111/101 105/120/101 106/124/101
f 84/116/102 83/113/102 98/122/102
f 91/115/513 106/124/513 107/126/513
f 85/102/104 84/116/104 99/125/104
f 92/117/105 107/126/105 108/128/105
f 86/103/106 85/102/106 100/127/106
f 93/101/107 108/128/107 109/130/107
f 87/105/108 86/103/108 101/129/108
f 94/104/109 109/130/109 110/132/109
f 88/107/110 87/105/110 102/131/110
f 95/106/111 110/132/111 111/134/111
f 89/109/514 88/107/514 103/133/514
f 101/129/113 100/127/113 115/135/113
f 108/128/114 123/151/114 124/137/114
f 102/131/115 101/129/115 116/136/115
f 109/130/116 124/137/116 125/139/116
f 103/133/117 102/131/117 117/138/117
f 110/132/118 125/139/118 126/141/118
f 104/119/119 103/133/119 118/140/119
f 111/134/120 126/141/120 127/143/120
f 105/120/121 104/119/121 119/142/121
f 105/120/124 120/144/124 121/148/124
f 99/125/125 98/122/125 113/146/125
f 106/124/126 121/148/126 122/150/126
f 100/127/127 99/125/127 114/149/127
f 107/126/128 122/150/128 123/151/128
f 119/142/129 134/168/129 135/152/129
f 121/148/132 120/144/132 135/152/132
f 113/146/133 128/154/133 129/158/133
f 122/150/134 121/148/134 136/157/134
f 114/149/135 129/158/135 130/160/135
f 123/151/136 122/150/136 137/159/136
f 115/135/137 130/160/137 131/162/137
f 124/137/138 123/151/138 138/161/138
f 116/136/139 131/162/139 132/164/139
f 125/139/140 124/137/140 139/163/140
f 117/138/141 132/164/141 133/166/141
f 126/141/142 125/139/142 140/165/142
f 118/140/143 133/166/143 134/168/143
f 127/143/144 126/141/144 141/167/144
f 139/163/145 138/161/145 153/169/145
f 131/162/146 146/185/146 147/171/146
f 140/165/147 139/163/147 154/170/147
f 132/164/148 147/171/148 148/173/148
f 141/167/149 140/165/149 155/172/149
f 133/166/515 148/173/515 149/175/515
f 142/156/151 141/167/151 156/174/151
f 134/168/152 149/175/152 150/177/152
f 136/157/155 135/152/155 150/177/155
f 128/154/156 143/179/156 144/182/156
f 137/159/516 136/157/516 151/181/516
f 129/158/158 144/182/158 145/184/158
f 138/161/159 137/159/159 152/183/159
f 130/160/160 145/184/160 146/185/160
f 151/181/162 150/177/162 165/188/162
f 143/179/163 158/202/163 159/190/163
f 152/183/164 151/181/164 166/189/164
f 144/182/165 159/190/165 160/192/165
f 153/169/166 152/183/166 167/191/166
f 145/184/167 160/192/167 161/194/167
f 154/170/168 153/169/168 168/193/168
f 146/185/169 161/194/169 162/196/169
f 155/172/170 154/170/170 169/195/170
f 147/171/171 162/196/171 163/198/171
f 156/174/172 155/172/172 170/197/172
f 148/173/173 163/198/173 164/200/173
f 157/176/174 156/174/174 171/199/174
f 149/175/175 164/200/175 165/188/175
f 170/197/177 169/195/177 184/203/177
f 162/196/178 177/219/178 178/205/178
f 171/199/179 170/197/179 185/204/179
f 163/198/180 178/205/180 179/207/180
f 172/187/181 171/199/181 186/206/181
f 164/200/182 179/207/182 180/209/182
f 166/189/185 165/188/185 180/209/185
f 158/202/186 173/211/186 174/214/186
f 167/191/187 166/189/187 181/213/187
f 159/190/188 174/214/188 175/216/188
f 168/193/189 167/191/189 182/215/189
f 160/192/190 175/216/190 176/218/190
f 169/195/191 168/193/191 183/217/191
f 161/194/192 176/218/192 177/219/192
f 173/211/193 188/235/193 189/220/193
f 182/215/194 181/213/194 196/221/194
f 174/214/195 189/220/195 190/223/195
f 183/217/196 182/215/196 197/222/196
f 175/216/197 190/223/197 191/225/197
f 184/203/198 183/217/198 198/224/198
f 176/218/199 191/225/199 192/227/199
f 185/204/200 184/203/200 199/226/200
f 177/219/201 192/227/201 193/229/201
f 186/206/202 185/204/202 200/228/202
f 178/205/203 193/229/203 194/231/203
f 187/208/204 186/206/204 201/230/204
f 179/207/205 194/231/205 195/233/205
f 181/213/208 180/209/208 195/233/208
f 192/227/209 207/253/209 208/237/209
f 201/230/210 200/228/210 215/238/210
f 193/229/211 208/237/211 209/240/211
f 202/232/212 201/230/212 216/239/212
f 194/231/213 209/240/213 210/242/213
f 196/221/216 195/233/216 210/242/216
f 188/235/217 203/244/217 204/247/217
f 197/222/218 196/221/218 211/246/218
f 189/220/219 204/247/219 205/249/219
f 198/224/220 197/222/220 212/248/220
f 190/223/221 205/249/221 206/251/221
f 199/226/222 198/224/222 213/250/222
f 191/225/223 206/251/223 207/253/223
f 200/228/224 199/226/224 214/252/224
f 212/248/225 211/246/225 226/254/225
f 204/247/226 219/270/226 220/256/226
f 213/250/227 212/248/227 227/255/227
f 205/249/228 220/256/228 221/258/228
f 214/252/229 213/250/229 228/257/229
f 206/251/230 221/258/230 222/260/230
f 215/238/231 214/252/231 229/259/231
f 207/253/232 222/260/232 223/262/232
f 216/239/233 215/238/233 230/261/233
f 208/237/234 223/262/234 224/264/234
f 217/241/235 216/239/235 231/263/235
f 209/240/236 224/264/236 225/266/236
f 211/246/239 210/242/239 225/266/239
f 203/244/240 218/268/240 219/270/240
f 231/263/241 230/261/241 245/271/241
f 223/262/242 238/287/242 239/273/242
f 232/265/243 231/263/243 246/272/243
f 224/264/244 239/273/244 240/275/244
f 226/254/247 225/266/247 240/275/247
f 218/268/248 233/277/248 234/280/248
f 227/255/249 226/254/249 241/279/249
f 219/270/250 234/280/250 235/282/250
f 228/257/251 227/255/251 242/281/251
f 220/256/252 235/282/252 236/284/252
f 229/259/253 228/257/253 243/283/253
f 221/258/254 236/284/254 237/286/254
f 230/261/255 229/259/255 244/285/255
f 222/260/256 237/286/256 238/287/256
f 235/282/257 234/280/257 249/288/257
f 242/281/258 257/304/258 258/290/258
f 236/284/259 235/282/259 250/289/259
f 243/283/260 258/290/260 259/292/260
f 237/286/261 236/284/261 251/291/261
f 244/285/262 259/292/262 260/294/262
f 238/287/263 237/286/263 252/293/263
f 245/271/264 260/294/264 261/296/264
f 239/273/265 238/287/265 253/295/265
f 246/272/266 261/296/266 262/298/266
f 240/275/267 239/273/267 254/297/267
f 240/275/270 255/299/270 256/303/270
f 234/280/271 233/277/271 248/301/271
f 241/279/272 256/303/272 257/304/272
f 254/297/273 253/295/273 268/305/273
f 261/296/274 276/321/274 277/307/274
f 255/299/275 254/297/275 269/306/275
f 255/299/278 270/308/278 271/312/278
f 249/288/279 248/301/279 263/310/279
f 256/303/280 271/312/280 272/314/280
f 250/289/281 249/288/281 264/313/281
f 257/304/282 272/314/282 273/316/282
f 251/291/283 250/289/283 265/315/283
f 258/290/284 273/316/284 274/318/284
f 252/293/285 251/291/285 266/317/285
f 259/292/286 274/318/286 275/320/286
f 253/295/287 252/293/287 267/319/287
f 260/294/288 275/320/288 276/321/288
f 272/314/289 287/338/289 288/322/289
f 266/317/290 265/315/290 280/323/290
f 273/316/291 288/322/291 289/325/291
f 267/319/292 266/317/292 281/324/292
f 274/318/293 289/325/293 290/327/293
f 268/305/294 267/319/294 282/326/294
f 275/320/295 290/327/295 291/329/295
f 269/306/296 268/305/296 283/328/296
f 276/321/297 291/329/297 292/331/297
f 270/308/298 269/306/298 284/330/298
f 270/308/301 285/332/301 286/336/301
f 264/313/302 263/310/302 278/334/302
f 271/312/303 286/336/303 287/338/303
f 265/315/304 264/313/304 279/337/304
f 291/329/305 306/355/305 307/339/305
f 285/332/306 284/330/306 299/340/306
f 285/332/309 300/341/309 301/345/309
f 279/337/310 278/334/310 293/343/310
f 286/336/311 301/345/311 302/347/311
f 280/323/312 279/337/312 294/346/312
f 287/338/313 302/347/313 303/349/313
f 281/324/314 280/323/314 295/348/314
f 288/322/315 303/349/315 304/351/315
f 282/326/316 281/324/316 296/350/316
f 289/325/317 304/351/317 305/353/317
f 283/328/318 282/326/318 297/352/318
f 290/327/319 305/353/319 306/355/319
f 284/330/320 283/328/320 298/354/320
f 303/349/321 319/372/321 320/356/321
f 297/352/322 296/350/322 312/357/322
f 304/351/323 320/356/323 321/359/323
f 298/354/324 297/352/324 313/358/324
f 305/353/325 321/359/325 322/361/325
f 299/340/326 298/354/326 314/360/326
f 306/355/327 322/361/327 323/363/327
f 300/341/328 299/340/328 315/362/328
f 300/341/331 316/364/331 317/368/331
f 294/346/332 293/343/332 309/366/332
f 301/345/333 317/368/333 318/370/333
f 295/348/334 294/346/334 310/369/334
f 302/347/335 318/370/335 319/372/335
f 296/350/336 295/348/336 311/371/336
f 316/364/339 331/389/339 332/377/339
f 310/369/340 309/366/340 324/374/340
f 317/368/341 332/377/341 333/379/341
f 311/371/342 310/369/342 325/378/342
f 318/370/343 333/379/343 334/381/343
f 312/357/344 311/371/344 326/380/344
f 319/372/345 334/381/345 335/383/345
f 313/358/346 312/357/346 327/382/346
f 320/356/347 335/383/347 336/385/347
f 314/360/348 313/358/348 328/384/348
f 321/359/349 336/385/349 337/387/349
f 315/362/350 314/360/350 329/386/350
f 322/361/351 337/387/351 338/376/351
f 316/364/352 315/362/352 330/388/352
f 328/384/353 327/382/353 342/390/353
f 335/383/354 350/406/354 351/392/354
f 329/386/355 328/384/355 343/391/355
f 336/385/356 351/392/356 352/394/356
f 330/388/357 329/386/357 344/393/357
f 337/387/358 352/394/358 353/396/358
f 331/389/359 330/388/359 345/395/359
f 331/389/362 346/397/362 347/401/362
f 325/378/363 324/374/363 339/399/363
f 332/377/364 347/401/364 348/403/364
f 326/380/365 325/378/365 340/402/365
f 333/379/366 348/403/366 349/405/366
f 327/382/367 326/380/367 341/404/367
f 334/381/368 349/405/368 350/406/368
f 346/397/369 361/421/369 362/407/369
f 340/402/370 339/399/370 354/408/370
f 347/401/371 362/407/371 363/410/371
f 341/404/372 340/402/372 355/409/372
f 348/403/373 363/410/373 364/412/373
f 342/390/374 341/404/374 356/411/374
f 349/405/375 364/412/375 365/414/375
f 343/391/376 342/390/376 357/413/376
f 350/406/377 365/414/377 366/416/377
f 344/393/378 343/391/378 358/415/378
f 351/392/379 366/416/379 367/418/379
f 345/395/380 344/393/380 359/417/380
f 352/394/381 367/418/381 368/420/381
f 346/397/382 345/395/382 360/419/382
f 366/424/385 365/454/385 380/425/385
f 358/427/386 373/455/386 374/428/386
f 367/430/387 366/424/387 381/426/387
f 359/429/388 374/428/388 375/432/388
f 368/434/389 367/430/389 382/431/389
f 360/433/390 375/432/390 376/436/390
f 362/442/393 361/437/393 376/436/393
f 354/438/394 369/440/394 370/444/394
f 363/446/395 362/442/395 377/443/395
f 355/445/396 370/444/396 371/448/396
f 364/450/397 363/446/397 378/447/397
f 356/449/398 371/448/398 372/452/398
f 365/454/399 364/450/399 379/451/399
f 357/453/400 372/452/400 373/455/400
f 369/440/401 384/471/401 385/456/401
f 378/447/402 377/443/402 392/457/402
f 370/444/403 385/456/403 386/459/403
f 379/451/404 378/447/404 393/458/404
f 371/448/405 386/459/405 387/461/405
f 380/425/406 379/451/406 394/460/406
f 372/452/407 387/461/407 388/463/407
f 381/426/408 380/425/408 395/462/408
f 373/455/409 388/463/409 389/465/409
f 382/431/410 381/426/410 396/464/410
f 374/428/411 389/465/411 390/467/411
f 383/435/412 382/431/412 397/466/412
f 375/432/413 390/467/413 391/469/413
f 377/443/416 376/436/416 391/469/416
f 388/463/417 403/489/417 404/473/417
f 397/466/418 396/464/418 411/474/418
f 389/465/419 404/473/419 405/476/419
f 398/468/420 397/466/420 412/475/420
f 390/467/421 405/476/421 406/478/421
f 392/457/424 391/469/424 406/478/424
f 384/471/425 399/480/425 400/483/425
f 393/458/426 392/457/426 407/482/426
f 385/456/427 400/483/427 401/485/427
f 394/460/428 393/458/428 408/484/428
f 386/459/429 401/485/429 402/487/429
f 395/462/430 394/460/430 409/486/430
f 387/461/431 402/487/431 403/489/431
f 396/464/432 395/462/432 410/488/432
f 408/484/433 407/482/433 422/490/433
f 400/483/434 415/506/434 416/492/434
f 409/486/435 408/484/435 423/491/435
f 401/485/436 416/492/436 417/494/436
f 410/488/437 409/486/437 424/493/437
f 402/487/438 417/494/438 418/496/438
f 411/474/439 410/488/439 425/495/439
f 403/489/440 418/496/440 419/498/440
f 412/475/441 411/474/441 426/497/441
f 404/473/442 419/498/442 420/500/442
f 413/477/443 412/475/443 427/499/443
f 405/476/444 420/500/444 421/502/444
f 407/482/447 406/478/447 421/502/447
f 399/480/448 414/504/448 415/506/448
f 427/499/449 426/497/449 441/507/449
f 419/498/450 434/523/450 435/509/450
f 428/501/451 427/499/451 442/508/451
f 420/500/452 435/509/452 436/511/452
f 422/490/455 421/502/455 436/511/455
f 414/504/456 429/513/456 430/516/456
f 423/491/457 422/490/457 437/515/457
f 415/506/458 430/516/458 431/518/458
f 424/493/459 423/491/459 438/517/459
f 416/492/460 431/518/460 432/520/460
f 425/495/461 424/493/461 439/519/461
f 417/494/462 432/520/462 433/522/462
f 426/497/463 425/495/463 440/521/463
f 418/496/464 433/522/464 434/523/464
f 439/519/465 438/517/465 453/524/465
f 431/518/466 446/540/466 447/526/466
f 440/521/467 439/519/467 454/525/467
f 432/520/468 447/526/468 448/528/468
f 441/507/469 440/521/469 455/527/469
f 433/522/470 448/528/470 449/530/470
f 442/508/471 441/507/471 456/529/471
f 434/523/472 449/530/472 450/532/472
f 443/510/473 442/508/473 457/531/473
f 435/509/474 450/532/474 451/534/474
f 437/515/477 436/511/477 451/534/477
f 429/513/478 444/536/478 445/539/478
f 438/517/479 437/515/479 452/538/479
f 430/516/480 445/539/480 446/540/480
f 458/533/481 457/531/481 472/541/481
f 450/532/482 465/557/482 466/543/482
f 452/538/485 451/534/485 466/543/485
f 444/536/486 459/545/486 460/548/486
f 453/524/487 452/538/487 467/547/487
f 445/539/488 460/548/488 461/550/488
f 454/525/489 453/524/489 468/549/489
f 446/540/490 461/550/490 462/552/490
f 455/527/491 454/525/491 469/551/491
f 447/526/492 462/552/492 463/554/492
f 456/529/493 455/527/493 470/553/493
f 448/528/494 463/554/494 464/556/494
f 457/531/495 456/529/495 471/555/495
f 449/530/496 464/556/496 465/557/496
f 461/550/497 1/32/497 476/4/497
f 470/553/498 469/551/498 6/3/498
f 462/552/499 476/4/499 2/9/499
f 471/555/500 470/553/500 479/8/500
f 463/554/501 2/9/501 477/13/501
f 472/541/502 471/555/502 480/12/502
f 464/556/503 477/13/503 3/17/503
f 473/542/504 472/541/504 481/16/504
f 465/557/505 3/17/505 4/21/505
f 467/547/508 466/543/508 4/21/508
f 459/545/509 474/23/509 475/29/509
f 468/549/510 467/547/510 5/28/510
f 460/548/511 475/29/511 1/32/511
f 469/551/512 468/549/512 478/1/512
